<svg width="24" height="25" viewBox="0 0 24 25" fill="none" xmlns="http://www.w3.org/2000/svg">
<path d="M17 2.93848H7C4.23858 2.93848 2 5.17705 2 7.93848V17.9385C2 20.6999 4.23858 22.9385 7 22.9385H17C19.7614 22.9385 22 20.6999 22 17.9385V7.93848C22 5.17705 19.7614 2.93848 17 2.93848Z" stroke="#DEC37D" stroke-width="2" stroke-linecap="round" stroke-linejoin="round"/>
<path d="M16 12.3088C16.1234 13.141 15.9813 13.991 15.5938 14.7378C15.2063 15.4846 14.5931 16.0902 13.8416 16.4685C13.0901 16.8467 12.2384 16.9784 11.4078 16.8447C10.5771 16.711 9.80976 16.3189 9.21484 15.7239C8.61992 15.129 8.22773 14.3617 8.09407 13.531C7.9604 12.7003 8.09207 11.8487 8.47033 11.0972C8.84859 10.3456 9.45419 9.73252 10.201 9.34502C10.9478 8.95752 11.7978 8.81537 12.63 8.93878C13.4789 9.06466 14.2649 9.46024 14.8717 10.0671C15.4785 10.6739 15.8741 11.4599 16 12.3088Z" stroke="#DEC37D" stroke-width="2" stroke-linecap="round" stroke-linejoin="round"/>
<path d="M17.5 7.43848H17.51" stroke="#DEC37D" stroke-width="2" stroke-linecap="round" stroke-linejoin="round"/>
</svg>
