<svg width="24" height="25" viewBox="0 0 24 25" fill="none" xmlns="http://www.w3.org/2000/svg">
<path d="M2.5 17.9385C1.80142 14.6417 1.80142 11.2352 2.5 7.93848C2.59179 7.60369 2.76914 7.29855 3.01461 7.05308C3.26007 6.80761 3.56521 6.63026 3.9 6.53848C9.26345 5.64994 14.7366 5.64994 20.1 6.53848C20.4348 6.63026 20.7399 6.80761 20.9854 7.05308C21.2309 7.29855 21.4082 7.60369 21.5 7.93848C22.1986 11.2352 22.1986 14.6417 21.5 17.9385C21.4082 18.2733 21.2309 18.5784 20.9854 18.8239C20.7399 19.0693 20.4348 19.2467 20.1 19.3385C14.7366 20.2272 9.26343 20.2272 3.9 19.3385C3.56521 19.2467 3.26007 19.0693 3.01461 18.8239C2.76914 18.5784 2.59179 18.2733 2.5 17.9385Z" stroke="#DEC37D" stroke-width="2" stroke-linecap="round" stroke-linejoin="round"/>
<path d="M10 15.9385L15 12.9385L10 9.93848V15.9385Z" stroke="#DEC37D" stroke-width="2" stroke-linecap="round" stroke-linejoin="round"/>
</svg>
