<svg width="89" height="89" viewBox="0 0 89 89" fill="none" xmlns="http://www.w3.org/2000/svg">
<path d="M17.9343 61.6423C17.9343 61.4323 17.7816 61.2891 17.6002 61.2891C17.4092 61.2891 17.2565 61.4514 17.2565 61.6328C17.2565 61.8237 17.3997 61.9765 17.6002 61.9765C17.8007 61.9765 17.9343 61.8142 17.9343 61.6423Z" fill="white"/>
<path d="M18.4976 61.9765C18.6886 61.9765 18.8318 61.8142 18.8318 61.6423C18.8318 61.4323 18.679 61.2891 18.4976 61.2891C18.3067 61.2891 18.1539 61.4514 18.1539 61.6328C18.1539 61.8237 18.3067 61.9765 18.4976 61.9765Z" fill="white"/>
<path d="M20.7221 62.5402C20.2352 62.5402 19.8533 62.9794 19.7865 63.7146L20.3689 63.6477C20.3211 63.495 20.2925 63.3709 20.2925 63.2754C20.2925 63.0653 20.3784 62.9603 20.5407 62.9603C20.7699 62.9603 21.0468 63.1704 21.3523 63.5809C21.591 63.896 21.7724 64.2206 21.906 64.5261H19.2996C19.0227 64.5261 18.889 64.3734 18.889 64.0774V62.2061C18.679 62.2442 18.4594 62.292 18.2207 62.3588L18.2589 62.6071H18.0775C17.686 62.6071 17.3709 62.7216 17.1323 62.9412C16.8936 63.1608 16.779 63.4472 16.779 63.81C16.779 64.4784 17.1418 64.908 17.7337 64.908C18.0202 64.908 18.2589 64.8507 18.4498 64.7457C18.6312 64.9367 18.8604 65.0321 19.1563 65.0321H22.6794C22.6412 64.5834 22.4216 64.0678 22.0111 63.4854C21.5719 62.8553 21.1327 62.5402 20.7126 62.5402H20.7221ZM18.3543 64.3734C18.2016 64.4211 18.0393 64.4402 17.8674 64.4402C17.5237 64.4402 17.3518 64.192 17.3518 63.705C17.3518 63.495 17.4187 63.3231 17.5619 63.1895C17.7051 63.0462 17.8674 62.9794 18.0584 62.9794C18.1538 62.9794 18.2493 62.9794 18.3639 62.9699V64.3734H18.3543Z" fill="white"/>
<path d="M24.8181 65.5859C24.6367 65.5859 24.4744 65.7387 24.4744 65.9201C24.4744 66.1206 24.6367 66.2638 24.8181 66.2638C25.0091 66.2638 25.1619 66.1015 25.1619 65.9297C25.1619 65.7387 24.9995 65.5859 24.8181 65.5859Z" fill="white"/>
<path d="M25.7156 65.5859C25.5342 65.5859 25.3815 65.7387 25.3815 65.9201C25.3815 66.1206 25.5342 66.2638 25.7156 66.2638C25.9066 66.2638 26.0593 66.1015 26.0593 65.9297C26.0593 65.7387 25.9066 65.5859 25.7156 65.5859Z" fill="white"/>
<path d="M38.3661 62.2918V64.0676C38.3661 64.3732 38.2324 64.5259 37.9555 64.5259H36.9626C36.6952 64.5259 36.5616 64.3732 36.5616 64.0676V61.4325L35.8932 61.5853L35.9983 62.33V64.0676C35.9983 64.3732 35.8646 64.5259 35.5973 64.5259H35.0435C34.7762 64.5259 34.6425 64.3827 34.6425 64.0867V62.6641L33.9742 62.8169L34.0792 63.5425V64.0867C34.0792 64.3827 33.9455 64.5259 33.6878 64.5259C33.5063 64.5259 33.344 64.4591 33.2104 64.3159V62.8742L32.6566 62.9983V64.0772C32.6566 64.3732 32.5229 64.5164 32.2652 64.5164C32.0838 64.5164 31.9214 64.4591 31.7782 64.3254V62.8742L31.234 62.9983V64.0772C31.2245 64.3732 31.0908 64.5164 30.8235 64.5164H26.3934C26.1165 64.5164 25.9829 64.3732 25.9829 64.0772V62.6355L25.3145 62.7787L25.4291 63.4948V64.0676C25.4291 64.3636 25.2954 64.5068 25.0186 64.5068H24.3502C24.0829 64.5068 23.9492 64.3541 23.9492 64.0485V61.4134L23.3 61.5662L23.3955 62.2822V64.1822C23.3955 64.6978 23.7105 65.0128 24.2166 65.0128H25.1618C25.3718 65.0128 25.5532 64.9556 25.6964 64.841C25.8396 64.9556 26.021 65.0128 26.2406 65.0128H30.9476C31.1958 65.0128 31.3963 64.9365 31.5491 64.8028C31.5873 64.7646 31.6255 64.7264 31.6541 64.6882C31.8737 64.9078 32.1219 65.0128 32.4084 65.0128C32.7139 65.0128 32.9335 64.9078 33.0863 64.6978C33.2963 64.9078 33.535 65.0128 33.831 65.0128C34.041 65.0128 34.2224 64.9556 34.3656 64.841C34.5184 64.9556 34.6998 65.0128 34.9194 65.0128H35.75C35.9601 65.0128 36.1415 64.9556 36.2847 64.841C36.4279 64.9556 36.6093 65.0128 36.8384 65.0128H38.0987C38.6143 65.0128 38.9294 64.6978 38.9294 64.1822V61.3848L38.2801 61.5375L38.3756 62.2727L38.3661 62.2918Z" fill="white"/>
<path d="M52.1528 61.7765C52.1528 61.977 52.3056 62.1203 52.4965 62.1203C52.6875 62.1203 52.8403 61.9675 52.8403 61.7861C52.8403 61.5951 52.6875 61.4424 52.4965 61.4424C52.3056 61.4424 52.1528 61.5951 52.1528 61.7765Z" fill="white"/>
<path d="M51.5991 62.1105C51.79 62.1105 51.9428 61.9577 51.9428 61.7763C51.9428 61.5854 51.7805 61.4326 51.5991 61.4326C51.4177 61.4326 51.2554 61.5854 51.2554 61.7668C51.2554 61.9673 51.4177 62.1105 51.5991 62.1105Z" fill="white"/>
<path d="M52.0574 62.4831C51.8282 62.4831 51.6373 62.5404 51.4654 62.6645C51.2363 62.8268 51.1217 63.0655 51.1217 63.3806C51.1217 63.963 51.4368 64.2589 52.0574 64.2589C52.2101 64.2589 52.3342 64.2398 52.4297 64.1921C52.3915 64.4117 52.191 64.5263 51.8187 64.5263H50.2147V63.6765C50.2147 63.3615 50.0906 63.1132 49.8328 62.9318C49.575 62.7504 49.2599 62.6549 48.878 62.6549C48.5152 62.6549 48.1429 62.8077 47.7705 63.1323C47.4554 63.3806 47.2167 63.667 47.0544 63.963V62.3494L47.1117 61.6143L46.4147 61.6715L46.5007 62.359V64.5358H41.7173C41.4405 64.5358 41.3068 64.3831 41.3068 64.0775V62.6836L40.6385 62.8363L40.753 63.5811V64.9846C40.753 65.5383 40.5048 65.9011 39.9797 66.0634L40.1038 66.283C40.839 66.0825 41.2304 65.6624 41.2972 65.0132C41.3832 65.0418 41.4786 65.0514 41.5741 65.0514H51.7709C52.6207 65.0514 53.0217 64.6408 53.0217 63.6383V63.3806C53.0217 63.1228 52.9453 62.9223 52.783 62.76C52.6111 62.5881 52.3629 62.5022 52.0574 62.5022V62.4831ZM49.6418 64.5263H47.0449C47.1308 64.2876 47.3409 64.0107 47.6655 63.6956C48.0569 63.3137 48.4197 63.1228 48.7348 63.1228C49.3363 63.1228 49.6323 63.3328 49.6323 63.7625V64.5263H49.6418ZM52.4679 63.8197C52.3533 63.877 52.2101 63.9057 52.0383 63.9057C51.7996 63.9057 51.6755 63.7434 51.6755 63.4187C51.6755 63.0273 51.8091 62.8173 52.0765 62.8173C52.3438 62.8173 52.4679 62.9987 52.4679 63.3615C52.4679 63.5333 52.4679 63.6861 52.4679 63.8102V63.8197Z" fill="white"/>
<path d="M55.6663 62.4824C55.2844 62.4824 54.9789 62.6065 54.7689 62.8452C54.5588 63.0839 54.4538 63.399 54.4538 63.7904C54.4538 64.1819 54.5588 64.4683 54.7689 64.6975C54.9789 64.9171 55.2558 65.0316 55.6091 65.0316C55.9623 65.0316 56.2678 64.917 56.4874 64.6784C56.707 64.4397 56.812 64.1341 56.812 63.7522C56.812 62.9502 56.3824 62.4824 55.6663 62.4824ZM55.6281 64.6497C55.2462 64.6497 55.0457 64.3442 55.0457 63.7522C55.0457 63.1603 55.2462 62.8643 55.6472 62.8643C56.0291 62.8643 56.2201 63.1603 56.2201 63.7522C56.2201 64.3442 56.0291 64.6497 55.6281 64.6497Z" fill="white"/>
<path d="M55.7618 61.7765C55.7618 61.977 55.9242 62.1203 56.1056 62.1203C56.2965 62.1203 56.4493 61.9675 56.4493 61.7861C56.4493 61.5951 56.287 61.4424 56.1056 61.4424C55.9242 61.4424 55.7618 61.5951 55.7618 61.7765Z" fill="white"/>
<path d="M54.8738 61.7765C54.8738 61.977 55.0361 62.1203 55.2176 62.1203C55.4085 62.1203 55.5613 61.9675 55.5613 61.7861C55.5613 61.5951 55.399 61.4424 55.2176 61.4424C55.0361 61.4424 54.8738 61.5951 54.8738 61.7765Z" fill="white"/>
<path d="M57.5758 61.7763C57.5758 61.9673 57.7286 62.1105 57.91 62.1105C58.1009 62.1105 58.2537 61.9577 58.2537 61.7763C58.2537 61.5854 58.0914 61.4326 57.91 61.4326C57.7286 61.4326 57.5758 61.5758 57.5758 61.7763Z" fill="white"/>
<path d="M61.8818 63.5331V64.0869C61.8818 64.3828 61.7481 64.5261 61.4712 64.5261H58.7024C58.4255 64.5261 58.2919 64.3733 58.2919 64.0678V62.6738L57.6235 62.8266L57.7381 63.5713V64.9748C57.7381 65.5286 57.4899 65.8914 56.9743 66.0537L57.0889 66.2733C57.824 66.0728 58.2155 65.6527 58.2823 65.0034C58.3682 65.0321 58.4637 65.0416 58.5592 65.0416H61.5953C62.1014 65.0416 62.4164 64.7266 62.4164 64.2301V62.6834L61.7672 62.8266L61.8627 63.5427L61.8818 63.5331Z" fill="white"/>
<path d="M62.0059 61.9673H61.6622C61.6622 61.6713 61.7863 61.5185 62.0346 61.509C62.1491 61.509 62.2542 61.5567 62.3496 61.6331C62.3878 61.5185 62.426 61.423 62.4547 61.3562C62.2828 61.2321 62.1109 61.1748 61.92 61.1748C61.4713 61.1748 61.2135 61.4994 61.2135 61.9768H60.9557V62.3205H62.617L62.321 61.9482L62.0059 61.9768V61.9673Z" fill="white"/>
<path d="M65.4812 62.5401C64.9943 62.5401 64.6124 62.9793 64.5456 63.7145L65.128 63.6477C65.0802 63.4949 65.0516 63.3708 65.0516 63.2753C65.0516 63.0653 65.1375 62.9602 65.2998 62.9602C65.529 62.9602 65.8059 63.1703 66.1114 63.5808C66.3501 63.8959 66.5315 64.2205 66.6651 64.526H64.1064C63.8391 64.526 63.7054 64.3733 63.7054 64.0678V61.4326L63.0562 61.5854L63.1516 62.3015V64.2014C63.1516 64.717 63.4667 65.0321 63.9727 65.0321H67.4385C67.4003 64.5833 67.1807 64.0677 66.7702 63.4853C66.331 62.8552 65.8918 62.5401 65.4717 62.5401H65.4812Z" fill="white"/>
<path d="M65.9586 65.5859C65.7676 65.5859 65.6149 65.7387 65.6149 65.9201C65.6149 66.1206 65.7676 66.2638 65.9586 66.2638C66.1495 66.2638 66.2927 66.1015 66.2927 65.9297C66.2927 65.7387 66.14 65.5859 65.9586 65.5859Z" fill="white"/>
<path d="M63.6959 34.1165H63.7055L67.1426 32.503L67.1235 29.295L69.6822 31.3L73.3199 29.591L66.2547 27.0322L63.6959 34.1165Z" fill="white"/>
<path d="M72.4796 16.8837L68.7847 15.9672L66.5696 18.5832L66.0636 15.2893L62.1491 14.3154L66.0254 20.7696L72.4796 16.8837Z" fill="white"/>
<path d="M73.9117 28.4744L73.7972 24.6936L70.6274 23.2424L73.7208 21.858L73.6062 17.8862L73.5967 17.8193L73.5489 17.8766L68.4219 23.3378L73.9117 28.4744Z" fill="white"/>
<path d="M62.4642 33.7449L63.123 26.1736L55.7714 25.5244L58.1392 28.4364L61.2899 27.6058L59.8768 30.5655L62.4642 33.7449Z" fill="white"/>
<path d="M60.8316 14.8311L58.9889 18.1727L61.0798 21.142L57.6331 20.6455L55.6854 24.1781L62.9225 22.0872L60.8316 14.8311Z" fill="white"/>
<path d="M21.6006 35.4251H21.6101C22.0302 35.5014 22.2116 35.6065 22.5649 36.0266L24.1593 37.8883L24.9804 37.2487L24.1021 36.2843C23.5006 35.6351 23.0041 35.4155 22.4694 35.3678V35.3296C24.3026 34.9381 25.6583 33.2864 25.6583 31.1287C25.6583 28.6463 23.8538 26.8418 21.6006 26.8418C19.3474 26.8418 17.5333 28.6654 17.5333 31.1287C17.5333 33.5919 19.3187 35.4251 21.6006 35.4251ZM21.6006 27.2237C23.3764 27.2237 24.5508 28.9614 24.5508 31.1191C24.5508 33.2769 23.3764 35.0145 21.6006 35.0145C19.8247 35.0145 18.6504 33.2864 18.6504 31.1191C18.6504 28.9518 19.8247 27.2237 21.6006 27.2237Z" fill="white"/>
<path d="M27.6537 32.8277L27.8256 32.3981H31.1577L32.3225 35.2051H33.3918L29.9165 26.9941H29.6205L27.2718 32.5604C26.6703 33.9734 26.3075 34.6895 26.0593 35.2051H26.9185C26.9185 34.785 27.2145 33.897 27.6633 32.8277H27.6537ZM29.4868 28.3881L30.9667 31.9493H27.9974L29.4773 28.3881H29.4868Z" fill="white"/>
<path d="M35.6641 27.4721V35.2056H36.6475V27.4721H37.039C38.1751 27.4721 38.8053 27.6344 39.4259 27.854V27.0615H32.8667V27.854C33.4873 27.6344 34.1174 27.4721 35.2536 27.4721H35.6546H35.6641Z" fill="white"/>
<path d="M41.2782 32.8277L41.45 32.3981H44.7821L45.9469 35.2051H47.0163L43.5409 26.9941H43.245L40.8963 32.5604C40.2948 33.9734 39.932 34.6895 39.6837 35.2051H40.543C40.543 34.785 40.839 33.897 41.2877 32.8277H41.2782ZM43.1113 28.3881L44.5912 31.9493H41.6219L43.1017 28.3881H43.1113Z" fill="white"/>
<path d="M49.2599 31.5298H49.9855C50.8448 31.5298 51.1694 31.7589 51.8854 32.9524L53.2316 35.2056H54.3869L53.2316 33.3438C52.3628 31.9499 51.9332 31.5966 51.1694 31.3961C52.697 31.2243 53.604 30.4318 53.604 29.1524C53.604 27.8731 52.6588 27.0615 50.587 27.0615H48.2669V35.2056H49.2503V31.5298H49.2599ZM49.2599 27.4721H50.5201C51.9523 27.4721 52.5538 28.0449 52.5538 29.1906C52.5538 30.3363 51.9332 31.1001 50.396 31.1001H49.2599V27.4721Z" fill="white"/>
<path d="M19.9298 39.3305V47.064H20.9132V39.3305H21.3046C22.4408 39.3305 23.0709 39.4928 23.6915 39.7124V38.9199H17.1323V39.7124C17.7529 39.4928 18.3831 39.3305 19.5192 39.3305H19.9202H19.9298Z" fill="white"/>
<path d="M28.5417 47.2825C30.7949 47.2825 32.5994 45.4685 32.5994 42.9861C32.5994 40.5037 30.7949 38.6992 28.5417 38.6992C26.2885 38.6992 24.4744 40.5228 24.4744 42.9861C24.4744 45.4494 26.2598 47.2825 28.5417 47.2825ZM28.5417 39.0907C30.3175 39.0907 31.4919 40.8283 31.4919 42.9861C31.4919 45.1438 30.3175 46.8815 28.5417 46.8815C26.7658 46.8815 25.5915 45.1534 25.5915 42.9861C25.5915 40.8188 26.7658 39.0907 28.5417 39.0907Z" fill="white"/>
<path d="M40.3997 43.8942V42.5957C40.3997 40.7626 40.4379 39.7506 40.5143 38.9199H39.8078C39.8841 39.7506 39.9319 40.7531 39.9319 42.5957V43.9229C39.9319 45.8228 39.0535 46.7489 37.5641 46.7489C36.0747 46.7489 35.2249 45.7942 35.2249 44.0183V38.9199H34.2415V43.9324C34.2415 46.1856 35.4923 47.2931 37.44 47.2931C39.2254 47.2931 40.4093 46.0902 40.4093 43.9038L40.3997 43.8942Z" fill="white"/>
<path d="M42.6053 38.9199V47.064H43.5887V43.3882H44.3143C45.1736 43.3882 45.4982 43.6173 46.2142 44.8108L47.5604 47.064H48.7157L47.5604 45.2022C46.6916 43.8083 46.262 43.4455 45.4982 43.2545C47.0258 43.0827 47.9328 42.2902 47.9328 41.0108C47.9328 39.7315 46.9876 38.9199 44.9158 38.9199H42.5957H42.6053ZM46.8826 41.049C46.8826 42.1756 46.262 42.9585 44.7248 42.9585H43.5887V39.3305H44.8489C46.2811 39.3305 46.8826 39.9033 46.8826 41.049Z" fill="white"/>
<path d="M50.9689 38.9199H49.9855V47.064H50.9689V38.9199Z" fill="white"/>
<path d="M52.8498 40.9911C52.8498 42.0318 53.4991 42.7192 54.8262 43.1966L55.9623 43.6167C56.8789 43.9508 57.2608 44.4091 57.2608 45.2206C57.2608 46.1754 56.5734 46.8628 55.4563 46.8628C54.3392 46.8628 53.3845 46.2422 52.8498 45.7076L52.6398 46.5382C53.289 46.901 54.3297 47.2734 55.4086 47.2734C57.0889 47.2734 58.1869 46.3568 58.1869 44.8865C58.1869 43.7981 57.5663 43.1488 56.2297 42.6428L55.1603 42.2418C54.1387 41.879 53.7664 41.373 53.7664 40.6856C53.7664 39.8072 54.387 39.1198 55.4659 39.1198C56.2965 39.1198 57.0317 39.5207 57.6332 40.065L57.8909 39.3298C57.2131 38.9765 56.3442 38.7188 55.4849 38.7188C53.8905 38.7188 52.8403 39.6544 52.8403 41.0006L52.8498 40.9911Z" fill="white"/>
<path d="M63.7912 44.0374L60.7265 38.9199H59.8767V44.6867C59.8767 45.7655 59.829 46.4434 59.7526 47.064H60.4591C60.3732 46.5007 60.335 45.7655 60.335 44.6867V40.142L63.3521 45.1927H63.6194L66.6078 40.1229V47.0736H67.5721V38.9295H66.8083L63.7722 44.047L63.7912 44.0374Z" fill="white"/>
<path d="M20.8463 49.7461H20.5503L18.2016 55.3123C17.6001 56.7254 17.2373 57.4414 16.9891 57.957H17.8484C17.8484 57.5369 18.1443 56.649 18.5931 55.5797L18.7649 55.15H22.097L23.2618 57.957H24.3312L20.8558 49.7461H20.8463ZM18.9559 54.7108L20.4357 51.1496L21.9156 54.7108H18.9463H18.9559Z" fill="white"/>
<path d="M25.7633 49.8135H24.694L27.7587 58.0244H28.1025L30.3557 52.4963L32.3893 58.0244H32.733L34.738 52.6109C35.33 51.0451 35.6832 50.31 35.9506 49.8135H35.0817C35.0244 50.3481 34.7762 51.1119 34.3084 52.3818L32.8094 56.5732L30.4034 49.8135H29.3532L30.117 51.8567L28.2075 56.6114L25.7537 49.8135H25.7633Z" fill="white"/>
<path d="M38.1465 55.5797L38.3184 55.15H41.6505L42.8153 57.957H43.8846L40.4093 49.7461H40.1133L37.7646 55.3123C37.1631 56.7254 36.8003 57.4414 36.5521 57.957H37.4113C37.4113 57.5369 37.7073 56.649 38.1561 55.5797H38.1465ZM39.9892 51.1496L41.4691 54.7108H38.4998L39.9796 51.1496H39.9892Z" fill="white"/>
<path d="M45.6508 49.8135V57.9576H46.6342V54.2817H47.3599C48.2191 54.2817 48.5438 54.5109 49.2598 55.7043L50.606 57.9576H51.7613L50.606 56.0958C49.7372 54.7018 49.3076 54.339 48.5438 54.1481C50.0714 53.9762 50.9784 53.1838 50.9784 51.9044C50.9784 50.625 50.0332 49.8135 47.9614 49.8135H45.6413H45.6508ZM49.9282 51.9426C49.9282 53.0692 49.3076 53.8521 47.7704 53.8521H46.6342V50.224H47.8945C49.3267 50.224 49.9282 50.7969 49.9282 51.9426Z" fill="white"/>
<path d="M60.3637 53.9285C60.3637 51.2743 58.4637 49.8135 55.6758 49.8135H53.5181V57.9576H55.8954C58.2728 57.9576 60.3637 56.7164 60.3637 53.9285ZM54.4824 57.547V50.2336H55.5135C57.9863 50.2336 59.2466 51.618 59.2466 53.9476C59.2466 56.2772 57.9386 57.547 55.6663 57.547H54.4824Z" fill="white"/>
<path d="M65.548 53.5364L64.4787 53.1354C63.4571 52.763 63.0848 52.2665 63.0848 51.5791C63.0848 50.7007 63.7054 50.0133 64.7842 50.0133C65.6149 50.0133 66.35 50.4143 66.9515 50.9585L67.2093 50.2233C66.5314 49.8701 65.6626 49.6123 64.8033 49.6123C63.2089 49.6123 62.1587 50.548 62.1587 51.8942C62.1587 52.9349 62.8079 53.6223 64.135 54.0997L65.2712 54.5198C66.1877 54.8539 66.5696 55.3122 66.5696 56.1238C66.5696 57.0785 65.8822 57.7659 64.7651 57.7659C63.6481 57.7659 62.6933 57.1453 62.1587 56.6107L61.9486 57.4413C62.5978 57.8137 63.6385 58.1765 64.7174 58.1765C66.3978 58.1765 67.4957 57.2599 67.4957 55.7896C67.4957 54.7012 66.8752 54.0519 65.5385 53.5459L65.548 53.5364Z" fill="white"/>
</svg>
