<svg width="104" height="105" viewBox="0 0 104 105" fill="none" xmlns="http://www.w3.org/2000/svg">
<path d="M76.883 71.9283C76.6246 71.7822 76.209 71.6924 75.8608 71.6924C75.7373 71.6924 75.6249 71.6924 75.5239 71.7261C73.1538 72.2652 73.5357 75.6911 75.9058 75.6911C75.9395 75.6911 75.9732 75.6911 76.0068 75.6911C78.0287 75.6125 78.6465 72.9504 76.883 71.9395V71.9283ZM77.1975 74.669C76.8605 75.107 76.4 75.3092 75.9394 75.3092C75.097 75.3092 74.2883 74.6465 74.3332 73.6244C74.3781 72.737 75.0746 72.108 75.9282 72.108C76.063 72.108 76.1978 72.1192 76.3326 72.1529C77.4221 72.4113 77.8939 73.7591 77.2087 74.669H77.1975Z" fill="white"/>
<path d="M76.2762 73.8718L76.2088 73.8044L76.2986 73.7482C76.6469 73.5348 76.5345 72.9282 76.1189 72.8496C76.0291 72.8272 75.8718 72.8271 75.7258 72.8271C75.5124 72.8271 75.3102 72.8384 75.2765 72.8721C75.2428 72.9058 75.2316 73.0293 75.2316 73.7594C75.2316 74.6243 75.2316 74.658 75.3888 74.658C75.4001 74.658 75.4225 74.658 75.445 74.658C75.6472 74.658 75.6584 74.6468 75.6584 74.2537V73.9055H75.737C75.8943 73.9055 75.9729 74.0178 76.1189 74.3997C76.1976 74.6243 76.2425 74.658 76.3997 74.658C76.6469 74.658 76.6469 74.6243 76.5008 74.2874C76.3548 73.9504 76.3436 73.9279 76.2762 73.8605V73.8718ZM75.8494 73.6022H75.6809V73.1304H75.8044C75.8718 73.1304 75.9617 73.1417 76.0066 73.1641C76.265 73.2652 76.1526 73.5797 75.8494 73.6022Z" fill="white"/>
<path d="M46.2294 43.7017C46.2294 43.7017 46.3529 43.8027 46.3866 43.8364C46.454 43.9038 48.7679 46.038 48.9476 46.2065L49.0375 46.2851L48.9252 46.7906C48.869 47.0714 48.8128 47.3297 48.8128 47.3747C48.8128 47.4196 48.7454 47.7229 48.678 48.0486C48.6107 48.3744 48.5433 48.6776 48.5433 48.7226C48.5433 48.7675 48.4759 49.0932 48.3972 49.4414C48.2287 50.2165 48.2175 50.2839 48.2624 50.3625C48.2961 50.4411 48.3972 50.4636 48.4871 50.4299C48.5096 50.4187 48.5657 50.385 48.6106 50.3625C48.6556 50.34 48.7005 50.3176 48.723 50.3176C48.7454 50.3176 48.869 50.2502 48.9926 50.1828C49.1161 50.1154 49.2397 50.0592 49.2509 50.0592C49.2621 50.0592 49.352 50.0143 49.4531 49.9581C49.5542 49.902 50.1944 49.5762 50.8684 49.2392L52.1039 48.6215L52.2275 48.6776C52.2949 48.7113 52.8004 48.9584 53.3395 49.228C53.8787 49.4976 54.5301 49.8346 54.7773 49.9581C55.0244 50.0817 55.294 50.2277 55.3726 50.2614C55.4512 50.3063 55.5186 50.34 55.5298 50.34C55.5411 50.34 55.5972 50.3625 55.6422 50.3962C55.7545 50.4636 55.878 50.4748 55.9117 50.4074C55.9791 50.2951 55.9567 50.1603 55.7882 49.3628C55.7208 49.0483 55.6646 48.7675 55.6534 48.7226C55.6534 48.6776 55.586 48.3968 55.5186 48.0711C55.4512 47.7566 55.3838 47.4533 55.3838 47.4084C55.3838 47.3634 55.3164 47.0714 55.249 46.7793L55.1367 46.2402L55.3052 46.0942C55.395 46.0155 55.5523 45.8695 55.6422 45.7797C55.7433 45.6898 55.878 45.5662 55.9679 45.4988C56.0465 45.4315 56.1364 45.3528 56.1589 45.3304C56.1813 45.3079 56.406 45.1057 56.6418 44.8923C56.8777 44.6789 57.1361 44.443 57.2147 44.3756C57.2933 44.3082 57.4057 44.1959 57.473 44.1397C57.5854 44.0386 57.8774 43.7803 58.1021 43.5781C58.2144 43.477 58.2256 43.4096 58.1582 43.3197C58.1021 43.2524 58.0571 43.2299 57.81 43.2187C57.6865 43.2187 56.0465 43.0052 55.7657 42.9715C55.732 42.9715 55.6309 42.9603 55.5411 42.9491C55.103 42.9154 53.9461 42.7469 53.9348 42.7244C53.8899 42.657 53.7326 42.3425 53.7439 42.3425C53.7439 42.3425 53.7326 42.2976 53.6989 42.2414C53.6653 42.1853 53.4968 41.8483 53.3283 41.4889C53.1598 41.1294 52.9913 40.7812 52.9576 40.7251C52.9239 40.6577 52.9014 40.6015 52.9014 40.5903C52.9014 40.579 52.8453 40.4667 52.7891 40.3432C52.7217 40.2196 52.6768 40.096 52.6768 40.0848C52.6768 40.0736 52.6319 39.9613 52.5645 39.8265C52.396 39.4783 52.3511 39.3772 52.3511 39.3435C52.3511 39.321 52.3511 39.3098 52.3286 39.3098C52.3061 39.3098 52.2949 39.2761 52.2837 39.2311C52.2275 39.0514 52.1039 38.9953 52.0028 39.0851C51.9692 39.1188 51.9242 39.1862 51.9018 39.2424C51.8793 39.2985 51.8007 39.4783 51.722 39.6355C51.6434 39.7928 51.576 39.9276 51.576 39.95C51.576 39.9612 51.4412 40.2308 51.2952 40.5453C51.1379 40.8598 51.0144 41.1182 51.0144 41.1182C51.0144 41.1182 50.8908 41.3765 50.7448 41.6686C50.5988 41.9719 50.4191 42.3425 50.3404 42.4998C50.2618 42.657 50.1944 42.7806 50.1944 42.7806C50.1944 42.7806 49.9024 42.8143 49.5429 42.8592C49.1947 42.9041 48.8465 42.9378 48.7679 42.9491C48.6893 42.9491 48.1726 43.0165 47.6222 43.0839C47.0718 43.1513 46.5439 43.2187 46.454 43.2187C45.8924 43.2636 45.8362 43.3984 46.2181 43.7017H46.2294Z" fill="white"/>
<path d="M60.4049 53.7202L60.9778 53.6977L61.0339 53.6415C61.0339 53.6415 61.0901 53.5517 61.1013 53.518C61.1013 53.4843 61.1238 53.4506 61.135 53.4506C61.1462 53.4506 61.1575 53.4393 61.1462 53.4169C61.1462 53.4056 61.1687 53.3158 61.1912 53.2259C61.2249 53.1361 61.2473 53.0574 61.2473 53.0462C61.2473 53.035 61.2698 52.9451 61.3035 52.844C61.326 52.7429 61.3597 52.6418 61.3597 52.6194C61.3821 52.5295 61.3934 52.4958 61.3934 52.4958C61.3934 52.4958 61.3934 52.4621 61.4046 52.4284C61.4046 52.3947 61.4383 52.2599 61.4607 52.1364C61.5281 51.7994 61.5281 51.6534 61.4495 51.6309C61.2136 51.5748 45.6342 51.5411 43.2979 51.5972C42.8823 51.5972 42.5004 51.6197 42.4555 51.6309L42.3656 51.6534V51.7882C42.3656 51.8668 42.3881 52.0465 42.4218 52.2038C42.4555 52.361 42.4892 52.5071 42.4892 52.5407C42.4892 52.5744 42.4892 52.5969 42.5004 52.5969C42.5004 52.5969 42.5004 52.6194 42.5116 52.6418C42.5341 52.7317 42.6801 53.2484 42.725 53.3607C42.7475 53.4281 42.77 53.473 42.7587 53.473C42.7363 53.473 42.8374 53.6415 42.8711 53.6752C43.0058 53.7875 57.4845 53.8325 60.3937 53.7202H60.4049Z" fill="white"/>
<path d="M59.978 55.3047C59.978 55.3047 59.978 55.2597 60.0004 55.2485C60.0004 55.2485 60.0229 55.226 60.0229 55.2148C60.0229 55.2036 60.0229 55.1924 60.0229 55.1924C60.0229 55.1924 60.0229 55.1699 60.0341 55.1362C60.0341 55.1137 60.0678 55.0014 60.0903 54.9003C60.1127 54.788 60.1464 54.6307 60.1464 54.5409V54.3724L59.787 54.3612C59.0569 54.3275 54.1259 54.3162 49.2734 54.3275C46.5664 54.3275 44.2076 54.3499 44.0279 54.3612L43.7021 54.3836V54.5409C43.7246 54.6307 43.7583 54.8104 43.792 54.9452C43.8257 55.08 43.8482 55.2036 43.8482 55.226C43.8482 55.2485 43.8482 55.271 43.8706 55.271C43.8931 55.271 43.8931 55.2934 43.8931 55.3159C43.8931 55.417 44.1851 55.417 51.4188 55.4282C58.8996 55.4282 59.978 55.4282 59.978 55.3159V55.3047Z" fill="white"/>
<path d="M51.3965 56.2592C51.2617 56.3041 51.273 56.2367 51.2393 57.2589C51.2168 58.2024 51.2393 65.8854 51.2618 66.1775C51.2842 66.3909 51.273 66.3909 51.8458 66.4021C52.4412 66.4021 52.531 66.4021 52.5872 66.3235C52.6321 66.2336 52.6433 65.7619 52.6433 61.325C52.6433 56.8882 52.6433 56.3828 52.5759 56.3041C52.531 56.248 51.5426 56.203 51.4078 56.2592H51.3965Z" fill="white"/>
<path d="M49.8238 56.4283C49.7564 56.3946 49.7564 56.3946 49.7452 56.417C49.7452 56.417 49.689 56.4283 49.6441 56.4395C49.4419 56.4732 49.3745 56.4844 48.9926 56.5743C48.768 56.6192 48.5883 56.6641 48.5883 56.6641C48.5883 56.6641 48.5883 58.7646 48.5883 61.3368V66.0095L48.723 66.032C48.7904 66.0432 49.0151 66.0994 49.2173 66.1331C49.5992 66.2117 49.7901 66.2342 49.8463 66.2117C49.8912 66.1892 49.9025 65.5715 49.9025 60.8089C49.9025 56.3159 49.9025 56.4732 49.8351 56.4395L49.8238 56.4283Z" fill="white"/>
<path d="M55.283 56.6744C55.283 56.6744 55.2043 56.6519 55.1032 56.6294C54.8449 56.5508 54.3057 56.4385 54.1148 56.416C54.0362 56.416 54.0249 56.416 54.0137 56.4722C53.9688 56.6519 53.98 66.1545 54.0362 66.1995C54.0811 66.2444 54.3619 66.2107 54.8112 66.0984C55.1257 66.0198 55.0808 66.031 55.1369 66.0085C55.1594 66.0085 55.1931 65.9861 55.2156 65.9861C55.238 65.9861 55.2605 65.9861 55.2717 65.9748H55.2942C55.3953 65.9861 55.3953 65.8737 55.3953 61.5492C55.3953 57.2248 55.3953 56.7867 55.3391 56.7305C55.3166 56.7081 55.2942 56.6856 55.2942 56.6856L55.283 56.6744Z" fill="white"/>
<path d="M58.0574 57.753C58.0574 57.753 58.0349 57.6969 58.0124 57.6856C57.99 57.6744 57.9338 57.6407 57.8889 57.607C57.8552 57.5845 57.8102 57.5621 57.799 57.5621C57.7878 57.5621 57.6418 57.4947 57.4733 57.4161C57.3048 57.3374 57.1588 57.2813 57.1363 57.2813C57.1138 57.2813 57.1026 57.2813 57.0914 57.2588C57.0577 57.2363 56.8892 57.1914 56.833 57.1914H56.7769V61.1452C56.7993 63.3243 56.8106 65.144 56.8106 65.2001C56.8106 65.2563 56.8106 65.3462 56.8106 65.3911V65.4809L56.9116 65.4697C56.9678 65.4697 57.0127 65.4472 57.024 65.4248C57.024 65.4136 57.0464 65.4136 57.0464 65.4248C57.0464 65.436 57.0577 65.4248 57.0689 65.4248C57.0801 65.4136 57.1138 65.4023 57.1251 65.4023C57.1363 65.4023 57.2374 65.3686 57.3272 65.3237C57.4283 65.2788 57.507 65.2338 57.5294 65.2338C57.6755 65.2114 58.0349 64.9867 58.0349 64.9193C58.0349 64.8969 58.0349 64.7845 58.0461 64.661C58.1023 63.5714 58.1023 59.0672 58.0461 58.0338C58.0461 57.9103 58.0349 57.798 58.0349 57.7755L58.0574 57.753Z" fill="white"/>
<path d="M46.8809 57.2255C46.8809 57.2255 46.8359 57.248 46.8135 57.248C46.791 57.248 46.7686 57.2592 46.7573 57.2705C46.7461 57.2705 46.6113 57.3379 46.454 57.4053C46.2968 57.4726 46.1732 57.5288 46.162 57.5176C46.162 57.5176 46.1508 57.5176 46.1508 57.5288C46.1508 57.54 46.1508 57.5513 46.1283 57.5513C46.0946 57.5513 45.8475 57.6973 45.8363 57.731C45.7913 57.8321 45.7689 63.5719 45.8138 64.4705C45.8138 64.6839 45.8363 64.8748 45.8363 64.8973C45.8363 64.9647 45.9374 65.0433 46.1732 65.1444C46.2182 65.1669 46.3754 65.2343 46.5214 65.2904C46.6675 65.3466 46.8022 65.414 46.8247 65.414C46.8472 65.414 46.8696 65.4252 46.8696 65.4364C46.9146 65.4814 47.0718 65.4814 47.0831 65.4364C47.0831 65.4028 47.0831 65.2792 47.0943 65.1444C47.1055 64.8973 47.1168 57.7198 47.0943 57.4839C47.0831 57.2368 47.0381 57.1806 46.8809 57.2368V57.2255Z" fill="white"/>
<path d="M66.0659 31.3797C65.684 31.1326 65.6054 31.0764 65.0887 30.7619C60.9215 28.2346 55.9455 26.9541 50.9471 27.1338C39.3777 27.5382 29.4033 35.8951 26.9546 47.2399C26.4941 49.3741 26.3593 50.9803 26.4154 53.5862C26.539 59.2137 28.7518 64.8973 32.5259 69.2892C38.861 76.6577 48.6781 79.7915 58.1246 77.4552C68.5259 74.8717 76.2762 65.9419 77.3658 55.2486C77.4444 54.4848 77.4781 52.9123 77.4444 51.5644C77.3209 46.1953 75.0631 40.3881 71.4688 36.1984C69.8176 34.2664 68.0878 32.7276 66.0547 31.3685L66.0659 31.3797ZM64.2014 37.3104C64.4485 37.1644 64.4035 36.9397 63.9879 36.2883C62.977 34.7045 62.8535 34.244 63.2578 33.57C63.5836 33.0196 64.2126 32.8062 64.8753 33.0309C65.5605 33.2667 66.6837 34.1092 67.1892 34.7831L67.2903 34.9179L66.987 35.2212C66.5489 35.648 66.6163 35.6592 66.0547 35.1089C65.3808 34.4574 64.6507 34.0193 64.4035 34.1092C64.1452 34.2215 64.2351 34.4911 64.9202 35.6031C65.5942 36.7039 65.6953 36.9959 65.538 37.4677C65.1674 38.6471 63.7071 38.7819 62.4379 37.7597C61.9212 37.3441 61.1349 36.4343 61.1349 36.2658C61.1349 36.1872 61.3371 35.9962 61.8426 35.6143C61.865 35.6031 61.9099 35.648 62.011 35.7716C62.9096 36.8836 63.8419 37.5238 64.2126 37.2992L64.2014 37.3104ZM57.2485 32.9298C57.3271 32.7388 57.5518 32.1098 57.7315 31.638C58.2369 30.2564 58.3043 30.088 58.3717 30.0206C58.4167 29.9644 58.4504 29.9644 58.7424 30.0655C59.5399 30.3351 60.7642 30.7844 61.5393 31.0876L61.9212 31.2337V31.3235C61.9212 31.4134 61.7752 31.8964 61.6965 32.0312C61.6067 32.1997 61.5056 32.2109 61.1124 32.0649C60.6744 31.9076 59.641 31.5369 59.3826 31.4359L59.1468 31.346L59.1243 31.4022C59.0007 31.7167 58.8547 32.1435 58.866 32.166C58.8997 32.2221 59.2366 32.3569 60.124 32.7051C60.7867 32.9522 61.0338 33.0533 61.0675 33.0983C61.1237 33.1432 60.9552 33.7048 60.8092 33.9519C60.7305 34.0979 60.7081 34.0867 59.4163 33.6149C58.8547 33.4015 58.4953 33.278 58.4728 33.278C58.4391 33.278 58.0909 34.1316 58.0909 34.2215C58.0909 34.2777 58.4616 34.4237 59.7533 34.9067C60.5396 35.1987 60.4722 35.165 60.4722 35.2549C60.4722 35.3335 60.2925 35.8951 60.2251 36.0412C60.1465 36.2096 60.2251 36.2321 58.4616 35.5806C57.2934 35.1538 56.6532 34.8954 56.597 34.8505C56.5745 34.828 56.9227 33.7947 57.2485 32.9298ZM51.5199 29.122C51.5312 29.0096 51.5761 28.9872 51.7783 28.9984C51.8232 28.9984 51.958 29.0096 52.0816 29.0209C52.632 29.0546 52.587 29.0209 53.3284 30.2227C54.1596 31.5819 54.6426 32.3681 54.665 32.3906C54.6875 32.4018 54.71 32.1772 54.811 30.9753C54.9009 29.9082 54.9571 29.414 54.9908 29.3354L55.0132 29.2792H55.3614C55.6872 29.3129 55.9792 29.3354 56.0691 29.3691C56.1589 29.3915 56.1702 29.2455 55.822 33.5026C55.777 34.053 55.7433 34.5135 55.7433 34.536C55.7433 34.5922 55.5973 34.6034 55.1705 34.5809C54.5302 34.536 54.6313 34.6034 54.3056 34.053C52.7667 31.5032 52.5646 31.1663 52.5421 31.2224C52.5421 31.2449 52.5196 31.3685 52.5084 31.492C52.4635 32.1547 52.295 34.1653 52.2725 34.2552V34.3226L51.9692 34.3114C51.2728 34.2777 51.1493 34.244 51.1268 34.1204C51.1043 34.0081 51.4413 29.7622 51.5199 29.1107V29.122ZM44.6008 30.1778C44.6794 30.1554 44.9153 30.0992 45.1174 30.043L45.4993 29.9532L46.2295 30.5934C47.6223 31.829 48.4086 32.5142 48.4423 32.5142C48.4535 32.5142 48.2625 31.5931 48.1502 31.1101C48.0154 30.5373 47.8132 29.5937 47.8132 29.5263C47.8132 29.4365 47.9705 29.3803 48.622 29.2343C48.7455 29.2118 48.9252 29.2231 48.9365 29.2568C49.0151 29.4477 50.0485 34.0979 50.0485 34.2327C50.0485 34.3001 49.2285 34.5809 49.0151 34.5809C49.0151 34.5809 48.914 34.5023 48.8129 34.4124C48.7118 34.3226 48.3075 33.9631 47.9256 33.6262C47.1056 32.9073 46.6338 32.4917 46.2969 32.1997C45.9711 31.9188 45.9711 31.8065 46.3642 33.5026C46.6675 34.7831 46.7125 35.0752 46.6226 35.1089C46.3418 35.21 45.6004 35.3447 45.578 35.2886C45.4769 35.019 44.4547 30.5373 44.4547 30.3351V30.2227L44.5895 30.1778H44.6008ZM41.8263 31.3797C42.4104 31.0764 42.4891 31.0652 42.5789 31.2224C42.6463 31.346 43.0282 32.121 43.2304 32.5591C43.309 32.7276 43.4887 33.1207 43.6348 33.4128C44.3686 34.9778 44.6906 35.794 44.6008 35.8614C44.3986 36.0187 43.8145 36.277 43.6909 36.2546C43.6572 36.2546 43.6011 36.1647 43.455 35.8839C43.2866 35.5582 43.1518 35.2773 42.5564 33.9968C42.4554 33.7834 42.2644 33.3678 42.1184 33.0646C41.6466 32.0649 41.4669 31.6717 41.4669 31.6156C41.4669 31.5594 41.5006 31.5369 41.8263 31.3685V31.3797ZM36.2438 35.0078C36.2775 34.9067 36.738 34.5472 37.0301 34.39L37.1873 34.3114L37.2547 34.39C37.2547 34.39 37.4569 34.6596 37.6254 34.8842C38.7487 36.4343 39.1755 36.9959 39.3327 37.1082C40.0628 37.6699 41.2535 36.8611 41.0288 35.9513C40.9951 35.8165 40.748 35.4346 40.2201 34.6933C39.5911 33.8171 39.4675 33.6486 39.2541 33.3341C39.1418 33.1656 39.0407 33.0084 39.0407 32.9859C39.0407 32.9073 39.7933 32.3344 39.9056 32.3344C39.9168 32.3344 39.973 32.3794 40.0179 32.4355C40.456 32.9185 41.8151 34.8168 42.0285 35.2549C42.5564 36.3332 41.9836 37.6474 40.7256 38.2427C40.4223 38.3887 40.3549 38.4 39.8494 38.4C39.2541 38.4 39.007 38.3326 38.5577 38.0293C38.2544 37.8271 36.2101 35.1426 36.255 35.0078H36.2438ZM34.4691 36.8387C34.6263 36.7039 34.6376 36.7039 34.7836 36.8387C34.851 36.8948 35.0083 37.0521 35.1318 37.1981L35.3565 37.4564L35.0419 37.7934C34.2444 38.6358 34.0086 39.0514 34.0086 39.6355C34.0086 40.8486 35.5699 41.6349 36.5471 40.9048C36.783 40.7251 37.3109 40.0848 37.3109 39.9725C37.3109 39.9276 37.0863 39.7366 36.6707 39.4221C36.3 39.1413 36.0978 38.9616 36.0866 38.9054C36.0529 38.7819 36.592 38.0742 36.7268 38.0742C36.8054 38.0742 37.8276 38.838 38.5015 39.4109C38.7262 39.6018 38.7262 39.6018 38.5914 39.9276C38.3443 40.5004 37.8725 41.1856 37.4682 41.5675C36.446 42.5335 34.9296 42.6234 33.8962 41.7697C32.3349 40.4892 32.582 38.4449 34.4916 36.8499L34.4691 36.8387ZM28.3137 54.1591V53.9232L28.5047 53.8558C28.6058 53.8221 29.1786 53.6199 29.7739 53.4177C30.8522 53.0583 31.2903 52.8898 31.3128 52.8561C31.324 52.8337 31.2903 52.8224 30.6501 52.6315C29.3471 52.2383 28.3362 51.9463 28.3137 51.9463C28.2576 51.9463 28.2351 51.0589 28.2913 50.9803C28.3249 50.9354 28.7967 50.8006 30.7175 50.2727C30.9983 50.194 31.4476 50.0705 31.7171 50.0031C32.4248 49.8121 33.1212 49.6212 33.2672 49.5875C33.3908 49.5538 33.3908 49.5538 33.4469 49.6099L33.5031 49.6661V50.2053C33.5143 50.7107 33.5143 50.7444 33.4806 50.7557C33.4582 50.7557 33.256 50.8118 33.0426 50.8792C32.2338 51.0926 31.807 51.2049 31.4026 51.3173C31.178 51.3847 30.9196 51.4521 30.8298 51.4745C30.7399 51.497 30.6613 51.5195 30.6613 51.5307C30.6613 51.5419 30.8972 51.6093 31.178 51.6992C31.47 51.789 31.8632 51.9014 32.0653 51.9688C32.2675 52.0249 32.6719 52.1485 32.9639 52.2383C33.256 52.3282 33.5031 52.4068 33.5031 52.4068C33.5143 52.418 33.5593 52.901 33.5593 53.0695V53.2492L33.4469 53.3054C33.3009 53.3728 33.0089 53.4851 31.7508 53.912C30.7062 54.2714 30.6838 54.2714 30.7736 54.3051C31.0432 54.3725 31.3914 54.4624 31.9867 54.5971C32.9415 54.8106 33.3908 54.9229 33.4806 54.9678C33.5817 55.0127 33.593 55.0577 33.593 55.5856C33.593 56.1135 33.593 56.136 33.4245 56.1135C33.1886 56.0798 28.9652 55.0914 28.4148 54.9454C28.3137 54.9229 28.3025 54.7432 28.3362 54.204L28.3137 54.1591ZM29.9312 61.3703C29.392 60.6514 29.3022 59.5282 29.7178 58.7082C30.3019 57.5625 31.6385 56.9447 32.8853 57.248C33.6828 57.4502 34.4803 58.1691 34.7162 58.9104C35.2891 60.6964 33.9749 62.4486 32.0653 62.4486C31.1892 62.4486 30.4816 62.0892 29.9312 61.3703ZM35.4575 66.6496L35.4351 66.7282C35.4351 66.7282 35.2891 67.2112 35.143 67.6942C34.7836 68.9185 34.7611 68.9747 34.66 68.9747C34.5814 68.9747 34.4579 68.8286 34.0984 68.3457L33.8064 67.9413L33.8738 67.7391C33.9524 67.4808 34.3006 66.3126 34.4017 65.9644L34.4803 65.6948L34.368 65.5375C34.1434 65.2118 33.8962 64.931 33.8625 64.931C33.8176 64.931 33.6042 65.077 33.0089 65.5151C32.481 65.9082 32.436 65.9419 32.3799 65.9194C32.2788 65.8857 31.7059 65.1444 31.7059 65.0545C31.7059 65.0096 32.0092 64.7625 33.2785 63.7965C34.1321 63.1338 35.817 61.887 35.8507 61.887C35.8507 61.887 35.9518 61.9993 36.0529 62.1341C36.6033 62.8305 37.4457 63.9875 37.6366 64.302C38.1533 65.1781 37.7827 66.234 36.8167 66.672C36.5134 66.8068 35.9293 66.818 35.6036 66.6833L35.4688 66.6271L35.4575 66.6496ZM38.8385 72.3893C38.7711 72.423 38.3892 72.1534 37.266 71.2436C36.2214 70.4124 35.9967 70.199 36.0304 70.1316C36.1989 69.8171 39.1643 66.0879 39.2541 66.0879C39.2541 66.0879 39.3777 66.1666 39.5125 66.2676C39.827 66.5035 40.119 66.7506 40.1302 66.7956C40.1302 66.8293 39.8831 67.1775 39.299 67.9076C39.0969 68.1659 38.8834 68.4355 38.816 68.5141C37.5019 70.1765 37.5917 70.053 37.6479 70.1091C37.6928 70.1653 38.2432 70.6258 38.524 70.8505C39.2429 71.4233 39.4226 71.5806 39.4226 71.6368C39.4226 71.7378 38.9845 72.2995 38.8497 72.3669L38.8385 72.3893ZM45.387 71.9288C45.2073 73.6586 43.5112 74.5684 41.6579 73.9394C41.1861 73.7821 40.0965 73.2879 40.0404 73.2093C39.973 73.1194 40.2201 72.5466 41.4557 69.9856C42.2756 68.2895 42.1858 68.4243 42.4441 68.5254C44.466 69.3116 45.533 70.5472 45.3983 71.9288H45.387ZM48.6894 68.8286C48.6894 68.8286 48.6107 68.8174 48.577 68.8062C48.5433 68.8062 48.4872 68.7837 48.4423 68.7837C48.3973 68.7837 48.1839 68.7276 47.9593 68.6714C47.7346 68.6152 47.5437 68.5703 47.5324 68.5591C47.1842 68.4804 46.0722 68.0873 45.5555 67.8627C45.4207 67.8065 45.2747 67.7503 45.2298 67.7279C45.0276 67.6492 44.0167 67.1325 43.7246 66.9528C43.646 66.9079 43.5786 66.863 43.5674 66.863C43.5561 66.863 43.4663 66.8068 43.3652 66.7394C43.2529 66.672 43.163 66.6159 43.1518 66.6159C43.1405 66.6159 43.1293 66.6159 43.1293 66.5934C43.1293 66.5709 43.1181 66.5709 43.1068 66.5709C43.0956 66.5709 43.017 66.526 42.9384 66.4698C42.8597 66.4137 42.7811 66.3687 42.7699 66.3687C42.7586 66.3687 42.7474 66.3687 42.7474 66.3463C42.7474 66.3238 42.7249 66.3126 42.7025 66.3126C42.6463 66.2901 42.3655 66.0992 42.3318 66.0542C42.3206 66.0318 42.2981 66.0205 42.2981 66.0318C42.2981 66.0318 42.197 65.9756 42.1184 65.9082C42.1072 65.897 42.0622 65.8633 42.0285 65.852C41.9836 65.8184 41.8713 65.7285 41.6242 65.5375C41.6017 65.5151 41.5118 65.4477 41.4444 65.3803C41.3658 65.3129 41.2872 65.2455 41.276 65.2343C41.2535 65.223 41.1973 65.1669 41.1412 65.1107C41.085 65.0658 40.9839 64.9759 40.9277 64.9198C40.4672 64.5266 39.3552 63.336 39.0295 62.8979C38.9958 62.853 38.9396 62.7856 38.9059 62.7519C38.8722 62.7182 38.8497 62.6845 38.8497 62.6845C38.8497 62.6845 38.8385 62.6508 38.816 62.6396C38.7487 62.5722 38.5689 62.3251 38.5689 62.3026C38.5689 62.2914 38.5689 62.2801 38.5465 62.2689C38.524 62.2689 38.2994 61.9544 38.2994 61.9319C38.2994 61.9319 38.2881 61.9095 38.2657 61.887C38.2095 61.8196 38.0298 61.5388 38.0522 61.5388C38.0522 61.5388 38.0522 61.5276 38.0298 61.5051C38.0073 61.4826 37.9961 61.4714 38.0073 61.4714C38.0185 61.4714 38.0073 61.4714 38.0073 61.4489C37.9848 61.4265 37.8388 61.2018 37.7377 61.0333C37.7153 60.9884 37.6479 60.8648 37.5917 60.7638C37.5356 60.6627 37.4906 60.584 37.4906 60.5728C37.4906 60.5616 37.4794 60.5391 37.4569 60.5166C37.412 60.4717 37.1873 60.0336 37.1986 60.0336C37.1986 60.0336 37.1986 59.9999 37.1536 59.9438C37.0862 59.8315 36.9515 59.5619 36.9402 59.4945C36.9402 59.472 36.9178 59.4383 36.9065 59.4159C36.8841 59.3822 36.6707 58.9216 36.6594 58.8767C36.6594 58.8542 36.637 58.8205 36.6257 58.7981C36.592 58.7307 36.3674 58.1578 36.3674 58.1241C36.3674 58.1129 36.3674 58.0792 36.3449 58.0567C36.3224 58.0118 36.1203 57.394 36.109 57.3154C36.109 57.2817 36.0978 57.2592 36.0978 57.2592C36.0978 57.2592 36.0978 57.248 36.0866 57.2255C36.0866 57.2031 36.0416 57.0346 35.9855 56.8549C35.9293 56.6639 35.8844 56.4842 35.8844 56.4505C35.8844 56.4168 35.8619 56.3494 35.8507 56.3045C35.8395 56.2595 35.8282 56.2146 35.8395 56.2034C35.8395 56.2034 35.8395 56.1697 35.8395 56.1585C35.8395 56.1472 35.817 56.1248 35.817 56.1023C35.817 56.0911 35.817 56.0574 35.7945 56.0237C35.7945 55.99 35.7721 55.9338 35.7721 55.9001C35.7721 55.8664 35.7384 55.7316 35.7159 55.5968C35.6373 55.1925 35.5699 54.6982 35.5474 54.3837C35.5474 54.35 35.5362 54.2377 35.5249 54.1478C35.5025 53.867 35.4912 53.8333 35.48 53.3391C35.48 53.0695 35.4575 52.8224 35.4575 52.7887C35.4575 52.6989 35.48 51.6318 35.5025 51.3959C35.5137 51.2274 35.5249 51.0702 35.5474 50.9017C35.5474 50.8455 35.5586 50.7444 35.5699 50.677C35.5923 50.4748 35.6485 50.0705 35.7047 49.7447C35.7384 49.5762 35.7608 49.419 35.7721 49.3741C35.7721 49.3404 35.7945 49.2842 35.7945 49.2505C35.7945 49.2168 35.8058 49.1831 35.817 49.1719C35.817 49.1606 35.8282 49.1382 35.8395 49.1157C35.8395 49.1045 35.8507 49.082 35.8395 49.0708C35.8395 49.0483 35.9855 48.4193 36.0641 48.1722C36.0866 48.116 36.0866 48.0599 36.0866 48.0486C36.0866 48.0486 36.0866 48.0374 36.0978 48.0374C36.109 48.0374 36.1203 48.0149 36.1203 47.9812C36.1203 47.9363 36.1764 47.7454 36.3224 47.3073C36.3224 47.2961 36.3224 47.2736 36.3224 47.2736C36.3224 47.2736 36.3224 47.2511 36.3449 47.2287C36.3561 47.2062 36.3786 47.1613 36.3898 47.1276C36.4011 47.0489 36.592 46.5547 36.6482 46.4649C36.6707 46.4312 36.6819 46.3975 36.6707 46.3975C36.6482 46.3975 37.1986 45.2068 37.3446 44.9597C37.3895 44.8811 37.4457 44.7688 37.4794 44.7014C37.5131 44.634 37.5692 44.5216 37.6142 44.4542C37.6591 44.3869 37.6928 44.3195 37.6928 44.3082C37.6928 44.297 37.7602 44.1959 37.8388 44.0723C37.9175 43.9488 37.9961 43.8252 38.0073 43.8028C38.0298 43.7691 38.3331 43.3198 38.5352 43.0165C38.715 42.7582 39.299 42.0168 39.49 41.8146C39.5349 41.7585 39.6248 41.6686 39.6697 41.6124C39.7146 41.5563 39.827 41.4327 39.9056 41.3541C39.9842 41.2642 40.1078 41.1407 40.1864 41.0621C40.31 40.9273 40.7143 40.5341 40.8828 40.3881C41.1524 40.1522 41.3995 39.9388 41.4781 39.8826C41.5006 39.8602 41.5343 39.8489 41.5343 39.8377C41.5343 39.8377 41.6242 39.7591 41.7253 39.6805C41.8937 39.5457 41.9611 39.4895 42.0735 39.4221C42.0959 39.4109 42.1296 39.3884 42.1521 39.366C42.2419 39.2873 42.2644 39.2761 42.2869 39.2761C42.2981 39.2761 42.3093 39.2761 42.3206 39.2536C42.3318 39.2312 42.6238 39.0177 42.6575 39.0177C42.6688 39.0177 42.68 39.0177 42.6912 38.9953C42.7025 38.9728 42.9384 38.8043 42.9608 38.8043C42.9721 38.8043 42.9833 38.8043 42.9833 38.7819C42.9833 38.7594 43.0057 38.7482 43.0394 38.7482C43.0731 38.7482 43.0956 38.7257 43.1068 38.7145C43.1181 38.692 43.4775 38.4674 43.5 38.4674C43.5 38.4674 43.5898 38.4224 43.6797 38.355C43.7696 38.2989 43.8819 38.2315 43.9156 38.2202C43.9493 38.209 43.9942 38.1865 43.9942 38.1753C44.0279 38.1304 45.0613 37.6137 45.1062 37.6137C45.1174 37.6137 45.1399 37.6137 45.1399 37.5912C45.1399 37.5688 45.1624 37.5688 45.1961 37.5575C45.2298 37.5575 45.3421 37.5014 45.4657 37.4452C45.8139 37.2992 46.3642 37.0858 46.4316 37.0745C46.4541 37.0745 46.4653 37.0745 46.4766 37.0633C46.4766 37.0633 46.4878 37.0633 46.499 37.0633C46.499 37.0633 46.6788 37.0071 46.8697 36.9397C47.0607 36.8724 47.2516 36.8162 47.2853 36.8162C47.319 36.8162 47.3415 36.805 47.3415 36.805C47.3415 36.805 47.3527 36.805 47.3752 36.805C47.3976 36.805 47.4987 36.7713 47.611 36.7376C47.948 36.6365 48.3636 36.5466 48.4759 36.5241C48.5433 36.5241 48.5995 36.5017 48.6107 36.5017C48.6107 36.5017 48.6557 36.4904 48.6894 36.4792C48.7231 36.4792 48.8242 36.4568 48.914 36.4343C49.1274 36.3894 49.7677 36.2883 49.9586 36.2658C50.0373 36.2658 50.1384 36.2433 50.1833 36.2433C50.9022 36.1535 51.9131 36.131 52.6656 36.1647C53.1149 36.1872 53.2497 36.1984 53.4856 36.2209C53.5642 36.2209 53.6541 36.2433 53.699 36.2433C54.0248 36.277 54.5976 36.3557 55.0357 36.4455C55.1817 36.4792 55.3277 36.5017 55.3614 36.5129C55.3839 36.5129 55.4176 36.5241 55.4288 36.5354C55.4401 36.5354 55.485 36.5466 55.5187 36.5466C55.5524 36.5466 55.7209 36.5915 55.8894 36.6365C56.0578 36.6814 56.2151 36.7263 56.2376 36.7263C56.26 36.7263 56.3162 36.7488 56.3499 36.76C56.3836 36.7713 56.4061 36.7713 56.4061 36.76C56.4061 36.7488 56.4285 36.76 56.451 36.7713C56.4734 36.7825 56.5184 36.805 56.5521 36.805C56.597 36.805 57.2373 37.0184 57.372 37.0633C57.3945 37.0633 57.417 37.0745 57.4394 37.0858C57.4507 37.0858 57.6079 37.1419 57.7764 37.2093C58.1695 37.3553 58.1246 37.3441 58.4167 37.4677C58.5514 37.5238 58.675 37.5688 58.6862 37.5688C58.6975 37.5688 58.7087 37.5688 58.7087 37.5912C58.7087 37.6137 58.7087 37.6137 58.7312 37.5912C58.7424 37.5912 58.7536 37.5912 58.7536 37.5912C58.7536 37.5912 58.7536 37.6137 58.7761 37.6137C58.7986 37.6137 59.3153 37.8496 59.3377 37.8833C59.3377 37.8945 59.3602 37.8945 59.3602 37.8833C59.3602 37.8608 59.7421 38.063 59.7983 38.1079C59.8207 38.1304 59.8544 38.1416 59.8656 38.1416C59.8993 38.1416 60.2588 38.355 60.3262 38.4C60.3486 38.4224 60.3711 38.4224 60.3711 38.4224C60.3711 38.4112 60.6295 38.5572 60.6407 38.5909C60.6407 38.5909 60.6744 38.6134 60.6968 38.6246C60.7642 38.6471 61.4607 39.1301 61.4607 39.1413C61.4607 39.1413 61.4719 39.1638 61.4943 39.1638C61.5056 39.1638 61.5505 39.1862 61.5842 39.2199C61.6179 39.2536 61.6628 39.2761 61.6628 39.2761C61.6628 39.2761 61.6965 39.2986 61.719 39.321C61.7415 39.3435 61.8201 39.3997 61.8875 39.4558C61.9549 39.5007 62.0223 39.5457 62.0223 39.5569C62.0335 39.5681 62.2694 39.7591 62.3031 39.7928C62.539 39.9613 63.3702 40.7138 63.6397 41.0059C63.6847 41.0508 63.797 41.1744 63.8981 41.2755C64.0778 41.4552 64.2463 41.6349 64.4822 41.9157C64.5945 42.0393 64.7742 42.2752 64.9315 42.4661C64.9989 42.5447 65.055 42.6234 65.0663 42.6346C65.1898 42.7918 65.3021 42.9491 65.3021 42.9603C65.3021 42.9716 65.3021 42.9828 65.3246 42.994C65.3246 42.994 65.4032 43.0839 65.4706 43.185C65.538 43.2861 65.6054 43.3759 65.6054 43.3759C65.6391 43.4096 65.8301 43.7241 65.8301 43.7354C65.8301 43.7466 65.8301 43.7578 65.8525 43.7691C65.875 43.7691 66.1109 44.151 66.1446 44.2184C66.1446 44.2408 66.167 44.2633 66.1783 44.2858C66.2569 44.3981 66.3917 44.6452 66.3917 44.6677C66.3917 44.6789 66.4142 44.7238 66.4254 44.7463C66.4815 44.8249 66.6725 45.1956 66.6725 45.2181C66.6725 45.2181 66.7399 45.3753 66.8298 45.555C66.9758 45.8583 67.2229 46.3975 67.2341 46.4536C67.2341 46.4649 67.2454 46.4986 67.2678 46.5323C67.3128 46.6333 67.5262 47.2287 67.5374 47.2736C67.5374 47.2848 67.5711 47.3747 67.6048 47.4645C67.6385 47.5544 67.661 47.633 67.6497 47.633C67.6385 47.633 67.6497 47.6443 67.6497 47.6667C67.6834 47.7004 67.7508 47.9588 67.7508 48.0149C67.7508 48.0374 67.7508 48.0599 67.762 48.0599C67.7733 48.0599 67.7845 48.0711 67.7845 48.0936C67.7845 48.1273 67.7845 48.0936 67.9193 48.6215C67.9755 48.8461 68.0316 49.0596 68.0316 49.0933C68.0316 49.1269 68.0429 49.1831 68.0541 49.2168C68.0541 49.2505 68.0766 49.3067 68.0766 49.3404C68.0766 49.3741 68.1103 49.5425 68.1439 49.6998C68.2113 50.0143 68.29 50.5647 68.3124 50.8006C68.3124 50.8792 68.3349 51.0028 68.3349 51.0589C68.4248 51.9351 68.4248 53.2493 68.3349 54.1478C68.3349 54.2152 68.3124 54.3388 68.3124 54.4174C68.29 54.6421 68.2226 55.1363 68.1552 55.4957C68.1215 55.6642 68.099 55.8215 68.0878 55.8664C68.0878 55.9001 68.0653 55.9563 68.0653 55.99C68.0653 56.0237 68.0429 56.0798 68.0429 56.1248C68.0429 56.1697 67.9867 56.3494 67.9418 56.5404C67.8294 56.9784 67.8294 56.9672 67.8182 57.0234C67.8182 57.057 67.7957 57.0907 67.7957 57.102C67.7957 57.1132 67.7733 57.1469 67.7733 57.1806C67.7733 57.2592 67.6722 57.5737 67.6385 57.5962C67.6273 57.6074 67.616 57.6299 67.6385 57.6299C67.661 57.6299 67.616 57.7198 67.5823 57.8209C67.5486 57.9219 67.5037 58.0343 67.5037 58.068C67.4925 58.1354 67.2791 58.6745 67.1443 58.989C67.0881 59.1126 67.0319 59.2474 67.0207 59.3035C66.9982 59.3485 66.9758 59.4046 66.9645 59.4159C66.9533 59.4159 66.9421 59.4383 66.9645 59.4383C66.9645 59.4383 66.9196 59.5507 66.8522 59.6967C66.7848 59.8427 66.7062 59.9887 66.695 60.0224C66.6837 60.0561 66.6163 60.1909 66.5489 60.3032C66.4816 60.4268 66.4254 60.5279 66.4254 60.5279C66.4254 60.5503 66.2457 60.8648 66.1895 60.9322C66.1558 60.9772 66.1446 61.0109 66.1446 61.0109C66.167 61.0109 65.9199 61.3815 65.8975 61.3928C65.8975 61.3928 65.8862 61.4152 65.8975 61.4265C65.8975 61.4377 65.8975 61.4489 65.8862 61.4489C65.875 61.4489 65.8638 61.4489 65.8638 61.4714C65.8638 61.4939 65.8188 61.5613 65.7627 61.6399C65.7065 61.7185 65.6616 61.7971 65.6616 61.8084C65.6616 61.8196 65.6391 61.8421 65.6279 61.8421C65.6054 61.8421 65.5942 61.8645 65.6054 61.8645C65.6167 61.8758 65.4482 62.1341 65.4145 62.1453C65.4145 62.1453 65.392 62.1678 65.392 62.179C65.392 62.1903 65.3695 62.2127 65.3583 62.224C65.3358 62.224 65.3246 62.2464 65.3358 62.2577C65.3471 62.2689 65.1786 62.5048 65.1112 62.5834C65.1 62.5946 65.0775 62.6171 65.0775 62.6283C65.0775 62.6283 65.0438 62.6845 65.0101 62.7294C64.9764 62.7744 64.909 62.8418 64.8753 62.8867C64.8191 62.9541 64.7518 63.0439 64.5159 63.3248C64.4934 63.3584 64.4372 63.4146 64.3923 63.4595C64.3474 63.5045 64.2688 63.5943 64.2126 63.673C63.9318 63.9987 62.8422 65.0545 62.685 65.1556C62.6625 65.1781 62.6288 65.2006 62.6176 65.2118C62.6064 65.223 62.5277 65.2904 62.4603 65.3466C62.3817 65.414 62.3143 65.4701 62.3143 65.4701C62.3143 65.4701 62.2694 65.5038 62.2245 65.5375C62.1795 65.5712 62.1234 65.6162 62.0897 65.6499C62.056 65.6836 61.9773 65.7397 61.9099 65.7847C61.8426 65.8296 61.719 65.9194 61.6516 65.9756C61.4831 66.0992 60.7979 66.5597 60.7867 66.5597C60.7867 66.5597 60.6968 66.6159 60.5845 66.6833C60.4834 66.7506 60.3374 66.8405 60.27 66.8742C60.2026 66.9079 60.1352 66.9528 60.124 66.9528C60.124 66.9528 60.0454 66.9978 59.9667 67.0427C59.8881 67.0876 59.7196 67.1775 59.5961 67.2449C59.4725 67.3123 59.3714 67.3684 59.3602 67.3572C59.3602 67.3572 59.2029 67.4246 59.0232 67.5144C58.6975 67.6717 58.1695 67.9076 58.1471 67.9076C58.1471 67.9076 58.0011 67.9637 57.8326 68.0199C57.5518 68.1322 56.6869 68.413 56.5745 68.4355C56.5521 68.4355 56.5296 68.4355 56.5296 68.4467C56.5296 68.458 56.5184 68.4467 56.4959 68.4467C56.4734 68.4467 56.26 68.5029 56.0129 68.5703C55.7658 68.6377 55.5299 68.6939 55.4962 68.6939C55.4625 68.6939 55.4064 68.7163 55.3727 68.7163C55.339 68.7163 55.2828 68.7388 55.2491 68.7388C55.2154 68.7388 55.0469 68.7725 54.8784 68.8062C54.5078 68.8736 54.0135 68.9522 53.7889 68.9634C53.6316 68.9747 53.5755 68.9859 53.2947 69.0084C52.6207 69.0645 51.3852 69.0645 50.7 69.0084C50.6326 69.0084 50.5203 68.9971 50.4529 68.9859C50.3855 68.9859 50.2619 68.9747 50.1945 68.9634C49.9811 68.941 49.4532 68.8623 49.1162 68.8062C48.9477 68.7725 48.7905 68.75 48.7568 68.7388L48.6894 68.8286ZM54.1034 76.3432C54.1034 76.3432 52.8454 76.3656 52.778 76.3432C52.733 76.3207 52.3624 75.8152 51.9131 75.1525C51.8457 75.0514 51.7109 74.8605 51.6098 74.7144L51.4301 74.4561H50.4079V74.546C50.4079 74.6358 50.3967 74.9054 50.3518 75.7591L50.3293 76.287H49.7452L49.1611 76.2982V74.8268C49.1836 73.726 49.251 71.0864 49.2622 71.0414C49.2622 71.0414 49.543 71.0414 49.88 71.0414C50.217 71.0414 50.7898 71.0527 51.1605 71.0639C52.1714 71.0751 52.4747 71.1201 52.778 71.2773C53.4856 71.6368 53.8001 72.3107 53.6653 73.1644C53.6092 73.5126 53.3284 73.9169 52.9352 74.2202C52.7892 74.3325 52.8004 74.355 53.3171 75.0739C53.9574 75.9612 54.1708 76.3207 54.1034 76.3656V76.3432ZM59.5287 75.1525C59.3939 75.2311 56.1702 76.0286 56.0129 76.0286C55.8781 76.0286 55.8332 75.8939 55.485 74.4898C55.002 72.5578 54.6987 71.2661 54.6763 71.0751V70.9628L54.9234 70.8954C55.3502 70.7719 57.2148 70.2889 57.9674 70.0979L58.2819 70.0193L58.338 70.0754C58.338 70.0754 58.4054 70.199 58.4391 70.2889C58.529 70.5809 58.6076 70.9516 58.5964 71.0077C58.5739 71.0751 58.6188 71.0639 57.5742 71.3335C56.2263 71.6705 56.0803 71.7154 56.0915 71.794C56.2263 72.4118 56.2713 72.569 56.3499 72.569C56.4285 72.569 57.0688 72.4343 57.6529 72.2882C58.7087 72.0299 58.675 72.0299 58.7536 72.277C58.8997 72.6926 58.9446 73.0184 58.866 73.052C58.7873 73.097 58.1808 73.2655 57.7989 73.3553C57.3608 73.4564 56.6195 73.6586 56.597 73.6698C56.5296 73.7372 56.7992 74.7257 56.889 74.7032C56.9115 74.7032 57.1249 74.647 57.372 74.5909C57.6192 74.5347 57.9674 74.4561 58.1471 74.4112C58.529 74.3101 59.2142 74.1753 59.2928 74.1753C59.4276 74.1753 59.6522 75.0963 59.5287 75.1525ZM65.1224 72.2208C65.1 72.3107 64.7518 72.6477 64.4485 72.8611C62.6738 74.1416 60.5845 73.6249 59.9106 71.7378C59.3602 70.1878 60.3486 68.6152 62.2357 68.0199C62.3592 67.975 62.494 67.9413 62.5165 67.93C62.6064 67.8964 62.7299 67.9076 62.7748 67.93C62.8647 67.9974 62.9995 68.4467 63.0107 68.7051C63.0107 68.8736 62.9883 68.896 62.6401 69.0308C61.6741 69.4015 61.2135 69.7722 61.0338 70.3563C60.753 71.2661 61.4045 72.3332 62.3031 72.4118C62.9658 72.468 63.505 72.2658 64.2688 71.648C64.3586 71.5694 64.4485 71.502 64.4709 71.4907C64.5383 71.4346 65.1561 72.1198 65.1337 72.2208H65.1224ZM68.8179 69.3004C67.8294 70.7382 65.8413 70.8505 64.6282 69.5363C63.3926 68.1884 63.8082 66.0542 65.4594 65.3017C65.9087 65.0882 66.7399 65.0433 67.2229 65.1893C69.0201 65.7285 69.8288 67.829 68.8067 69.3116L68.8179 69.3004ZM73.2884 62.9204C73.2884 62.9204 73.0301 62.9765 72.7605 63.0102C71.4238 63.1787 71.0082 63.2461 70.9633 63.3023C70.9071 63.3697 70.5814 64.0212 70.5702 64.0998C70.5627 64.1447 70.7686 64.287 71.1879 64.5266C71.9742 64.9647 72.0865 65.0321 72.0753 65.0882C72.0641 65.2006 71.7159 65.8745 71.5923 66.0205L71.5474 66.0767L71.2666 65.9419C70.4691 65.5488 67.4138 63.8302 67.0769 63.5831C67.0319 63.5494 66.9982 63.5157 66.9982 63.4932C66.9982 63.3697 68.2113 61.2243 68.5034 60.8311C68.8404 60.3706 69.6154 60.146 70.2332 60.3145C70.851 60.4942 71.289 60.9772 71.4238 61.6511C71.4912 61.9656 71.48 61.9544 71.5811 61.9544C71.626 61.9544 72.0528 61.8982 72.5134 61.8421C73.0862 61.7634 73.4457 61.7297 73.6366 61.7185H73.9062V61.7747C73.9174 61.887 73.4007 62.8305 73.2659 62.9316L73.2884 62.9204ZM74.9059 58.2926C74.8497 58.7307 74.6026 59.8876 74.5464 59.9438C74.4903 59.9999 69.9187 58.9666 69.5368 58.8093L69.4581 58.7756V58.5959C69.5031 58.2477 69.7839 57.2031 69.9861 56.7201C70.514 55.4845 71.5811 54.7881 72.7268 54.9229C74.2544 55.1138 75.1193 56.4393 74.9059 58.2814V58.2926ZM71.5137 52.5753C71.5698 52.6427 71.5811 52.6427 71.6934 52.6427C71.918 52.6202 71.9854 52.5079 72.3561 51.5419C72.6369 50.7781 72.8167 50.3625 72.9627 50.1266C73.2098 49.7223 73.7152 49.5201 74.2656 49.6099C75.4675 49.8009 75.9842 51.3847 75.49 53.3279C75.3327 53.9457 75.299 53.9681 74.8273 53.8446C74.2993 53.7098 74.3106 53.7322 74.4229 53.2156C74.6588 52.0698 74.5914 51.0028 74.2656 50.8343C73.9624 50.677 73.8163 50.868 73.4344 51.9351C72.8728 53.5188 72.5695 53.8446 71.7046 53.8446C70.9858 53.8446 70.5926 53.5076 70.3567 52.7326C70.222 52.2833 70.222 50.8792 70.3567 50.194C70.4241 49.8234 70.3904 49.8571 70.7386 49.8908C71.3003 49.9469 71.4463 50.0031 71.4238 50.1491C71.2553 51.2386 71.3003 52.3394 71.5137 52.5978V52.5753ZM71.0644 38.8493C71.4126 39.4221 71.5249 39.7029 71.4351 39.7703C71.3115 39.8602 70.8847 40.0848 70.7611 40.1298C70.6039 40.1859 70.6376 40.2084 70.4017 39.7928C69.8064 38.7482 69.2447 38.1192 68.9527 38.1753C68.6831 38.2202 68.6719 38.4898 68.8853 39.2199C69.2784 40.5566 69.2897 40.6128 69.2897 41.0508V41.4103L69.1998 41.59C68.7954 42.4212 67.7284 42.5897 66.8522 41.9719C66.2794 41.5675 65.4931 40.4106 65.2797 39.6692C65.1786 39.2986 65.2011 39.2649 65.7739 39.0402C66.1109 38.9167 66.0323 38.838 66.4703 39.7366C67.0432 40.9048 67.7396 41.4777 68.0766 41.0621C68.144 40.9834 68.144 40.8936 68.0766 40.6128C68.0316 40.3881 68.0092 40.3095 67.8294 39.7254C67.4026 38.3438 67.4475 37.8608 68.0092 37.3329C68.3461 37.0184 68.7168 36.8948 69.1212 36.9847C69.7165 37.1082 70.4129 37.7822 71.0532 38.838L71.0644 38.8493Z" fill="white"/>
<path d="M51.0369 72.0859H50.4865L50.4753 72.1758C50.4528 72.3331 50.4079 73.3552 50.4191 73.3777C50.4528 73.4114 51.6659 73.4338 51.8793 73.4114C52.3399 73.3552 52.5758 72.9845 52.4297 72.5352C52.3062 72.1646 52.1602 72.1196 51.0481 72.0859H51.0369Z" fill="white"/>
<path d="M66.1333 66.2341C65.3021 66.3802 64.7967 67.436 65.1898 68.211C65.8301 69.4915 67.2116 69.705 67.9193 68.6491C68.6045 67.627 67.4138 66.0207 66.1333 66.2341Z" fill="white"/>
<path d="M72.1201 56.181C71.5024 56.2821 70.9857 56.8774 70.7947 57.6861C70.7498 57.8995 70.7161 57.8771 71.244 58.0006C72.1201 58.2028 72.6818 58.3376 73.1535 58.4387C73.4231 58.4949 73.6478 58.551 73.6702 58.551C73.8162 58.5959 73.8949 57.6749 73.7938 57.2705C73.6028 56.5629 72.839 56.0686 72.1201 56.181Z" fill="white"/>
<path d="M69.5479 61.482C69.312 61.5269 69.2559 61.5831 68.8627 62.2009C68.5595 62.6839 68.4134 62.9647 68.4471 62.9984C68.537 63.0658 69.503 63.6049 69.5479 63.6049C69.6939 63.6049 70.3117 62.3806 70.3117 62.0773C70.3117 61.6842 69.9635 61.4146 69.5479 61.482Z" fill="white"/>
<path d="M43.4438 70.2768C43.0844 69.996 42.8822 69.9061 42.8148 69.9735C42.7923 69.996 42.6351 70.3105 42.4666 70.6699C42.2981 71.0293 42.0622 71.5236 41.9499 71.7594C41.5231 72.6356 41.4894 72.703 41.5231 72.7254C41.6803 72.8378 42.3992 73.0287 42.7137 73.0287C43.5674 73.0287 44.1627 72.4222 44.1627 71.5236C44.1627 70.9956 43.983 70.6924 43.4438 70.2768Z" fill="white"/>
<path d="M36.6818 64.7854C36.6031 64.5607 35.8393 63.5049 35.7495 63.5049C35.7495 63.5049 35.6484 63.561 35.536 63.6397C35.3788 63.752 34.9744 64.044 34.7273 64.2462C34.6824 64.2799 34.6824 64.2912 34.8958 64.572C35.5136 65.3919 35.6933 65.5717 35.873 65.6166C36.356 65.7289 36.8165 65.2571 36.6705 64.7966L36.6818 64.7854Z" fill="white"/>
<path d="M33.7054 59.427C33.5594 58.7193 32.8292 58.2476 32.0879 58.3824C31.7959 58.4385 31.4027 58.5958 31.1444 58.7755C30.2795 59.3596 30.3806 60.6963 31.3241 61.168L31.5151 61.2691H31.852C33.1101 61.3028 33.9188 60.4941 33.7054 59.4382V59.427Z" fill="white"/>
<path d="M51.9357 23.9658C36.0867 23.9658 23.2368 36.8157 23.2368 52.6647C23.2368 68.5137 36.0867 81.3636 51.9357 81.3636C67.7847 81.3636 80.6346 68.5137 80.6346 52.6647C80.6346 36.8157 67.7847 23.9658 51.9357 23.9658ZM76.883 42.1287C78.2982 45.4647 79.0059 49.0142 79.0059 52.6647C79.0059 56.3153 78.287 59.8647 76.883 63.2007C76.209 64.807 75.3666 66.357 74.3894 67.7948C73.4234 69.2326 72.3113 70.5804 71.087 71.8048C69.8627 73.0291 68.5148 74.1411 67.077 75.1071C65.628 76.0843 64.078 76.9268 62.483 77.6007C59.1469 79.016 55.5975 79.7237 51.9469 79.7237C48.2964 79.7237 44.7469 79.0048 41.4109 77.6007C39.8047 76.9268 38.2546 76.0843 36.8168 75.1071C35.3791 74.1411 34.0312 73.0291 32.8069 71.8048C31.5825 70.5804 30.4705 69.2326 29.5045 67.7948C28.5273 66.3458 27.6849 64.7957 27.0109 63.2007C25.5956 59.8647 24.888 56.3153 24.888 52.6647C24.888 49.0142 25.6069 45.4647 27.0109 42.1287C27.6849 40.5224 28.5273 38.9724 29.5045 37.5346C30.4705 36.0969 31.5825 34.749 32.8069 33.5246C34.0312 32.3003 35.3791 31.1883 36.8168 30.2223C38.2658 29.2451 39.8159 28.4026 41.4109 27.7287C44.7469 26.3134 48.2964 25.6058 51.9469 25.6058C55.5975 25.6058 59.1469 26.3246 62.483 27.7287C64.0892 28.4026 65.6393 29.2451 67.077 30.2223C68.5148 31.1883 69.8627 32.3003 71.087 33.5246C72.3113 34.749 73.4234 36.0969 74.3894 37.5346C75.3666 38.9836 76.209 40.5337 76.883 42.1287Z" fill="white"/>
</svg>
