<svg width="86" height="65" viewBox="0 0 86 65" fill="none" xmlns="http://www.w3.org/2000/svg">
<path fill-rule="evenodd" clip-rule="evenodd" d="M41.0752 46.3317C40.7907 47.3213 40.0484 48.3605 38.7989 48.2615C39.6401 47.8657 40.4566 46.9749 41.001 46.2327C39.4917 45.6018 38.4525 46.6657 36.9309 48.4347C38.2298 48.8554 40.5432 48.8554 41.0257 46.8636C41.0876 46.5791 41.0752 46.3935 41.0752 46.3317ZM43.7845 45.3791C44.2793 45.3791 44.6752 45.775 44.6752 46.2698C44.6752 46.7646 44.2793 47.1605 43.7845 47.1605C43.2896 47.1605 42.8937 46.7646 42.8937 46.2698C42.8937 45.775 43.2896 45.3791 43.7845 45.3791ZM75.4792 16.6905C75.5411 16.6905 75.7266 16.74 76.0112 16.7276C78.0524 16.5544 78.3988 14.2658 78.1761 12.9173C76.1967 14.1544 74.9844 15.0204 75.3802 16.6039C76.1967 16.1833 77.1988 15.5153 77.7184 14.7359C77.6318 15.9854 76.4936 16.5668 75.4668 16.7029L75.4792 16.6905ZM75.1328 16.6905C75.071 16.6905 74.8854 16.74 74.6008 16.7029C72.5596 16.4555 72.2998 14.1544 72.5596 12.8184C74.5019 14.1297 75.6771 15.0328 75.2318 16.6039C74.4277 16.1462 73.4503 15.4534 72.9555 14.6493C73.005 15.9111 74.1184 16.5173 75.1328 16.6905ZM75.0709 20.142C76.0977 20.1173 77.2977 19.6719 77.5204 18.4348C76.9142 19.1524 75.8503 19.7091 74.9967 20.0431C74.774 18.4225 76.0606 17.6926 78.1761 16.6781C78.238 18.039 77.6565 20.2781 75.6029 20.2286C75.306 20.2163 75.1452 20.1544 75.0709 20.142ZM74.7246 20.0926C74.6627 20.0926 74.4771 20.1049 74.1926 20.0554C72.1885 19.5853 72.1885 17.272 72.5844 15.973C74.3782 17.4823 75.4421 18.5091 74.8235 20.0183C74.0689 19.4864 73.1782 18.6823 72.7823 17.8287C72.6833 19.0781 73.7349 19.808 74.7246 20.0926ZM74.2792 23.5194C75.306 23.606 76.5431 23.2967 76.9019 22.0843C76.2215 22.7276 75.1081 23.173 74.2173 23.408C74.1679 21.775 75.5411 21.1936 77.7431 20.4142C77.6565 21.775 76.84 23.94 74.7988 23.6678C74.5143 23.6183 74.3411 23.5441 74.2792 23.5194ZM73.9452 23.4451C72.9926 23.0616 72.0277 22.2204 72.2627 20.9833C72.572 21.8616 73.3761 22.7647 74.0565 23.3833C74.8359 21.9482 73.8833 20.8101 72.2751 19.1152C71.7308 20.3647 71.4833 22.6657 73.4256 23.3462C73.6978 23.4328 73.8833 23.4328 73.9576 23.4451H73.9452ZM73.1411 26.7977C74.1555 26.9956 75.4173 26.8224 75.8998 25.6596C75.1576 26.2286 73.9947 26.5379 73.0916 26.6864C73.2277 25.0534 74.638 24.6328 76.9266 24.0884C76.6916 25.4369 75.64 27.4905 73.6483 27.008C73.3637 26.9338 73.2153 26.8348 73.1534 26.7977H73.1411ZM72.807 26.6864C72.7452 26.674 72.5596 26.6492 72.2875 26.5255C70.4318 25.6348 70.9266 23.3833 71.607 22.1956C73.0297 24.0637 73.8462 25.2884 72.9184 26.6369C72.2998 25.9441 71.607 24.9668 71.3967 24.0637C71.038 25.2637 71.904 26.2039 72.807 26.6987V26.6864ZM71.6318 29.9276C72.6091 30.2369 73.8833 30.1997 74.5019 29.0987C73.6978 29.5812 72.5225 29.7668 71.5947 29.8039C71.904 28.1956 73.3637 27.9235 75.6895 27.6389C75.3184 28.9503 74.0441 30.8802 72.1143 30.175C71.8421 30.0637 71.706 29.9523 71.6442 29.9152L71.6318 29.9276ZM71.3225 29.7791C70.4813 29.1977 69.7143 28.1709 70.2091 27.008C70.3204 27.9358 70.9019 28.9874 71.4462 29.7296C72.5225 28.4925 71.8421 27.1812 70.6297 25.1771C69.8256 26.2781 69.0957 28.4802 70.8277 29.5564C71.0751 29.7049 71.2607 29.742 71.3225 29.7668V29.7791ZM69.8009 32.8843C70.7411 33.2925 72.0153 33.4039 72.7452 32.3771C71.8916 32.7729 70.704 32.8224 69.7761 32.7606C70.2586 31.2018 71.7431 31.0905 74.0813 31.0533C73.5617 32.3152 72.0895 34.0966 70.2462 33.1812C69.9864 33.0451 69.8627 32.9214 69.8009 32.8719V32.8843ZM69.504 32.6987C69.504 32.6987 69.2689 32.6121 69.0339 32.4389C67.4256 31.1771 68.3906 29.074 69.306 28.0595C70.2833 30.1874 70.8153 31.5729 69.6153 32.674C69.1576 31.8698 68.6998 30.7688 68.6875 29.8286C68.0689 30.9296 68.7122 32.0307 69.4916 32.6987H69.504ZM67.6607 35.6183C67.6607 35.6183 67.8215 35.8039 68.0689 35.977C69.8009 37.0781 71.4586 35.4698 72.1143 34.2698C69.7885 34.0472 68.304 33.9977 67.6483 35.4946C68.5638 35.6554 69.7514 35.7296 70.6421 35.4327C69.8132 36.3729 68.5514 36.1255 67.6607 35.6183ZM67.3885 35.3956C66.6833 34.641 66.1638 33.4781 66.906 32.4513C66.8071 33.3791 67.1534 34.5296 67.5246 35.3832C68.8359 34.4059 68.4648 32.9832 67.7102 30.7564C66.6833 31.6595 65.4957 33.6389 66.9555 35.074C67.1658 35.2719 67.339 35.3585 67.3885 35.3832V35.3956ZM65.2359 38.0925C66.0648 38.6987 67.2895 39.0822 68.2174 38.2286C67.3019 38.4265 66.1267 38.2286 65.2359 37.9564C66.0524 36.5337 67.5122 36.7441 69.8009 37.2265C69.0215 38.3523 67.1906 39.7626 65.5947 38.476C65.372 38.2904 65.273 38.1296 65.2359 38.0801V38.0925ZM64.9885 37.8451C64.9885 37.8451 64.7782 37.709 64.5926 37.4863C63.2937 35.9028 64.6916 34.0595 65.8174 33.2678C66.3122 35.5564 66.5349 37.0162 65.1246 37.8451C64.8524 36.9667 64.6421 35.7791 64.8401 34.8636C63.9988 35.8039 64.3947 37.0162 65.0009 37.8451H64.9885ZM62.5514 40.2946C62.5514 40.2946 62.6627 40.5172 62.8731 40.7275C64.3205 42.1873 66.2875 40.975 67.1906 39.9358C64.9638 39.2059 63.5287 38.8471 62.5638 40.1585C63.4174 40.5172 64.5679 40.8513 65.4957 40.7523C64.4813 41.4946 63.306 40.9873 62.5514 40.2822V40.2946ZM62.3287 40.0224C61.8091 39.1317 61.5493 37.8822 62.4895 37.041C62.1926 37.9317 62.2792 39.1317 62.4524 40.0348C63.9493 39.3667 63.8875 37.8946 63.6401 35.5688C62.4401 36.2245 60.8442 37.9069 61.97 39.6265C62.1308 39.8739 62.2792 39.9853 62.3287 40.0224ZM59.6442 42.1997C60.3246 42.9667 61.4256 43.61 62.5267 42.9791C61.5865 42.9791 60.4854 42.5214 59.6689 42.076C60.77 40.8636 62.1555 41.3956 64.2834 42.3482C63.2813 43.276 61.1906 44.2657 59.904 42.6574C59.7308 42.4224 59.6689 42.2492 59.6318 42.1873L59.6442 42.1997ZM59.4586 41.9028C59.4586 41.9028 59.2854 41.7296 59.1494 41.4698C58.2215 39.6389 59.9906 38.142 61.2524 37.6224C61.2524 39.9605 61.1411 41.4451 59.5823 41.9399C59.5081 41.0245 59.5576 39.8245 59.9411 38.9709C58.9143 39.7007 59.038 40.975 59.4586 41.9152V41.9028ZM56.5391 43.7585C56.5638 43.8203 56.6009 43.9935 56.7494 44.2533C57.8504 45.9853 60.0401 45.2306 61.1287 44.4265C59.1122 43.2389 57.7885 42.5708 56.5638 43.6471C57.3184 44.1791 58.37 44.7605 59.2978 44.8595C58.1473 45.3667 57.1081 44.6121 56.5267 43.7708L56.5391 43.7585ZM56.3906 43.4492C56.0813 42.4719 56.0937 41.1976 57.1947 40.5791C56.7122 41.3832 56.5391 42.5708 56.5143 43.4987C58.1102 43.177 58.3823 41.7172 58.6421 39.3915C57.3308 39.775 55.4133 41.0616 56.1308 42.9915C56.2421 43.2636 56.3535 43.3997 56.3906 43.4616V43.4492ZM53.2978 44.9832C53.7927 45.8863 54.7329 46.7399 55.9329 46.3688C55.0174 46.1708 54.0401 45.4781 53.3473 44.8595C54.6834 43.9193 55.9205 44.7234 57.8009 46.1337C56.6257 46.8265 54.3617 47.3337 53.4586 45.4904C53.3349 45.2306 53.3102 45.0451 53.2978 44.9832ZM53.1741 44.6616C53.1741 44.6616 53.038 44.4512 52.9638 44.1667C52.4566 42.175 54.5102 41.111 55.8463 40.8636C55.3267 43.1523 54.9061 44.5626 53.2855 44.711C53.4215 43.7956 53.7184 42.6327 54.2875 41.8904C53.1246 42.3853 52.9638 43.6471 53.1741 44.6616ZM49.9329 45.8492C49.9329 45.911 49.9329 46.0966 50.0319 46.3811C50.7246 48.311 53.0257 48.0512 54.2751 47.4945C52.5679 45.8987 51.4174 44.9585 49.9947 45.7378C50.6133 46.4183 51.5164 47.21 52.4071 47.5193C51.17 47.7543 50.3288 46.8018 49.9329 45.8492ZM49.8463 45.5028C49.7473 44.476 50.0442 43.2389 51.2566 42.8677C50.6133 43.5482 50.1927 44.6739 49.9576 45.5646C51.5906 45.5894 52.1597 44.2286 52.9267 42.0141C51.5659 42.1131 49.4133 42.9543 49.6978 44.9832C49.7473 45.2677 49.8216 45.4286 49.8463 45.5028ZM46.4937 46.3317C46.7783 47.3213 47.5205 48.3605 48.77 48.2615C47.9288 47.8657 47.1123 46.9749 46.568 46.2327C48.0772 45.6018 49.1164 46.6657 50.638 48.4347C49.3391 48.8554 47.0257 48.8554 46.5432 46.8636C46.4814 46.5791 46.4937 46.3935 46.4937 46.3317ZM46.4442 45.9853C46.4319 45.9234 46.3576 45.7502 46.3453 45.4533C46.2834 43.3997 48.5102 42.7935 49.8834 42.8554C48.8813 44.9708 48.1638 46.2698 46.5432 46.0595C46.8649 45.1935 47.4216 44.1296 48.1267 43.5234C46.8896 43.7585 46.4566 44.9585 46.4442 45.9853ZM12.0897 16.6905C12.0279 16.6905 11.8423 16.74 11.5578 16.7276C9.51653 16.5544 9.17014 14.2658 9.39281 12.9173C11.3722 14.1544 12.5846 15.0204 12.1887 16.6039C11.3722 16.1833 10.3701 15.5153 9.85054 14.7359C9.93714 15.9854 11.0753 16.5668 12.1021 16.7029L12.0897 16.6905ZM12.4485 16.6905C12.5103 16.6905 12.6959 16.74 12.9804 16.7029C15.0217 16.4555 15.2815 14.1544 15.0217 12.8184C13.0794 14.1297 11.9041 15.0328 12.3495 16.6039C13.1536 16.1462 14.1309 15.4534 14.6258 14.6493C14.5763 15.9111 13.4629 16.5173 12.4485 16.6781V16.6905ZM12.498 20.142C11.4712 20.1173 10.2712 19.6719 10.0485 18.4348C10.6547 19.1524 11.7186 19.7091 12.5722 20.0431C12.7949 18.4225 11.5083 17.6926 9.39281 16.6781C9.33096 18.039 9.9124 20.2781 11.966 20.2286C12.2629 20.2163 12.4237 20.1544 12.498 20.1297V20.142ZM12.8567 20.0926C12.9186 20.0926 13.1041 20.1049 13.3887 20.0554C15.3928 19.5853 15.3928 17.272 14.9969 15.973C13.2031 17.4823 12.1392 18.5091 12.7578 20.0183C13.5124 19.474 14.4031 18.6823 14.799 17.8287C14.898 19.0781 13.8464 19.808 12.8567 20.0926ZM13.2897 23.5194C12.2629 23.606 11.0258 23.2967 10.667 22.0967C11.3474 22.74 12.4608 23.1853 13.3516 23.4204C13.3887 21.7874 12.0279 21.206 9.8258 20.4266C9.9124 21.7874 10.7289 23.9523 12.7701 23.6802C13.0547 23.6307 13.2279 23.5565 13.2897 23.5317V23.5194ZM13.6237 23.4451C14.5763 23.0616 15.5412 22.2204 15.3062 20.9833C14.9969 21.8616 14.1928 22.7647 13.5124 23.3833C12.733 21.9482 13.6856 20.8101 15.2938 19.1152C15.8382 20.3647 16.0856 22.6657 14.1433 23.3462C13.8712 23.4328 13.6856 23.4328 13.6114 23.4451H13.6237ZM14.4402 26.7977C13.4382 26.9956 12.1639 26.8224 11.6815 25.6596C12.4237 26.2286 13.5866 26.5379 14.4897 26.6864C14.3536 25.0534 12.9433 24.6328 10.6547 24.0884C10.8897 25.4369 11.9413 27.4905 13.933 27.008C14.2175 26.9338 14.366 26.8348 14.4279 26.7977H14.4402ZM14.7619 26.6864C14.8237 26.674 15.0093 26.6492 15.2691 26.5255C17.1247 25.6348 16.6299 23.3833 15.9495 22.1956C14.5268 24.0637 13.7103 25.2884 14.6382 26.6369C15.2567 25.9441 15.9495 24.9668 16.1598 24.0637C16.5186 25.2637 15.6526 26.2039 14.7495 26.6987L14.7619 26.6864ZM15.9371 29.9276C14.9598 30.2369 13.6856 30.1997 13.067 29.0987C13.8711 29.5812 15.0464 29.7668 15.9742 29.8039C15.665 28.1956 14.2052 27.9235 11.8794 27.6389C12.2505 28.9503 13.5248 30.8802 15.4547 30.175C15.7268 30.0637 15.8629 29.9523 15.9248 29.9152L15.9371 29.9276ZM16.2464 29.7791C17.0876 29.1977 17.8546 28.1709 17.3598 27.008C17.2485 27.9358 16.667 28.9874 16.1227 29.742C15.0464 28.5049 15.7268 27.1936 16.9392 25.1895C17.7433 26.2905 18.4732 28.4925 16.7412 29.5688C16.4938 29.7173 16.3083 29.7544 16.2464 29.7791ZM17.768 32.8843C16.8278 33.2925 15.5536 33.4039 14.8237 32.3771C15.6773 32.7729 16.865 32.8224 17.7928 32.7606C17.3103 31.2018 15.8258 31.0905 13.4876 31.0533C14.0072 32.3152 15.4794 34.0966 17.3227 33.1812C17.5825 33.0451 17.7062 32.9214 17.768 32.8719V32.8843ZM18.065 32.6987C18.065 32.6987 18.3 32.6121 18.5351 32.4389C20.1433 31.1771 19.1784 29.074 18.2629 28.0595C17.2856 30.1874 16.7536 31.5729 17.9536 32.674C18.4113 31.8698 18.8691 30.7688 18.8814 29.8286C19.5 30.9296 18.8567 32.0307 18.0773 32.6987H18.065ZM19.9082 35.6183C19.9082 35.6183 19.7474 35.8039 19.5 35.977C17.768 37.0781 16.1103 35.4698 15.4547 34.2698C17.7804 34.0472 19.2649 33.9977 19.9206 35.4946C19.0052 35.6554 17.8175 35.7296 16.9268 35.4327C17.7557 36.3729 19.0175 36.1255 19.9082 35.6183ZM20.1804 35.3956C20.8856 34.641 21.4051 33.4781 20.6629 32.4513C20.7618 33.3791 20.4155 34.5296 20.0443 35.3832C18.733 34.4059 19.1041 32.9832 19.8588 30.7564C20.8856 31.6595 22.0732 33.6389 20.6134 35.074C20.4031 35.2719 20.2299 35.3585 20.1804 35.3832V35.3956ZM22.333 38.0925C21.5041 38.6987 20.2794 39.0822 19.3515 38.2286C20.267 38.4265 21.4423 38.2286 22.333 37.9564C21.5165 36.5337 20.0567 36.7441 17.768 37.2265C18.5474 38.3523 20.3783 39.7626 21.9742 38.476C22.1969 38.2904 22.2959 38.1296 22.333 38.0801V38.0925ZM22.5804 37.8451C22.5804 37.8451 22.7907 37.709 22.9763 37.4863C24.2752 35.9028 22.8773 34.0595 21.7515 33.2678C21.2567 35.5564 21.034 37.0162 22.4443 37.8451C22.7165 36.9544 22.9268 35.7791 22.7289 34.8636C23.5701 35.8039 23.1742 37.0162 22.568 37.8451H22.5804ZM25.0175 40.2946C25.0175 40.2946 24.9062 40.5172 24.6959 40.7275C23.2484 42.1873 21.2814 40.975 20.3783 39.9358C22.6051 39.2059 24.0402 38.8471 25.0051 40.1585C24.1515 40.5172 23.001 40.8513 22.0732 40.7523C23.0876 41.4946 24.2629 40.9873 25.0175 40.2822V40.2946ZM25.2402 40.0224C25.7598 39.1317 26.0196 37.8822 25.0794 37.041C25.3763 37.9317 25.2897 39.1317 25.1165 40.0348C23.6196 39.3667 23.6814 37.8946 23.9289 35.5564C25.1288 36.2121 26.7247 37.8946 25.5989 39.6141C25.4381 39.8616 25.2897 39.9729 25.2402 40.01V40.0224ZM27.9247 42.1997C27.2443 42.9667 26.1433 43.61 25.0422 42.9791C25.9825 42.9791 27.0835 42.5214 27.9 42.076C26.7989 40.8636 25.4134 41.3956 23.2856 42.3482C24.2876 43.276 26.3783 44.2657 27.6649 42.6574C27.8381 42.4224 27.9 42.2492 27.9371 42.1873L27.9247 42.1997ZM28.1227 41.9028C28.1227 41.9028 28.2958 41.7296 28.4319 41.4698C29.3598 39.6389 27.5907 38.142 26.3288 37.6224C26.3288 39.9605 26.4402 41.4451 27.9989 41.9399C28.0732 41.0245 28.0237 39.8245 27.6402 38.9709C28.667 39.7007 28.5433 40.975 28.1227 41.9152V41.9028ZM31.0299 43.7585C31.0051 43.8203 30.968 44.0059 30.8196 44.2533C29.7185 45.9853 27.5288 45.2306 26.4402 44.4265C28.4567 43.2389 29.7804 42.5708 31.0051 43.6471C30.2505 44.1791 29.1989 44.7605 28.2711 44.8595C29.4216 45.3667 30.4608 44.6121 31.0422 43.7708L31.0299 43.7585ZM31.1783 43.4492C31.4876 42.4719 31.4752 41.1976 30.3742 40.5791C30.8567 41.3832 31.0299 42.5708 31.0546 43.4987C29.4587 43.177 29.1866 41.7172 28.9268 39.3915C30.2381 39.775 32.1556 41.0616 31.4381 42.9915C31.3268 43.2636 31.2154 43.3997 31.1783 43.4616V43.4492ZM34.2711 44.9832C33.7762 45.8863 32.836 46.7399 31.636 46.3688C32.5515 46.1708 33.5288 45.4781 34.2216 44.8595C32.8855 43.9193 31.6484 44.7234 29.768 46.1337C30.9433 46.8265 33.2072 47.3337 34.1103 45.4904C34.234 45.2306 34.2587 45.0451 34.2711 44.9832ZM34.3948 44.6616C34.3948 44.6616 34.5309 44.4512 34.6051 44.1667C35.1123 42.175 33.0587 41.111 31.7226 40.8636C32.2422 43.1523 32.6628 44.5626 34.2835 44.711C34.1474 43.7956 33.8505 42.6327 33.2814 41.8904C34.4443 42.3853 34.6051 43.6471 34.3948 44.6616ZM37.636 45.8492C37.636 45.911 37.636 46.0966 37.5371 46.3811C36.8443 48.311 34.5432 48.0512 33.2938 47.4945C35.001 45.8987 36.1515 44.9585 37.5742 45.7378C36.9556 46.4183 36.0525 47.21 35.1618 47.5193C36.3989 47.7543 37.2401 46.8018 37.636 45.8492ZM41.1247 45.9853C41.1123 44.9585 40.6793 43.7585 39.4422 43.5234C40.1597 44.1296 40.7041 45.1935 41.0257 46.0595C39.4051 46.2698 38.6876 44.9708 37.6855 42.8554C39.0463 42.8059 41.2855 43.3997 41.2236 45.4533C41.2113 45.7502 41.1494 45.911 41.1247 45.9853ZM37.7226 45.5028C37.8216 44.476 37.5247 43.2389 36.3123 42.8677C36.9556 43.5482 37.3762 44.6739 37.6113 45.5646C35.9783 45.5894 35.4092 44.2286 34.6422 42.0141C36.003 42.1131 38.1556 42.9543 37.8711 44.9832C37.8216 45.2677 37.735 45.4286 37.7102 45.5028H37.7226Z" fill="url(#paint0_linear_28_242)"/>
<path d="M24.2752 17.0001L25.8216 12.9795L27.368 17.0001L28.902 13.0908H29.6443L27.3804 18.7692L25.834 14.7609L24.2876 18.7692L22.0237 13.0908H22.7659L24.3 17.0001H24.2752Z" fill="white"/>
<path d="M31.8959 15.1937C32.1185 15.2803 32.3041 15.4164 32.4773 15.5772C32.6381 15.738 32.7742 15.936 32.8608 16.1463C32.9474 16.3566 32.9969 16.604 32.9969 16.8514C32.9969 17.0988 32.9474 17.3339 32.8608 17.5566C32.7742 17.7793 32.6381 17.9648 32.4773 18.1257C32.3165 18.2865 32.1185 18.4226 31.8959 18.5092C31.6732 18.5957 31.4381 18.6452 31.1907 18.6452C30.9433 18.6452 30.7082 18.5957 30.4855 18.5092C30.2629 18.4226 30.0649 18.2865 29.9041 18.1257C29.7433 17.9648 29.6072 17.7669 29.5206 17.5566C29.434 17.3463 29.3845 17.0988 29.3845 16.8514C29.3845 16.604 29.434 16.369 29.5206 16.1463C29.6072 15.9236 29.7433 15.738 29.9041 15.5772C30.0649 15.4164 30.2629 15.2803 30.4855 15.1937C30.7082 15.1071 30.9433 15.0576 31.1907 15.0576C31.4381 15.0576 31.6732 15.1071 31.8959 15.1937ZM30.7453 15.7751C30.5969 15.837 30.4732 15.9236 30.3742 16.0349C30.2752 16.1463 30.1886 16.27 30.1268 16.4184C30.0649 16.5669 30.0402 16.7153 30.0402 16.8762C30.0402 17.037 30.0649 17.1854 30.1268 17.3215C30.1886 17.4576 30.2752 17.5937 30.3742 17.705C30.4732 17.8164 30.6093 17.903 30.7453 17.9648C30.8814 18.0267 31.0299 18.0638 31.1907 18.0638C31.3515 18.0638 31.5 18.0391 31.6361 17.9648C31.7721 17.8906 31.8959 17.8164 32.0072 17.705C32.1062 17.5937 32.1928 17.47 32.2546 17.3215C32.3165 17.1731 32.3412 17.0246 32.3412 16.8762C32.3412 16.7277 32.3165 16.5669 32.2546 16.4184C32.1928 16.27 32.1185 16.1463 32.0072 16.0349C31.8959 15.9236 31.7721 15.837 31.6361 15.7751C31.5 15.7133 31.3515 15.6885 31.1907 15.6885C31.0299 15.6885 30.8814 15.7257 30.7453 15.7751Z" fill="white"/>
<path d="M34.4319 15.7133H34.4566C34.5432 15.5153 34.6669 15.3545 34.8277 15.2308C34.9886 15.1195 35.1741 15.0576 35.3844 15.0576C35.57 15.0576 35.7432 15.1071 35.9164 15.2184L35.6195 15.8123C35.5082 15.7257 35.3844 15.6762 35.2236 15.6762C35.0504 15.6762 34.9143 15.7133 34.8154 15.7751C34.704 15.8494 34.6298 15.936 34.5803 16.0473C34.5308 16.1586 34.4937 16.2824 34.469 16.4184C34.4442 16.5545 34.4442 16.703 34.4442 16.8638V18.5339H33.7886V15.1442H34.4442V15.6885L34.4319 15.7133Z" fill="white"/>
<path d="M37.104 18.5462H36.4484V12.2617H37.104V18.5462Z" fill="white"/>
<path d="M40.7041 18.0143H40.6917C40.5556 18.2122 40.3948 18.373 40.1845 18.4844C39.9742 18.5957 39.7639 18.6576 39.5412 18.6576C39.2938 18.6576 39.0587 18.6081 38.8608 18.5091C38.6628 18.4102 38.4896 18.2741 38.3412 18.1009C38.2051 17.9277 38.0938 17.7297 38.0195 17.5194C37.9453 17.3091 37.9082 17.0617 37.9082 16.8143C37.9082 16.5792 37.9453 16.3566 38.0195 16.1462C38.0938 15.9359 38.2051 15.738 38.3412 15.5772C38.4773 15.4164 38.6505 15.2803 38.8484 15.1813C39.0463 15.0823 39.269 15.0328 39.5041 15.0328C39.7391 15.0328 39.9742 15.0947 40.1721 15.206C40.3701 15.3174 40.5432 15.4906 40.6793 15.6885H40.6917V12.2246H41.3474V18.5091H40.6917V17.9772L40.7041 18.0143ZM40.4443 17.7297C40.6422 17.4947 40.7412 17.1978 40.7412 16.8514C40.7412 16.505 40.6422 16.2205 40.4443 15.9854C40.2463 15.7504 39.9742 15.639 39.6402 15.639C39.3061 15.639 39.0587 15.7627 38.8608 15.9978C38.6628 16.2328 38.5639 16.5174 38.5639 16.8514C38.5639 17.1854 38.6628 17.4823 38.8484 17.7174C39.034 17.9524 39.3061 18.0761 39.6278 18.0761C39.9494 18.0761 40.2463 17.9648 40.4319 17.7174L40.4443 17.7297Z" fill="white"/>
<path d="M43.7102 15.9356C43.673 15.849 43.6112 15.7748 43.537 15.7253C43.4627 15.6758 43.3761 15.6387 43.2772 15.6387C43.1782 15.6387 43.104 15.6758 43.0298 15.7377C42.9555 15.7996 42.9184 15.8862 42.9184 15.9728C42.9184 16.0841 42.9679 16.1831 43.0792 16.2573C43.1906 16.3315 43.3514 16.4181 43.5741 16.5171C43.6359 16.5418 43.6854 16.5666 43.7225 16.5789C43.97 16.6903 44.1555 16.814 44.2916 16.9624C44.4277 17.1109 44.5019 17.2965 44.5019 17.5439C44.5019 17.7047 44.4772 17.8532 44.4153 17.9892C44.3535 18.1253 44.2669 18.249 44.1555 18.348C44.0442 18.447 43.9205 18.5336 43.7844 18.5831C43.6483 18.6325 43.4999 18.6697 43.339 18.6697C43.0916 18.6697 42.8566 18.5954 42.6339 18.4593C42.4112 18.3233 42.2627 18.1377 42.1761 17.9026L42.7328 17.6429C42.8071 17.7789 42.8937 17.8903 42.9926 17.9645C43.0916 18.0387 43.2029 18.0758 43.3514 18.0758C43.4999 18.0758 43.6112 18.0264 43.7102 17.9398C43.8091 17.8532 43.8586 17.7295 43.8586 17.5934C43.8586 17.5068 43.8462 17.4325 43.8091 17.3831C43.772 17.3336 43.7102 17.2841 43.6236 17.2222L42.9803 16.8758C42.7576 16.7521 42.5968 16.6408 42.4854 16.5171C42.3741 16.3934 42.3246 16.2325 42.3246 16.0222C42.3246 15.7501 42.4236 15.515 42.6215 15.3295C42.8194 15.1439 43.0545 15.0449 43.3267 15.0449C43.5246 15.0449 43.7102 15.0944 43.871 15.2057C44.0318 15.3171 44.1555 15.4532 44.2545 15.6387L43.7225 15.9233L43.7102 15.9356Z" fill="white"/>
<path d="M49.0546 18.5465H48.3742V13.7094H47.0752V13.0908H50.3535V13.7094H49.0546V18.5465Z" fill="white"/>
<path d="M53.4215 18.5459H52.7658V18.014H52.7535C52.6174 18.2119 52.4566 18.3727 52.2586 18.4841C52.0607 18.5954 51.838 18.6573 51.603 18.6573C51.3555 18.6573 51.1205 18.6078 50.9225 18.5088C50.7246 18.4099 50.5514 18.2738 50.403 18.1006C50.2669 17.9274 50.1555 17.7295 50.0813 17.5068C50.0071 17.2841 49.97 17.049 49.97 16.814C49.97 16.5789 50.0071 16.3563 50.0813 16.1459C50.1555 15.9356 50.2669 15.7377 50.403 15.5769C50.539 15.4161 50.7122 15.28 50.9102 15.181C51.1081 15.082 51.3308 15.0449 51.5658 15.0449C51.8009 15.0449 52.0359 15.1068 52.2339 15.2181C52.4318 15.3295 52.605 15.5027 52.7411 15.7006H52.7535V15.1315H53.4091V18.5212L53.4215 18.5459ZM52.506 17.7295C52.704 17.4944 52.803 17.1975 52.803 16.8511C52.803 16.5047 52.704 16.2202 52.506 15.9851C52.3081 15.7501 52.0359 15.6387 51.7019 15.6387C51.3679 15.6387 51.1205 15.7624 50.9225 15.9975C50.7246 16.2325 50.6256 16.5171 50.6256 16.8511C50.6256 17.1851 50.7246 17.482 50.9102 17.7171C51.0957 17.9521 51.3679 18.0758 51.6896 18.0758C52.0112 18.0758 52.3081 17.9645 52.4937 17.7171L52.506 17.7295Z" fill="white"/>
<path d="M55.0916 18.5462H54.4359V12.2617H55.0916V18.5462Z" fill="white"/>
<path d="M56.836 18.5462H56.1803V12.2617H56.836V18.5462Z" fill="white"/>
<path d="M58.3081 16.9631C58.3081 17.2724 58.4071 17.5322 58.5926 17.7548C58.7782 17.9775 59.0256 18.0889 59.3225 18.0889C59.5576 18.0889 59.7555 18.0394 59.904 17.928C60.0524 17.8167 60.2009 17.6559 60.337 17.4332L60.8937 17.7425C60.7328 18.027 60.5101 18.2621 60.238 18.4229C59.9658 18.5837 59.6565 18.6703 59.3225 18.6703C59.0627 18.6703 58.84 18.6208 58.6297 18.5342C58.4194 18.4476 58.2462 18.3239 58.1102 18.1631C57.9617 18.0023 57.8504 17.8167 57.7761 17.594C57.7019 17.3713 57.6648 17.1363 57.6648 16.8889C57.6648 16.3445 57.8132 15.9115 58.0854 15.5775C58.3699 15.2435 58.7782 15.0703 59.3101 15.0703C59.8421 15.0703 60.2256 15.2435 60.4854 15.5775C60.7576 15.9115 60.8937 16.3445 60.8937 16.8765V16.9755H58.3081V16.9631ZM60.238 16.4682C60.2009 16.2085 60.1019 15.9981 59.9287 15.8497C59.7555 15.7012 59.5576 15.627 59.2978 15.627C59.038 15.627 58.8277 15.7012 58.6545 15.8621C58.4813 16.0229 58.3699 16.2208 58.3328 16.4682H60.2256H60.238Z" fill="white"/>
<path d="M62.9472 15.9356C62.9101 15.849 62.8483 15.7748 62.774 15.7253C62.6998 15.6758 62.6132 15.6387 62.5142 15.6387C62.4153 15.6387 62.341 15.6758 62.2668 15.7377C62.1926 15.7996 62.1555 15.8862 62.1555 15.9728C62.1555 16.0841 62.205 16.1831 62.3163 16.2573C62.4276 16.3315 62.5885 16.4181 62.8111 16.5171C62.873 16.5418 62.9225 16.5666 62.9596 16.5789C63.207 16.6903 63.3926 16.814 63.5287 16.9624C63.6647 17.1109 63.739 17.2965 63.739 17.5439C63.739 17.7047 63.7142 17.8532 63.6524 17.9892C63.5905 18.1253 63.5039 18.249 63.3926 18.348C63.2812 18.447 63.1575 18.5336 63.0214 18.5831C62.8854 18.6325 62.7369 18.6697 62.5761 18.6697C62.3287 18.6697 62.0936 18.5954 61.8709 18.4593C61.6483 18.3233 61.4998 18.1377 61.4132 17.9026L61.9699 17.6429C62.0441 17.7789 62.1307 17.8903 62.2297 17.9645C62.3287 18.0387 62.44 18.0758 62.5885 18.0758C62.7369 18.0758 62.8483 18.0264 62.9472 17.9398C63.0462 17.8532 63.0957 17.7295 63.0957 17.5934C63.0957 17.5068 63.0833 17.4325 63.0462 17.3831C63.0091 17.3336 62.9472 17.2841 62.8606 17.2222L62.2173 16.8758C61.9947 16.7521 61.8338 16.6408 61.7225 16.5171C61.6111 16.3934 61.5617 16.2325 61.5617 16.0222C61.5617 15.7501 61.6606 15.515 61.8586 15.3295C62.0565 15.1439 62.2916 15.0449 62.5637 15.0449C62.7617 15.0449 62.9472 15.0944 63.108 15.2057C63.2689 15.3171 63.3926 15.4532 63.4916 15.6387L62.9596 15.9233L62.9472 15.9356Z" fill="white"/>
<path d="M65.2606 18.5461H64.605V15.7626H64.2462V15.1564H64.605V13.8574H65.2606V15.1564H65.8916V15.7626H65.2606V18.5461Z" fill="white"/>
<path d="M24.7206 25.3746H24.0402V19.9189H24.7206V25.3746Z" fill="white"/>
<path d="M26.4649 22.4434H26.4773C26.5763 22.2702 26.7123 22.1218 26.8979 22.0352C27.0835 21.9362 27.2814 21.8867 27.4917 21.8867C27.7268 21.8867 27.9123 21.9238 28.0732 21.9981C28.234 22.0723 28.3577 22.1713 28.4443 22.3073C28.5309 22.4434 28.6051 22.5919 28.6422 22.7651C28.6793 22.9383 28.6917 23.1362 28.6917 23.3589V25.3754H28.036V23.4331C28.036 23.0991 27.9866 22.8517 27.9 22.7032C27.801 22.5424 27.6031 22.4682 27.2938 22.4682C27.0958 22.4682 26.935 22.5053 26.8237 22.5795C26.7 22.6537 26.6257 22.7651 26.5639 22.8888C26.502 23.0125 26.4773 23.1486 26.4649 23.297C26.4525 23.4455 26.4525 23.6187 26.4525 23.829V25.3877H25.7969V21.9981H26.4525V22.4558L26.4649 22.4434Z" fill="white"/>
<path d="M32.2669 24.8434H32.2546C32.1185 25.0413 31.9577 25.2021 31.7474 25.3135C31.537 25.4248 31.3267 25.4867 31.1041 25.4867C30.8566 25.4867 30.6216 25.4372 30.4236 25.3382C30.2257 25.2393 30.0525 25.1032 29.9041 24.93C29.768 24.7568 29.6566 24.5588 29.5824 24.3485C29.5082 24.1382 29.4711 23.8908 29.4711 23.6434C29.4711 23.4083 29.5082 23.1857 29.5824 22.9753C29.6566 22.765 29.768 22.5671 29.9041 22.4063C30.0401 22.2455 30.2133 22.1094 30.4113 22.0104C30.6092 21.9114 30.8319 21.862 31.0669 21.862C31.302 21.862 31.537 21.9238 31.735 22.0351C31.9329 22.1465 32.1061 22.3197 32.2422 22.5176H32.2546V19.0537H32.9102V25.3382H32.2546V24.8063L32.2669 24.8434ZM32.0195 24.5588C32.2175 24.3238 32.3164 24.0269 32.3164 23.6805C32.3164 23.3341 32.2175 23.0496 32.0195 22.8145C31.8216 22.5795 31.5494 22.4681 31.2154 22.4681C30.8814 22.4681 30.634 22.5918 30.436 22.8269C30.2381 23.0619 30.1391 23.3465 30.1391 23.6805C30.1391 24.0145 30.2381 24.3114 30.4236 24.5465C30.6092 24.7815 30.8814 24.9052 31.203 24.9052C31.5247 24.9052 31.8216 24.7939 32.0071 24.5465L32.0195 24.5588Z" fill="white"/>
<path d="M36.1267 22.0228C36.3494 22.1094 36.5349 22.2455 36.7081 22.4063C36.869 22.5671 37.005 22.7651 37.0916 22.9754C37.1782 23.1857 37.2277 23.4331 37.2277 23.6805C37.2277 23.928 37.1782 24.163 37.0916 24.3857C37.005 24.6084 36.869 24.7939 36.7081 24.9548C36.5473 25.1156 36.3494 25.2517 36.1267 25.3383C35.904 25.4249 35.669 25.4743 35.4215 25.4743C35.1741 25.4743 34.9391 25.4249 34.7164 25.3383C34.4937 25.2517 34.2958 25.1156 34.1349 24.9548C33.9741 24.7939 33.838 24.596 33.7514 24.3857C33.6648 24.1754 33.6154 23.928 33.6154 23.6805C33.6154 23.4331 33.6648 23.1981 33.7514 22.9754C33.838 22.7527 33.9741 22.5671 34.1349 22.4063C34.2958 22.2455 34.4937 22.1094 34.7164 22.0228C34.9391 21.9362 35.1741 21.8867 35.4215 21.8867C35.669 21.8867 35.904 21.9362 36.1267 22.0228ZM34.9762 22.5919C34.8277 22.6537 34.704 22.7403 34.605 22.8517C34.5061 22.963 34.4195 23.0867 34.3576 23.2352C34.2958 23.3836 34.271 23.5321 34.271 23.6929C34.271 23.8537 34.2958 24.0022 34.3576 24.1383C34.4195 24.2743 34.5061 24.4104 34.605 24.5218C34.704 24.6331 34.8401 24.7197 34.9762 24.7816C35.1123 24.8434 35.2607 24.8805 35.4215 24.8805C35.5824 24.8805 35.7308 24.8558 35.8669 24.7816C36.003 24.7073 36.1267 24.6331 36.238 24.5218C36.337 24.4104 36.4236 24.2867 36.4855 24.1383C36.5473 23.9898 36.5721 23.8414 36.5721 23.6929C36.5721 23.5444 36.5473 23.3836 36.4855 23.2352C36.4236 23.0867 36.3494 22.963 36.238 22.8517C36.1267 22.7403 36.003 22.6537 35.8669 22.5919C35.7308 22.53 35.5824 22.5053 35.4215 22.5053C35.2607 22.5053 35.1123 22.5424 34.9762 22.5919Z" fill="white"/>
<path d="M40.1844 22.0228C40.4071 22.1094 40.5927 22.2455 40.7659 22.4063C40.9267 22.5671 41.0628 22.7651 41.1494 22.9754C41.236 23.1857 41.2855 23.4331 41.2855 23.6805C41.2855 23.928 41.236 24.163 41.1494 24.3857C41.0628 24.6084 40.9267 24.7939 40.7659 24.9548C40.605 25.1156 40.4071 25.2517 40.1844 25.3383C39.9617 25.4249 39.7267 25.4743 39.4793 25.4743C39.2319 25.4743 38.9968 25.4249 38.7741 25.3383C38.5514 25.2517 38.3535 25.1156 38.1927 24.9548C38.0319 24.7939 37.8958 24.596 37.8092 24.3857C37.7226 24.1754 37.6731 23.928 37.6731 23.6805C37.6731 23.4331 37.7226 23.1981 37.8092 22.9754C37.8958 22.7527 38.0319 22.5671 38.1927 22.4063C38.3535 22.2455 38.5514 22.1094 38.7741 22.0228C38.9968 21.9362 39.2319 21.8867 39.4793 21.8867C39.7267 21.8867 39.9617 21.9362 40.1844 22.0228ZM39.0339 22.5919C38.8855 22.6537 38.7618 22.7403 38.6628 22.8517C38.5638 22.963 38.4772 23.0867 38.4154 23.2352C38.3535 23.3836 38.3288 23.5321 38.3288 23.6929C38.3288 23.8537 38.3535 24.0022 38.4154 24.1383C38.4772 24.2743 38.5638 24.4104 38.6628 24.5218C38.7618 24.6331 38.8978 24.7197 39.0339 24.7816C39.17 24.8434 39.3185 24.8805 39.4793 24.8805C39.6401 24.8805 39.7886 24.8558 39.9246 24.7816C40.0607 24.7073 40.1844 24.6331 40.2958 24.5218C40.3947 24.4104 40.4813 24.2867 40.5432 24.1383C40.605 23.9898 40.6298 23.8414 40.6298 23.6929C40.6298 23.5444 40.605 23.3836 40.5432 23.2352C40.4813 23.0867 40.4071 22.963 40.2958 22.8517C40.1844 22.7403 40.0607 22.6537 39.9246 22.5919C39.7886 22.53 39.6401 22.5053 39.4793 22.5053C39.3185 22.5053 39.17 22.5424 39.0339 22.5919Z" fill="white"/>
<path d="M42.7206 22.5297H42.7453C42.8319 22.3318 42.9556 22.1709 43.1164 22.0472C43.2773 21.9359 43.4628 21.874 43.6731 21.874C43.8587 21.874 44.0319 21.9235 44.2051 22.0348L43.9082 22.6287C43.7969 22.5421 43.6731 22.4926 43.5123 22.4926C43.3391 22.4926 43.203 22.5297 43.1041 22.5915C42.9927 22.6658 42.9185 22.7524 42.869 22.8637C42.8195 22.975 42.7824 23.0988 42.7577 23.2348C42.7329 23.3709 42.7329 23.5194 42.7329 23.6802V25.3503H42.0773V21.9606H42.7329V22.5049L42.7206 22.5297Z" fill="white"/>
<path d="M50.4154 25.3746H49.5865L47.9782 23.0612H47.6937V25.3746H47.0133V19.9189H47.8422C48.1638 19.9189 48.436 19.9313 48.6587 19.9684C48.8813 20.0055 49.0916 20.0674 49.2896 20.1787C49.5123 20.3025 49.6855 20.488 49.8092 20.7231C49.9329 20.9581 50.0071 21.2055 50.0071 21.4777C50.0071 21.8736 49.8834 22.22 49.6484 22.5045C49.4009 22.789 49.0917 22.9622 48.6958 23.0117L50.4154 25.387V25.3746ZM47.7061 22.5045H47.9288C48.1267 22.5045 48.3123 22.4921 48.4731 22.4674C48.6339 22.4427 48.7824 22.3932 48.9308 22.3189C49.0793 22.2447 49.1782 22.1457 49.2525 22.0097C49.3267 21.8736 49.3762 21.7004 49.3762 21.5024C49.3762 21.3045 49.3267 21.1313 49.2401 20.9952C49.1535 20.8592 49.0422 20.7602 48.8937 20.6983C48.7453 20.6365 48.5968 20.587 48.4236 20.5622C48.2504 20.5375 48.0772 20.5251 47.8793 20.5251H47.6937V22.5045H47.7061Z" fill="white"/>
<path d="M53.2359 22.0228C53.4586 22.1094 53.6442 22.2455 53.8174 22.4063C53.9782 22.5671 54.1143 22.7651 54.2009 22.9754C54.2875 23.1857 54.337 23.4331 54.337 23.6805C54.337 23.928 54.2875 24.163 54.2009 24.3857C54.1143 24.6084 53.9782 24.7939 53.8174 24.9548C53.6566 25.1156 53.4586 25.2517 53.2359 25.3383C53.0133 25.4249 52.7782 25.4743 52.5308 25.4743C52.2834 25.4743 52.0483 25.4249 51.8256 25.3383C51.603 25.2517 51.405 25.1156 51.2442 24.9548C51.0834 24.7939 50.9473 24.596 50.8607 24.3857C50.7741 24.1754 50.7246 23.928 50.7246 23.6805C50.7246 23.4331 50.7741 23.1981 50.8607 22.9754C50.9473 22.7527 51.0834 22.5671 51.2442 22.4063C51.405 22.2455 51.603 22.1094 51.8256 22.0228C52.0483 21.9362 52.2834 21.8867 52.5308 21.8867C52.7782 21.8867 53.0133 21.9362 53.2359 22.0228ZM52.0854 22.5919C51.937 22.6537 51.8133 22.7403 51.7143 22.8517C51.6153 22.963 51.5287 23.0867 51.4669 23.2352C51.405 23.3836 51.3803 23.5321 51.3803 23.6929C51.3803 23.8537 51.405 24.0022 51.4669 24.1383C51.5287 24.2743 51.6153 24.4104 51.7143 24.5218C51.8133 24.6331 51.9493 24.7197 52.0854 24.7816C52.2215 24.8434 52.37 24.8805 52.5308 24.8805C52.6916 24.8805 52.8401 24.8558 52.9761 24.7816C53.1122 24.7073 53.2359 24.6331 53.3473 24.5218C53.4462 24.4104 53.5328 24.2867 53.5947 24.1383C53.6566 23.9898 53.6813 23.8414 53.6813 23.6929C53.6813 23.5444 53.6566 23.3836 53.5947 23.2352C53.5328 23.0867 53.4586 22.963 53.3473 22.8517C53.2359 22.7403 53.1122 22.6537 52.9761 22.5919C52.8401 22.53 52.6916 22.5053 52.5308 22.5053C52.37 22.5053 52.2215 22.5424 52.0854 22.5919Z" fill="white"/>
<path d="M55.7597 25.3753H55.104V19.0908H55.7597V25.3753Z" fill="white"/>
<path d="M57.5164 25.3753H56.8607V19.0908H57.5164V25.3753Z" fill="white"/>
<path d="M58.9762 23.7912C58.9762 24.1005 59.0752 24.3603 59.2607 24.583C59.4463 24.8056 59.6937 24.917 59.9906 24.917C60.2257 24.917 60.4236 24.8675 60.5721 24.7562C60.7205 24.6448 60.869 24.484 61.005 24.2613L61.5617 24.5706C61.4009 24.8551 61.1782 25.0902 60.9061 25.251C60.6339 25.4118 60.3246 25.4984 59.9906 25.4984C59.7308 25.4984 59.5081 25.4489 59.2978 25.3623C59.0875 25.2757 58.9143 25.152 58.7782 24.9912C58.6298 24.8304 58.5185 24.6448 58.4442 24.4221C58.37 24.1995 58.3329 23.9644 58.3329 23.717C58.3329 23.1727 58.4813 22.7397 58.7535 22.4057C59.038 22.0716 59.4463 21.8984 59.9782 21.8984C60.5102 21.8984 60.8937 22.0716 61.1535 22.4057C61.4257 22.7397 61.5617 23.1727 61.5617 23.7046V23.8036H58.9762V23.7912ZM60.9061 23.2964C60.869 23.0366 60.77 22.8263 60.5968 22.6778C60.4236 22.5294 60.2257 22.4551 59.9659 22.4551C59.7061 22.4551 59.4958 22.5294 59.3226 22.6902C59.1494 22.851 59.038 23.049 59.0009 23.2964H60.8937H60.9061Z" fill="white"/>
<path d="M62.9596 22.5297H62.9843C63.0709 22.3318 63.1946 22.1709 63.3555 22.0472C63.5163 21.9359 63.7018 21.874 63.9122 21.874C64.0977 21.874 64.2709 21.9235 64.4441 22.0348L64.1472 22.6287C64.0359 22.5421 63.9122 22.4926 63.7513 22.4926C63.5781 22.4926 63.4421 22.5297 63.3431 22.5915C63.2317 22.6658 63.1575 22.7524 63.108 22.8637C63.0585 22.975 63.0214 23.0988 62.9967 23.2348C62.972 23.3709 62.972 23.5194 62.972 23.6802V25.3503H62.3163V21.9606H62.972V22.5049L62.9596 22.5297Z" fill="white"/>
<path d="M36.3494 27.7752C36.1515 27.602 35.9288 27.4659 35.6814 27.3793C35.4216 27.2927 35.1742 27.2432 34.9144 27.2432C34.6175 27.2432 34.333 27.3051 34.0732 27.4164C33.8134 27.5278 33.5783 27.6886 33.3804 27.8989C33.1824 28.1092 33.034 28.3443 32.9227 28.6164C32.8113 28.8886 32.7618 29.1731 32.7618 29.47C32.7618 29.7669 32.8113 30.0515 32.9227 30.3113C33.034 30.5834 33.1824 30.8185 33.3804 31.0288C33.5783 31.2391 33.801 31.3999 34.0608 31.5113C34.3206 31.6226 34.6051 31.6845 34.902 31.6845C35.1618 31.6845 35.4216 31.635 35.6814 31.536C35.9288 31.437 36.1639 31.3009 36.3618 31.1154V31.9195C36.1515 32.0432 35.9288 32.1298 35.669 32.204C35.4092 32.2659 35.1618 32.303 34.9268 32.303C34.5433 32.303 34.1845 32.2288 33.8381 32.0927C33.4917 31.9442 33.1824 31.7463 32.9227 31.4865C32.6629 31.2267 32.4526 30.9174 32.3041 30.5834C32.1556 30.237 32.0814 29.8783 32.0814 29.4948C32.0814 29.1113 32.1556 28.7278 32.3041 28.3814C32.4526 28.035 32.6629 27.7257 32.935 27.4535C33.2072 27.1814 33.5165 26.9834 33.8629 26.835C34.2216 26.6865 34.5928 26.6123 34.9886 26.6123C35.236 26.6123 35.4711 26.637 35.7185 26.6989C35.9536 26.7608 36.1763 26.8474 36.3742 26.9834V27.7752H36.3494Z" fill="white"/>
<path d="M39.4422 28.8509C39.6649 28.9375 39.8505 29.0736 40.0237 29.2344C40.1845 29.3953 40.3206 29.5932 40.4072 29.8035C40.4938 30.0138 40.5433 30.2612 40.5433 30.5087C40.5433 30.7561 40.4938 30.9911 40.4072 31.2138C40.3206 31.4365 40.1845 31.6221 40.0237 31.7829C39.8629 31.9437 39.6649 32.0798 39.4422 32.1664C39.2196 32.253 38.9845 32.3025 38.7371 32.3025C38.4897 32.3025 38.2546 32.253 38.0319 32.1664C37.8093 32.0798 37.6113 31.9437 37.4505 31.7829C37.2897 31.6221 37.1536 31.4241 37.067 31.2138C36.9804 31.0035 36.9309 30.7561 36.9309 30.5087C36.9309 30.2612 36.9804 30.0262 37.067 29.8035C37.1536 29.5808 37.2897 29.3953 37.4505 29.2344C37.6113 29.0736 37.8093 28.9375 38.0319 28.8509C38.2546 28.7643 38.4897 28.7148 38.7371 28.7148C38.9845 28.7148 39.2196 28.7643 39.4422 28.8509ZM38.2917 29.42C38.1433 29.4819 38.0196 29.5685 37.9206 29.6798C37.8216 29.7911 37.735 29.9148 37.6732 30.0633C37.6113 30.2117 37.5866 30.3602 37.5866 30.521C37.5866 30.6819 37.6113 30.8303 37.6732 30.9664C37.735 31.1025 37.8216 31.2385 37.9206 31.3499C38.0196 31.4612 38.1556 31.5478 38.2917 31.6097C38.4278 31.6715 38.5763 31.7087 38.7371 31.7087C38.8979 31.7087 39.0464 31.6839 39.1824 31.6097C39.3185 31.5355 39.4422 31.4612 39.5536 31.3499C39.6526 31.2385 39.7391 31.1148 39.801 30.9664C39.8629 30.8179 39.8876 30.6695 39.8876 30.521C39.8876 30.3726 39.8629 30.2117 39.801 30.0633C39.7391 29.9148 39.6649 29.7911 39.5536 29.6798C39.4422 29.5685 39.3185 29.4819 39.1824 29.42C39.0464 29.3581 38.8979 29.3334 38.7371 29.3334C38.5763 29.3334 38.4278 29.3705 38.2917 29.42Z" fill="white"/>
<path d="M44.4648 32.2041H43.8092V31.6722H43.7968C43.6607 31.8701 43.4999 32.0309 43.302 32.1423C43.104 32.2536 42.8813 32.3155 42.6463 32.3155C42.3989 32.3155 42.1638 32.266 41.9659 32.167C41.7679 32.0681 41.5947 31.932 41.4463 31.7588C41.3102 31.5856 41.1989 31.3876 41.1246 31.165C41.0504 30.9423 41.0133 30.7072 41.0133 30.4722C41.0133 30.2371 41.0504 30.0145 41.1246 29.8042C41.1989 29.5938 41.3102 29.3959 41.4463 29.2351C41.5824 29.0743 41.7556 28.9382 41.9535 28.8392C42.1514 28.7402 42.3741 28.7031 42.6092 28.7031C42.8442 28.7031 43.0793 28.765 43.2772 28.8763C43.4752 28.9877 43.6484 29.1609 43.7844 29.3588H43.7968V28.7897H44.4525V32.1794L44.4648 32.2041ZM43.5618 31.3753C43.7597 31.1402 43.8587 30.8433 43.8587 30.4969C43.8587 30.1505 43.7597 29.866 43.5618 29.631C43.3638 29.3959 43.0917 29.2846 42.7576 29.2846C42.4236 29.2846 42.1762 29.4083 41.9783 29.6433C41.7803 29.8784 41.6813 30.1629 41.6813 30.4969C41.6813 30.831 41.7803 31.1279 41.9659 31.3629C42.1514 31.598 42.4236 31.7217 42.7453 31.7217C43.0669 31.7217 43.3638 31.6103 43.5494 31.3629L43.5618 31.3753Z" fill="white"/>
<path d="M46.8277 29.5811C46.7906 29.4946 46.7287 29.4203 46.6545 29.3708C46.5803 29.3214 46.4937 29.2842 46.3947 29.2842C46.2958 29.2842 46.2215 29.3214 46.1473 29.3832C46.0731 29.4451 46.036 29.5317 46.036 29.6183C46.036 29.7296 46.0855 29.8286 46.1968 29.9028C46.3081 29.977 46.469 30.0636 46.6916 30.1626C46.7535 30.1873 46.803 30.2121 46.8401 30.2244C47.0875 30.3358 47.2731 30.4595 47.4092 30.608C47.5452 30.7564 47.6195 30.942 47.6195 31.1894C47.6195 31.3502 47.5947 31.4987 47.5329 31.6348C47.471 31.7708 47.3844 31.8945 47.2731 31.9935C47.1617 32.0925 47.038 32.1791 46.9019 32.2286C46.7659 32.278 46.6174 32.3152 46.4566 32.3152C46.2092 32.3152 45.9741 32.2409 45.7514 32.1049C45.5288 31.9688 45.3803 31.7832 45.2937 31.5482L45.8504 31.2884C45.9246 31.4244 46.0112 31.5358 46.1102 31.61C46.2092 31.6842 46.3205 31.7213 46.469 31.7213C46.6174 31.7213 46.7287 31.6719 46.8277 31.5853C46.9267 31.4987 46.9762 31.375 46.9762 31.2389C46.9762 31.1523 46.9638 31.0781 46.9267 31.0286C46.8896 30.9791 46.8277 30.9296 46.7411 30.8677L46.0978 30.5214C45.8751 30.3976 45.7143 30.2863 45.603 30.1626C45.4916 30.0389 45.4422 29.8781 45.4422 29.6677C45.4422 29.3956 45.5411 29.1605 45.7391 28.975C45.937 28.7894 46.172 28.6904 46.4442 28.6904C46.6422 28.6904 46.8277 28.7399 46.9885 28.8513C47.1494 28.9626 47.2731 29.0987 47.372 29.2842L46.8401 29.5688L46.8277 29.5811Z" fill="white"/>
<path d="M49.1288 32.2043H48.4731V29.4208H48.1144V28.8146H48.4731V27.5156H49.1288V28.8146H49.7597V29.4208H49.1288V32.2043Z" fill="white"/>
<path d="M50.6628 30.6076C50.6628 30.9169 50.7618 31.1767 50.9474 31.3994C51.1329 31.6221 51.3804 31.7334 51.6773 31.7334C51.9123 31.7334 52.1102 31.6839 52.2587 31.5726C52.4071 31.4612 52.5556 31.3004 52.6917 31.0777L53.2484 31.387C53.0876 31.6715 52.8649 31.9066 52.5927 32.0674C52.3206 32.2282 52.0113 32.3148 51.6773 32.3148C51.4175 32.3148 51.1948 32.2654 50.9845 32.1788C50.7742 32.0922 50.601 31.9684 50.4649 31.8076C50.3164 31.6468 50.2051 31.4612 50.1309 31.2385C50.0566 31.0159 50.0195 30.7808 50.0195 30.5334C50.0195 29.9891 50.168 29.5561 50.4401 29.2221C50.7247 28.888 51.1329 28.7148 51.6649 28.7148C52.1968 28.7148 52.5803 28.888 52.8401 29.2221C53.1123 29.5561 53.2484 29.9891 53.2484 30.521V30.62H50.6628V30.6076ZM52.5927 30.1251C52.5556 29.8654 52.4566 29.655 52.2834 29.5066C52.1102 29.3581 51.9123 29.2839 51.6525 29.2839C51.3927 29.2839 51.1824 29.3581 51.0092 29.519C50.836 29.6798 50.7247 29.8777 50.6876 30.1251H52.5803H52.5927Z" fill="white"/>
<path d="M54.6462 29.3588H54.671C54.7576 29.1609 54.8813 29 55.0421 28.8763C55.2029 28.765 55.3885 28.7031 55.5988 28.7031C55.7844 28.7031 55.9576 28.7526 56.1308 28.864L55.8339 29.4578C55.7225 29.3712 55.5988 29.3217 55.438 29.3217C55.2648 29.3217 55.1287 29.3588 55.0297 29.4206C54.9184 29.4949 54.8442 29.5815 54.7947 29.6928C54.7452 29.8042 54.7081 29.9279 54.6833 30.0639C54.6586 30.2 54.6586 30.3485 54.6586 30.5093V32.1794H54.0029V28.7897H54.6586V29.334L54.6462 29.3588Z" fill="white"/>
<path d="M13.4752 54.8555V56.5256H15.0835V56.7235H13.4752V58.3936H15.2443V58.6039H13.2155V54.6328H15.2443V54.8431H13.4752V54.8555Z" fill="white"/>
<path d="M18.3 55.7097C18.5226 55.8334 18.6958 56.0189 18.8196 56.254C18.9433 56.489 19.0051 56.7736 19.0051 57.0828C19.0051 57.3921 18.9433 57.6767 18.8196 57.9241C18.6958 58.1715 18.5226 58.3447 18.3 58.4684C18.0773 58.5921 17.8299 58.654 17.5453 58.654C17.2113 58.654 16.9391 58.5674 16.7041 58.3942C16.469 58.221 16.3206 57.9859 16.234 57.7014V60.0519H15.9866V55.5488H16.234V56.4643C16.3206 56.1798 16.469 55.9447 16.7041 55.7715C16.9391 55.5983 17.2113 55.5117 17.5453 55.5117C17.8299 55.5117 18.0773 55.5736 18.3 55.6973V55.7097ZM16.8402 55.9076C16.6546 56.0189 16.4938 56.1798 16.3948 56.3777C16.2958 56.5756 16.234 56.8107 16.234 57.0828C16.234 57.355 16.2835 57.5901 16.3948 57.788C16.5062 57.9983 16.6546 58.1468 16.8402 58.2581C17.0381 58.3694 17.2484 58.4189 17.4835 58.4189C17.867 58.4189 18.1763 58.2952 18.3989 58.0602C18.6216 57.8251 18.7453 57.4911 18.7453 57.0705C18.7453 56.6499 18.634 56.3282 18.3989 56.0932C18.1639 55.8581 17.867 55.7344 17.4835 55.7344C17.2484 55.7344 17.0257 55.7839 16.8402 55.8952V55.9076Z" fill="white"/>
<path d="M19.7351 54.4847C19.7351 54.4847 19.8217 54.4229 19.8835 54.4229C19.9454 54.4229 19.9949 54.4476 20.0443 54.4847C20.0815 54.5218 20.1062 54.5713 20.1062 54.6332C20.1062 54.695 20.0815 54.7445 20.0443 54.794C20.0072 54.8311 19.9454 54.8558 19.8835 54.8558C19.8217 54.8558 19.7722 54.8311 19.7351 54.794C19.698 54.7569 19.6732 54.7074 19.6732 54.6332C19.6732 54.5713 19.698 54.5218 19.7351 54.4847ZM20.0196 55.561V58.6166H19.7598V55.561H20.0196Z" fill="white"/>
<path d="M24.3247 59.4331L23.3227 58.5672C23.1247 58.629 22.9144 58.6661 22.7041 58.6661C22.3453 58.6661 22.0113 58.5795 21.7268 58.4063C21.4422 58.2331 21.2072 57.9981 21.0464 57.6888C20.8855 57.3795 20.799 57.0331 20.799 56.6373C20.799 56.2414 20.8855 55.895 21.0464 55.5857C21.2072 55.2764 21.4422 55.0414 21.7268 54.8682C22.0237 54.695 22.3453 54.6084 22.7041 54.6084C23.0629 54.6084 23.3969 54.695 23.6814 54.8682C23.9783 55.0414 24.201 55.2764 24.3618 55.5857C24.5226 55.895 24.6092 56.2414 24.6092 56.6373C24.6092 57.0579 24.5103 57.4414 24.3247 57.763C24.1391 58.0847 23.867 58.3321 23.5453 58.4805L24.6835 59.4331H24.3247ZM21.2691 57.5775C21.4175 57.8496 21.6154 58.0599 21.8629 58.196C22.1103 58.3445 22.3948 58.4187 22.7041 58.4187C23.0134 58.4187 23.2979 58.3445 23.5453 58.196C23.7928 58.0476 23.9907 57.8373 24.1391 57.5775C24.2876 57.3177 24.3618 56.996 24.3618 56.6249C24.3618 56.2538 24.2876 55.9445 24.1391 55.6847C23.9907 55.4125 23.7928 55.2022 23.5453 55.0538C23.2979 54.9053 23.0134 54.8311 22.7041 54.8311C22.3948 54.8311 22.1103 54.9053 21.8629 55.0538C21.6154 55.2022 21.4175 55.4125 21.2691 55.6847C21.1206 55.9569 21.0464 56.2661 21.0464 56.6249C21.0464 56.9836 21.1206 57.3053 21.2691 57.5775Z" fill="white"/>
<path d="M29.8299 54.9421C30.1391 55.1648 30.3618 55.4741 30.4979 55.8699H30.2381C30.1268 55.5607 29.9412 55.3132 29.669 55.1277C29.3969 54.9421 29.0752 54.8431 28.6794 54.8431C28.3825 54.8431 28.1103 54.9174 27.8629 55.0534C27.6154 55.2019 27.4299 55.4122 27.2938 55.672C27.1577 55.9442 27.0835 56.2658 27.0835 56.6246C27.0835 56.9833 27.1577 57.305 27.2938 57.5771C27.4299 57.8493 27.6278 58.0596 27.8629 58.1957C28.1103 58.3441 28.3825 58.4184 28.6794 58.4184C29.0752 58.4184 29.4093 58.3194 29.669 58.1338C29.9288 57.9483 30.1268 57.7008 30.2381 57.4039H30.4979C30.3618 57.7998 30.1391 58.0967 29.8299 58.3194C29.5206 58.5421 29.1371 58.6534 28.667 58.6534C28.3082 58.6534 27.9866 58.5668 27.702 58.3936C27.4175 58.2204 27.1948 57.9854 27.034 57.6761C26.8732 57.3668 26.799 57.0204 26.799 56.6246C26.799 56.2287 26.8732 55.8823 27.034 55.573C27.1948 55.2637 27.4175 55.0287 27.702 54.8555C27.9866 54.6823 28.3082 54.5957 28.667 54.5957C29.1371 54.5957 29.5206 54.707 29.8299 54.9297V54.9421Z" fill="white"/>
<path d="M33.4051 55.709C33.6402 55.8327 33.8134 56.0183 33.9494 56.2533C34.0731 56.4884 34.1474 56.7729 34.1474 57.0822C34.1474 57.3915 34.0855 57.6884 33.9494 57.9234C33.8134 58.1585 33.6402 58.3441 33.4051 58.4678C33.1824 58.5915 32.9226 58.6533 32.6257 58.6533C32.3288 58.6533 32.0814 58.5915 31.8587 58.4678C31.6237 58.3441 31.4505 58.1585 31.3144 57.9234C31.1783 57.6884 31.1165 57.4038 31.1165 57.0822C31.1165 56.7605 31.1783 56.4884 31.3144 56.2533C31.4505 56.0183 31.6237 55.8327 31.8587 55.709C32.0814 55.5853 32.3412 55.5234 32.6257 55.5234C32.9103 55.5234 33.1701 55.5853 33.4051 55.709ZM32.0072 55.8822C31.8216 55.9812 31.6608 56.1296 31.5494 56.3276C31.4381 56.5255 31.3763 56.7729 31.3763 57.0698C31.3763 57.3667 31.4381 57.6142 31.5494 57.8245C31.6608 58.0224 31.8216 58.1832 32.0072 58.2698C32.1927 58.3564 32.4031 58.4183 32.6257 58.4183C32.8484 58.4183 33.0463 58.3688 33.2443 58.2698C33.4422 58.1709 33.5907 58.0224 33.702 57.8245C33.8134 57.6265 33.8752 57.3667 33.8752 57.0698C33.8752 56.7729 33.8134 56.5255 33.702 56.3276C33.5907 56.1296 33.4299 55.9812 33.2443 55.8822C33.0587 55.7832 32.8484 55.7338 32.6257 55.7338C32.4031 55.7338 32.1927 55.7832 32.0072 55.8822Z" fill="white"/>
<path d="M37.0669 55.7832C37.3019 55.9564 37.4504 56.1915 37.537 56.476V55.5606H37.7968V58.6162H37.537V57.7008C37.4504 57.9853 37.3019 58.2203 37.0669 58.3935C36.8442 58.5667 36.5597 58.6533 36.2257 58.6533C35.9411 58.6533 35.6813 58.5915 35.471 58.4678C35.2483 58.3441 35.0751 58.1585 34.9514 57.9234C34.8277 57.6884 34.7659 57.4038 34.7659 57.0822C34.7659 56.7605 34.8277 56.4884 34.9514 56.2533C35.0751 56.0183 35.2483 55.8327 35.471 55.709C35.6937 55.5853 35.9411 55.5234 36.2257 55.5234C36.5597 55.5234 36.8442 55.61 37.0669 55.7832ZM35.3597 56.1049C35.137 56.3399 35.0133 56.674 35.0133 57.0822C35.0133 57.4904 35.1246 57.8245 35.3473 58.0719C35.57 58.3193 35.8793 58.4307 36.2628 58.4307C36.4978 58.4307 36.7205 58.3812 36.9061 58.2698C37.0916 58.1585 37.2525 57.9977 37.3514 57.7997C37.4628 57.5894 37.5123 57.3544 37.5123 57.0946C37.5123 56.8348 37.4628 56.5874 37.3514 56.3894C37.2401 56.1915 37.0916 56.0307 36.9061 55.9193C36.7081 55.808 36.4978 55.7585 36.2628 55.7585C35.8793 55.7585 35.57 55.8822 35.3473 56.1173L35.3597 56.1049Z" fill="white"/>
<path d="M40.3329 55.7715C40.5309 55.9447 40.6422 56.1798 40.6793 56.4767H40.4319C40.4072 56.254 40.3206 56.0808 40.1721 55.9323C40.0237 55.7839 39.8134 55.722 39.5536 55.722C39.3185 55.722 39.1453 55.7715 39.0216 55.8952C38.8855 56.0066 38.8237 56.155 38.8237 56.3406C38.8237 56.4767 38.8608 56.588 38.935 56.6746C39.0092 56.7612 39.1082 56.8231 39.2196 56.8602C39.3309 56.8973 39.4793 56.9468 39.6897 56.9962C39.9123 57.0457 40.0855 57.0952 40.2216 57.1447C40.3577 57.1942 40.469 57.2808 40.568 57.3921C40.667 57.5035 40.7041 57.6643 40.7041 57.8499C40.7041 58.0849 40.6175 58.2828 40.4443 58.4313C40.2711 58.5798 40.0484 58.654 39.7639 58.654C39.4299 58.654 39.1453 58.5674 38.935 58.3942C38.7247 58.221 38.5886 57.9859 38.5515 57.689H38.8113C38.836 57.9117 38.9226 58.0849 39.0958 58.2334C39.2567 58.3818 39.4917 58.4437 39.7762 58.4437C39.9989 58.4437 40.1598 58.3818 40.2835 58.2705C40.4072 58.1591 40.469 58.0107 40.469 57.8251C40.469 57.6767 40.4319 57.5653 40.3453 57.4787C40.2587 57.3921 40.1721 57.3303 40.0484 57.2808C39.9247 57.2313 39.7762 57.1942 39.5783 57.1571C39.3556 57.1076 39.1824 57.0581 39.0464 56.9962C38.9103 56.9468 38.8113 56.8725 38.7123 56.7612C38.6257 56.6499 38.5763 56.5138 38.5763 56.3282C38.5763 56.0808 38.6629 55.8829 38.836 55.7344C39.0092 55.5859 39.2443 55.5117 39.5412 55.5117C39.8628 55.5117 40.1226 55.5983 40.3082 55.7715H40.3329Z" fill="white"/>
<path d="M41.8669 55.784V57.751C41.8669 57.9984 41.904 58.1592 41.9906 58.2458C42.0772 58.3324 42.2257 58.3819 42.4483 58.3819H42.77V58.6169H42.4236C42.1391 58.6169 41.9411 58.5551 41.805 58.419C41.669 58.2829 41.6071 58.0602 41.6071 57.751V55.784H41.1246V55.5489H41.6071V54.7695H41.8669V55.5489H42.77V55.784H41.8669Z" fill="white"/>
<path d="M45.5659 58.208C45.7762 58.0471 45.8999 57.8368 45.9494 57.5647H46.2092C46.1473 57.8863 45.9989 58.1585 45.7514 58.3564C45.504 58.5544 45.1824 58.6533 44.7989 58.6533C44.5143 58.6533 44.2545 58.5915 44.0319 58.4678C43.8092 58.3441 43.636 58.1585 43.4999 57.9234C43.3638 57.6884 43.3143 57.4038 43.3143 57.0822C43.3143 56.7605 43.3762 56.4884 43.4999 56.2533C43.6236 56.0183 43.8092 55.8327 44.0319 55.709C44.2545 55.5853 44.5143 55.5234 44.7989 55.5234C45.0834 55.5234 45.3556 55.5853 45.5659 55.709C45.7762 55.8327 45.9494 56.0059 46.0607 56.2039C46.1721 56.4142 46.2215 56.6245 46.2215 56.8595C46.2215 56.9585 46.2215 57.0575 46.1968 57.1564H43.5618C43.5618 57.441 43.6236 57.676 43.7349 57.8739C43.8463 58.0719 43.9947 58.208 44.1803 58.3069C44.3659 58.4059 44.5638 58.443 44.7865 58.443C45.0958 58.443 45.3556 58.3688 45.5659 58.208ZM44.1803 55.8698C43.9947 55.9688 43.8463 56.1049 43.7349 56.3028C43.6236 56.5008 43.5618 56.7358 43.5618 57.008H45.9741C45.9865 56.7234 45.937 56.4884 45.838 56.2904C45.7391 56.0925 45.5782 55.9564 45.3927 55.8575C45.2071 55.7709 45.0092 55.7214 44.7989 55.7214C44.5886 55.7214 44.3782 55.7709 44.1927 55.8575L44.1803 55.8698Z" fill="white"/>
<path d="M47.6566 55.6846C47.8545 55.5609 48.1143 55.499 48.4236 55.499V55.7712H48.337C48.0277 55.7712 47.7679 55.8578 47.5576 56.031C47.3473 56.2042 47.2483 56.4887 47.2483 56.8722V58.6165H46.9885V55.5609H47.2483V56.2413C47.3225 56.0062 47.471 55.8207 47.6689 55.697L47.6566 55.6846Z" fill="white"/>
<path d="M52.6916 55.7832C52.9267 55.9564 53.0752 56.1915 53.1618 56.476V55.5606H53.4215V58.6162H53.1618V57.7008C53.0752 57.9853 52.9267 58.2203 52.6916 58.3935C52.469 58.5667 52.1844 58.6533 51.8504 58.6533C51.5659 58.6533 51.3061 58.5915 51.0958 58.4678C50.8731 58.3441 50.6999 58.1585 50.5762 57.9234C50.4525 57.6884 50.3906 57.4038 50.3906 57.0822C50.3906 56.7605 50.4525 56.4884 50.5762 56.2533C50.6999 56.0183 50.8731 55.8327 51.0958 55.709C51.3185 55.5853 51.5659 55.5234 51.8504 55.5234C52.1844 55.5234 52.469 55.61 52.6916 55.7832ZM50.9844 56.1049C50.7618 56.3399 50.638 56.674 50.638 57.0822C50.638 57.4904 50.7494 57.8245 50.9721 58.0719C51.1947 58.3193 51.504 58.4307 51.8875 58.4307C52.1226 58.4307 52.3453 58.3812 52.5308 58.2698C52.7164 58.1585 52.8772 57.9977 52.9762 57.7997C53.0875 57.5894 53.137 57.3544 53.137 57.0946C53.137 56.8348 53.0875 56.5874 52.9762 56.3894C52.8648 56.1915 52.7164 56.0307 52.5308 55.9193C52.3329 55.808 52.1226 55.7585 51.8875 55.7585C51.504 55.7585 51.1947 55.8822 50.9721 56.1173L50.9844 56.1049Z" fill="white"/>
<path d="M54.7081 55.784V57.751C54.7081 57.9984 54.7452 58.1592 54.8318 58.2458C54.9184 58.3324 55.0668 58.3819 55.2895 58.3819H55.6112V58.6169H55.2648C54.9802 58.6169 54.7823 58.5551 54.6462 58.419C54.5101 58.2829 54.4483 58.0602 54.4483 57.751V55.784H53.9658V55.5489H54.4483V54.7695H54.7081V55.5489H55.6112V55.784H54.7081Z" fill="white"/>
<path d="M60.5596 59.3094L60.0401 58.6043C59.8916 58.629 59.7431 58.6538 59.6071 58.6538C59.2359 58.6538 58.9019 58.5671 58.5926 58.394C58.2834 58.2208 58.0483 57.9733 57.8627 57.6641C57.6895 57.3548 57.5906 56.996 57.5906 56.6125C57.5906 56.229 57.6772 55.8703 57.8627 55.561C58.0359 55.2517 58.2834 55.0043 58.5926 54.8311C58.9019 54.6579 59.2359 54.5713 59.6071 54.5713C59.9782 54.5713 60.3246 54.6579 60.6339 54.8311C60.9431 55.0043 61.1782 55.2517 61.3514 55.561C61.5246 55.8703 61.6112 56.2166 61.6112 56.6125C61.6112 56.9589 61.537 57.2806 61.4009 57.5651C61.2648 57.8496 61.0669 58.0847 60.8194 58.2702L61.7102 59.3218H60.5596V59.3094ZM58.8524 57.4414C59.038 57.6517 59.2854 57.7507 59.6071 57.7507C59.9287 57.7507 60.1638 57.6517 60.3617 57.4414C60.5473 57.2311 60.6462 56.9589 60.6462 56.6125C60.6462 56.2661 60.5473 55.9816 60.3617 55.7837C60.1761 55.5857 59.9287 55.4744 59.6071 55.4744C59.2854 55.4744 59.038 55.5734 58.8524 55.7837C58.6669 55.994 58.5679 56.2661 58.5679 56.6249C58.5679 56.9836 58.6669 57.2558 58.8524 57.4538V57.4414Z" fill="white"/>
<path d="M65.2855 55.4743V58.6165H64.3205V58.0475C64.2339 58.233 64.0978 58.3815 63.9123 58.4928C63.7267 58.6042 63.5288 58.6537 63.2937 58.6537C62.9349 58.6537 62.6504 58.5299 62.4277 58.2949C62.2174 58.0598 62.1061 57.7258 62.1061 57.3052V55.4743H63.0587V57.1815C63.0587 57.3918 63.1081 57.565 63.2195 57.6763C63.3308 57.8001 63.4793 57.8495 63.6648 57.8495C63.8504 57.8495 64.0112 57.7877 64.1226 57.664C64.2339 57.5403 64.2958 57.3671 64.2958 57.132V55.4619H65.2607L65.2855 55.4743Z" fill="white"/>
<path d="M68.9101 57.2186H66.7328C66.7328 57.4537 66.807 57.6269 66.9183 57.7258C67.0297 57.8248 67.1657 57.8866 67.3389 57.8866C67.4874 57.8866 67.5987 57.8495 67.6977 57.7753C67.7967 57.7011 67.8585 57.6145 67.8833 57.5031H68.8977C68.8606 57.7258 68.7616 57.9238 68.6255 58.097C68.4895 58.2702 68.3163 58.4062 68.0936 58.5052C67.8709 58.6042 67.6359 58.6537 67.3761 58.6537C67.0668 58.6537 66.7946 58.5918 66.5596 58.4557C66.3245 58.3196 66.139 58.1341 66.0029 57.899C65.8668 57.664 65.8049 57.3671 65.8049 57.0454C65.8049 56.7238 65.8668 56.4269 66.0029 56.1794C66.139 55.932 66.3245 55.7464 66.5596 55.6227C66.7946 55.4867 67.0792 55.4248 67.3884 55.4248C67.6977 55.4248 67.9699 55.4867 68.2173 55.6104C68.4524 55.7341 68.6379 55.9196 68.7616 56.1547C68.8977 56.3897 68.9596 56.6495 68.9596 56.9464C68.9596 57.0207 68.9596 57.1073 68.9348 57.2062L68.9101 57.2186ZM67.7967 56.3526C67.6853 56.2537 67.5369 56.1918 67.3761 56.1918C67.2029 56.1918 67.0544 56.2413 66.9307 56.3526C66.8194 56.4516 66.7451 56.6124 66.7328 56.8104H67.9575C67.9575 56.6001 67.908 56.4516 67.7967 56.3403V56.3526Z" fill="white"/>
<path d="M71.5452 55.7341C71.7802 55.932 71.9287 56.1918 71.9906 56.5258H71.0875C71.0627 56.4021 71.0009 56.3031 70.9143 56.2289C70.8277 56.1547 70.704 56.1176 70.5679 56.1176C70.4565 56.1176 70.3823 56.1423 70.3205 56.1918C70.271 56.2413 70.2339 56.3031 70.2339 56.3897C70.2339 56.4887 70.2834 56.5629 70.3823 56.6124C70.4813 56.6619 70.6421 56.7114 70.8648 56.7609C71.0998 56.8227 71.2978 56.8722 71.4586 56.9341C71.6071 56.9959 71.7431 57.0825 71.8545 57.2186C71.9658 57.3547 72.0277 57.5279 72.0277 57.7506C72.0277 57.9361 71.9782 58.0846 71.8792 58.233C71.7803 58.3691 71.6442 58.4805 71.4586 58.5547C71.273 58.6289 71.0504 58.6784 70.8029 58.6784C70.3823 58.6784 70.0359 58.5794 69.7761 58.3939C69.5163 58.2083 69.3679 57.9361 69.306 57.5897H70.2339C70.2462 57.7258 70.3081 57.8248 70.4071 57.899C70.506 57.9732 70.6297 58.0104 70.7906 58.0104C70.9019 58.0104 70.9761 57.9856 71.038 57.9361C71.0998 57.8866 71.1246 57.8124 71.1246 57.7382C71.1246 57.6269 71.0751 57.5526 70.9761 57.5031C70.8772 57.4537 70.704 57.4042 70.4689 57.3547C70.2339 57.3052 70.0483 57.2557 69.8998 57.1939C69.7514 57.1444 69.6153 57.0454 69.5163 56.9217C69.405 56.798 69.3555 56.6248 69.3555 56.4021C69.3555 56.1176 69.4668 55.8949 69.6772 55.7217C69.8875 55.5485 70.1967 55.4619 70.5803 55.4619C70.9638 55.4619 71.2978 55.5609 71.5328 55.7588L71.5452 55.7341Z" fill="white"/>
<path d="M74.3534 57.7874V58.6163H73.9204C73.5493 58.6163 73.2648 58.5297 73.0668 58.3441C72.8565 58.1586 72.7575 57.8617 72.7575 57.441V56.2905H72.3369V55.474H72.7575V54.707H73.7225V55.474H74.3534V56.2905H73.7225V57.4658C73.7225 57.5895 73.7472 57.6761 73.7967 57.7256C73.8462 57.7751 73.9328 57.7998 74.0565 57.7998H74.3658L74.3534 57.7874Z" fill="white"/>
<defs>
<linearGradient id="paint0_linear_28_242" x1="43.7845" y1="38.8843" x2="43.7845" y2="11.3338" gradientUnits="userSpaceOnUse">
<stop stop-color="#F4C761"/>
<stop offset="0.28" stop-color="#A97F2C"/>
<stop offset="0.41" stop-color="#6D4C1E"/>
<stop offset="0.47" stop-color="#A97F2C"/>
<stop offset="0.53" stop-color="#F8F1DE"/>
<stop offset="0.86" stop-color="#F3E3C2"/>
<stop offset="1" stop-color="#D0AB5B"/>
</linearGradient>
</defs>
</svg>
