<svg width="20" height="20" viewBox="0 0 20 20" fill="none" xmlns="http://www.w3.org/2000/svg">
<g clip-path="url(#clip0_64_32)">
<path d="M14.9219 15.3906C14.8568 15.3386 14.7852 15.3028 14.707 15.2832C14.6289 15.2637 14.5508 15.2539 14.4727 15.2539C14.8763 14.8633 15.2409 14.4336 15.5664 13.9649C15.8919 13.4961 16.1686 12.9981 16.3965 12.4707C16.6243 11.9434 16.8034 11.3932 16.9336 10.8203C17.0508 10.2344 17.1094 9.64194 17.1094 9.04299C17.1094 7.84507 16.888 6.72528 16.4453 5.68361C15.9896 4.64194 15.3743 3.73049 14.5996 2.94924C13.8249 2.16799 12.9167 1.5495 11.875 1.09377C10.8464 0.638039 9.73958 0.410173 8.55469 0.410173C7.36979 0.410173 6.25651 0.638039 5.21484 1.09377C4.1862 1.5495 3.28451 2.16799 2.50977 2.94924C1.73503 3.73049 1.11979 4.64194 0.664062 5.68361C0.221354 6.72528 0 7.84507 0 9.04299C0 10.2279 0.221354 11.3412 0.664062 12.3828C1.11979 13.4245 1.73503 14.336 2.50977 15.1172C3.28451 15.8985 4.1862 16.5169 5.21484 16.9727C6.25651 17.4284 7.36979 17.6563 8.55469 17.6563C9.54427 17.6563 10.4883 17.4935 11.3867 17.168C12.2852 16.8425 13.099 16.3867 13.8281 15.8008C13.8151 15.8919 13.8151 15.9798 13.8281 16.0645C13.8411 16.1491 13.8672 16.2305 13.9062 16.3086C13.9062 16.3086 14.0365 16.5235 14.2969 16.9531C14.5443 17.3698 14.86 17.8353 15.2441 18.3496C15.6283 18.864 16.0417 19.336 16.4844 19.7656C16.9271 20.1953 17.3372 20.4102 17.7148 20.4102C17.9102 20.4232 18.099 20.3483 18.2812 20.1856C18.4635 20.0228 18.5547 19.8438 18.5547 19.6485C18.5547 19.2839 18.3659 18.8542 17.9883 18.3594C17.6107 17.8646 17.194 17.3991 16.7383 16.9629C16.2826 16.5267 15.8659 16.1524 15.4883 15.8399C15.1107 15.5404 14.9219 15.3906 14.9219 15.3906ZM8.55469 16.211C7.5651 16.211 6.64062 16.0222 5.78125 15.6445C4.90885 15.2669 4.15039 14.7526 3.50586 14.1016C2.86133 13.4505 2.35026 12.6953 1.97266 11.836C1.60807 10.9636 1.42578 10.0326 1.42578 9.04299C1.42578 8.0534 1.60807 7.12241 1.97266 6.25002C2.35026 5.37762 2.86133 4.6159 3.50586 3.96486C4.15039 3.31382 4.90885 2.7995 5.78125 2.42189C6.64062 2.04429 7.5651 1.85549 8.55469 1.85549C9.53125 1.85549 10.4557 2.04429 11.3281 2.42189C12.2005 2.7995 12.959 3.31382 13.6035 3.96486C14.248 4.6159 14.7591 5.37762 15.1367 6.25002C15.5013 7.10939 15.6836 8.04038 15.6836 9.04299C15.6836 10.0326 15.5013 10.9636 15.1367 11.836C14.7591 12.6953 14.248 13.4505 13.6035 14.1016C12.959 14.7526 12.2005 15.2669 11.3281 15.6445C10.4688 16.0222 9.54427 16.211 8.55469 16.211Z" fill="white"/>
</g>
<defs>
<clipPath id="clip0_64_32">
<rect width="20" height="20" fill="white" transform="matrix(1 0 0 -1 0 20)"/>
</clipPath>
</defs>
</svg>
