<svg width="24" height="25" viewBox="0 0 24 25" fill="none" xmlns="http://www.w3.org/2000/svg">
<g clip-path="url(#clip0_28_442)">
<path d="M24 12.9385C24 6.31106 18.6274 0.938477 12 0.938477C5.37258 0.938477 0 6.31106 0 12.9385C0 18.9279 4.3882 23.8925 10.125 24.7927V16.4072H7.07812V12.9385H10.125V10.2947C10.125 7.28723 11.9166 5.62598 14.6576 5.62598C15.9701 5.62598 17.3438 5.86035 17.3438 5.86035V8.81348H15.8306C14.34 8.81348 13.875 9.73855 13.875 10.6885V12.9385H17.2031L16.6711 16.4072H13.875V24.7927C19.6118 23.8925 24 18.9279 24 12.9385Z" fill="#DEC37D"/>
</g>
<defs>
<clipPath id="clip0_28_442">
<rect width="24" height="24" fill="white" transform="translate(0 0.938477)"/>
</clipPath>
</defs>
</svg>
