<svg width="24" height="25" viewBox="0 0 24 25" fill="none" xmlns="http://www.w3.org/2000/svg">
<g clip-path="url(#clip0_28_446)">
<path d="M22.2234 0.938477H1.77187C0.792187 0.938477 0 1.71191 0 2.66816V23.2041C0 24.1604 0.792187 24.9385 1.77187 24.9385H22.2234C23.2031 24.9385 24 24.1604 24 23.2088V2.66816C24 1.71191 23.2031 0.938477 22.2234 0.938477ZM7.12031 21.39H3.55781V9.93379H7.12031V21.39ZM5.33906 8.37285C4.19531 8.37285 3.27188 7.44941 3.27188 6.31035C3.27188 5.17129 4.19531 4.24785 5.33906 4.24785C6.47813 4.24785 7.40156 5.17129 7.40156 6.31035C7.40156 7.44473 6.47813 8.37285 5.33906 8.37285ZM20.4516 21.39H16.8937V15.8213C16.8937 14.4947 16.8703 12.7838 15.0422 12.7838C13.1906 12.7838 12.9094 14.2322 12.9094 15.7275V21.39H9.35625V9.93379H12.7687V11.4994H12.8156C13.2891 10.5994 14.4516 9.64785 16.1813 9.64785C19.7859 9.64785 20.4516 12.0197 20.4516 15.1041V21.39V21.39Z" fill="#DEC37D"/>
</g>
<defs>
<clipPath id="clip0_28_446">
<rect width="24" height="24" fill="white" transform="translate(0 0.938477)"/>
</clipPath>
</defs>
</svg>
