<svg width="24" height="25" viewBox="0 0 24 25" fill="none" xmlns="http://www.w3.org/2000/svg">
<g clip-path="url(#clip0_28_453)">
<path d="M17.7703 11.0354C18.3188 9.50723 19.8984 5.08691 19.8984 3.67129C19.8984 2.42441 19.1625 1.3791 17.85 1.3791C15.7594 1.3791 13.8844 7.55254 13.2984 9.02441C12.8438 7.68848 10.7156 0.938477 8.84063 0.938477C7.38282 0.938477 6.69844 2.01191 6.69844 3.36191C6.69844 5.0166 8.30157 9.30566 8.88282 10.9557C8.58751 10.8479 8.26876 10.7541 7.94532 10.7541C6.84844 10.7541 5.68126 12.1182 5.68126 13.2197C5.68126 13.6369 5.91094 14.2229 6.05626 14.6119C4.32657 15.0807 3.66094 16.2338 3.66094 17.9729C3.65626 21.3572 6.86251 24.9385 11.3719 24.9385C16.9031 24.9385 20.3438 20.7854 20.3438 15.4275C20.3438 13.4072 20.0203 11.5838 17.7703 11.0354V11.0354ZM16.1109 6.00098C16.2984 5.42441 17.1 2.98691 17.85 2.98691C18.2531 2.98691 18.3609 3.4041 18.3609 3.73691C18.3609 4.63223 16.5516 9.57754 16.1531 10.6744L14.5594 10.3932L16.1109 6.00098V6.00098ZM8.17032 3.20254C8.17032 2.64473 8.85001 1.06035 10.3406 5.41035L11.9625 10.1119C11.2313 10.051 10.6641 9.97129 10.3031 10.1775C9.79219 8.82754 8.17032 4.5666 8.17032 3.20254V3.20254ZM8.06251 12.376C9.43594 12.376 11.2078 16.8104 11.2078 17.4104C11.2078 17.6494 10.9781 17.9447 10.7109 17.9447C9.73126 17.9447 7.10626 14.34 7.10626 13.365C7.11094 13.0041 7.70157 12.376 8.06251 12.376V12.376ZM16.7016 21.1088C15.3375 22.6088 13.5938 23.3869 11.5594 23.3869C8.77501 23.3869 6.57657 21.8588 5.51719 19.2479C4.71563 17.2135 5.69532 16.0463 6.48282 16.0463C7.01719 16.0463 9.02813 18.8729 9.02813 19.4729C9.02813 19.7025 8.66719 19.8619 8.47969 19.8619C7.72501 19.8619 7.42969 19.1354 6.08438 17.4525C4.69219 18.8447 7.04532 21.526 8.81719 21.526C10.0406 21.526 10.8375 20.3916 10.5984 19.5572C10.7719 19.5572 10.9875 19.5713 11.1469 19.5291C11.1984 20.7994 11.5734 22.3135 13.1016 22.4213C13.1016 22.3791 13.1953 22.0885 13.1953 22.0744C13.1953 21.2588 12.6984 20.5463 12.6984 19.7166C12.6984 18.39 13.7156 17.1057 14.7469 16.3557C15.1219 16.0744 15.5766 15.901 16.0172 15.7416C16.4719 15.5682 16.9547 15.3666 17.3016 15.0197C17.25 14.4947 17.0344 14.0307 16.5094 14.0307C15.2109 14.0307 10.8563 14.2182 10.8563 12.1697C10.8563 11.8557 10.8609 11.5557 11.6719 11.5557C13.1859 11.5557 17.0297 11.9307 18.1547 12.9197C19.0031 13.6744 19.2938 18.226 16.7016 21.1088V21.1088ZM12.0797 15.2025C12.5344 15.3479 13.0031 15.39 13.4719 15.4838C13.125 15.7369 12.8156 16.0463 12.5203 16.3791C12.3891 15.9807 12.2297 15.5916 12.0797 15.2025V15.2025Z" fill="#DEC37D"/>
</g>
<defs>
<clipPath id="clip0_28_453">
<rect width="24" height="24" fill="white" transform="translate(0 0.938477)"/>
</clipPath>
</defs>
</svg>
