<svg width="113" height="65" viewBox="0 0 113 65" fill="none" xmlns="http://www.w3.org/2000/svg">
<path d="M19.2035 40.2461V40.5052H17.8532V44.938H17.5531V40.5052H16.2028V40.2461H19.2035Z" fill="white"/>
<path d="M20.6629 41.4741C20.8948 41.3241 21.1948 41.2559 21.5631 41.2559V41.5832H21.4676C21.0993 41.5832 20.7993 41.6923 20.5538 41.8833C20.3083 42.0879 20.1855 42.4152 20.1855 42.8789V44.9385H19.8854V41.3241H20.1855V42.1288C20.281 41.8424 20.4447 41.6241 20.6765 41.4741H20.6629Z" fill="white"/>
<path d="M24.7683 41.5833C25.0411 41.7879 25.2184 42.0607 25.3276 42.4017V41.3242H25.6276V44.9386H25.3276V43.8611C25.2321 44.2021 25.0411 44.4749 24.7683 44.6795C24.4956 44.8841 24.1682 44.9932 23.7727 44.9932C23.4317 44.9932 23.1316 44.925 22.8725 44.775C22.6133 44.6249 22.4087 44.4067 22.2587 44.1339C22.1087 43.8475 22.0405 43.5201 22.0405 43.1519C22.0405 42.7836 22.1087 42.4426 22.2587 42.1698C22.4087 41.897 22.6133 41.6788 22.8725 41.5288C23.1316 41.3787 23.4317 41.3105 23.7727 41.3105C24.1682 41.3105 24.4956 41.4197 24.7683 41.6243V41.5833ZM22.7634 41.9652C22.4906 42.2517 22.3678 42.6336 22.3678 43.1246C22.3678 43.6156 22.5042 44.0111 22.7634 44.2839C23.0225 44.5567 23.3908 44.7068 23.8409 44.7068C24.1273 44.7068 24.3864 44.6386 24.6047 44.5158C24.8365 44.3794 25.0002 44.2021 25.1366 43.9566C25.2594 43.7111 25.3276 43.4383 25.3276 43.1246C25.3276 42.8109 25.2594 42.5381 25.1366 42.2926C25.0139 42.0471 24.8365 41.8698 24.6047 41.7334C24.3728 41.597 24.1273 41.5424 23.8409 41.5424C23.3908 41.5424 23.0225 41.6788 22.7634 41.9652Z" fill="white"/>
<path d="M27.9463 44.5568L29.2693 41.3242H29.5967L28.0964 44.9387H27.7827L26.296 41.3242H26.6097L27.9463 44.5568Z" fill="white"/>
<path d="M32.7474 44.4612C32.9929 44.2703 33.1429 44.0248 33.1975 43.711H33.5112C33.443 44.093 33.2657 44.4067 32.9656 44.6385C32.6655 44.8704 32.2973 44.9931 31.8335 44.9931C31.4926 44.9931 31.1925 44.925 30.9197 44.7749C30.6606 44.6249 30.4423 44.4067 30.2923 44.1339C30.1423 43.8474 30.0604 43.5201 30.0604 43.1382C30.0604 42.7563 30.1286 42.4289 30.2923 42.1562C30.4423 41.8697 30.6469 41.6651 30.9197 41.5151C31.1789 41.3651 31.4926 41.2969 31.8335 41.2969C32.1745 41.2969 32.4882 41.3651 32.7474 41.5151C33.0065 41.6651 33.1975 41.8561 33.3202 42.1016C33.4566 42.3471 33.5112 42.6063 33.5112 42.879C33.5112 42.9882 33.5112 43.1109 33.4839 43.2337H30.3741C30.3741 43.5747 30.4423 43.8474 30.5787 44.0793C30.7151 44.3112 30.8924 44.4749 31.1107 44.584C31.3289 44.6931 31.5608 44.7476 31.8199 44.7476C32.1882 44.7476 32.4882 44.6522 32.7337 44.4749L32.7474 44.4612ZM31.1243 41.6924C30.9061 41.8015 30.7288 41.9788 30.5924 42.1971C30.456 42.4289 30.3878 42.7017 30.3878 43.0427H33.2384C33.252 42.7154 33.1975 42.4289 33.0747 42.1971C32.952 41.9652 32.7747 41.8015 32.5564 41.6924C32.3382 41.5833 32.1063 41.5287 31.8472 41.5287C31.588 41.5287 31.3425 41.5833 31.1243 41.6924Z" fill="white"/>
<path d="M34.7387 40.0146V44.9385H34.4387V40.0146H34.7387Z" fill="white"/>
<path d="M36.1164 40.0146V44.9385H35.8163V40.0146H36.1164Z" fill="white"/>
<path d="M39.6762 44.4612C39.9217 44.2703 40.0718 44.0248 40.1263 43.711H40.44C40.3718 44.093 40.1945 44.4067 39.8945 44.6385C39.5944 44.8704 39.2261 44.9931 38.7624 44.9931C38.4214 44.9931 38.1213 44.925 37.8485 44.7749C37.5894 44.6249 37.3712 44.4067 37.2211 44.1339C37.0711 43.8474 36.9893 43.5201 36.9893 43.1382C36.9893 42.7563 37.0575 42.4289 37.2211 42.1562C37.3712 41.8697 37.5758 41.6651 37.8485 41.5151C38.1077 41.3651 38.4214 41.2969 38.7624 41.2969C39.1034 41.2969 39.4171 41.3651 39.6762 41.5151C39.9354 41.6651 40.1263 41.8561 40.2491 42.1016C40.3855 42.3471 40.44 42.6063 40.44 42.879C40.44 42.9882 40.44 43.1109 40.4127 43.2337H37.303C37.303 43.5747 37.3712 43.8474 37.5076 44.0793C37.6439 44.3112 37.8213 44.4749 38.0395 44.584C38.2577 44.6931 38.4896 44.7476 38.7487 44.7476C39.117 44.7476 39.4171 44.6522 39.6626 44.4749L39.6762 44.4612ZM38.0531 41.6924C37.8349 41.8015 37.6576 41.9788 37.5212 42.1971C37.3848 42.4289 37.3166 42.7017 37.3166 43.0427H40.1672C40.1809 42.7154 40.1263 42.4289 40.0036 42.1971C39.8808 41.9652 39.7035 41.8015 39.4853 41.6924C39.267 41.5833 39.0352 41.5287 38.776 41.5287C38.5169 41.5287 38.2714 41.5833 38.0531 41.6924Z" fill="white"/>
<path d="M42.1586 41.4741C42.3905 41.3241 42.6905 41.2559 43.0588 41.2559V41.5832H42.9633C42.5951 41.5832 42.295 41.6923 42.0495 41.8833C41.804 42.0879 41.6812 42.4152 41.6812 42.8789V44.9385H41.3812V41.3241H41.6812V42.1288C41.7767 41.8424 41.9404 41.6241 42.1722 41.4741H42.1586Z" fill="white"/>
<path d="M45.6503 41.5833C45.8821 41.7879 46.0185 42.0607 46.0594 42.4153H45.773C45.7457 42.1562 45.6503 41.938 45.4593 41.7743C45.282 41.597 45.0365 41.5151 44.7228 41.5151C44.45 41.5151 44.2454 41.5833 44.0817 41.7197C43.9181 41.8561 43.8499 42.0334 43.8499 42.2517C43.8499 42.4153 43.8908 42.5517 43.9863 42.6472C44.0817 42.7427 44.1908 42.8109 44.3136 42.8654C44.4364 42.92 44.6273 42.9609 44.8592 43.0291C45.1183 43.0837 45.3366 43.1519 45.4866 43.2064C45.6503 43.261 45.7867 43.3701 45.8958 43.4929C46.0049 43.6292 46.0594 43.8066 46.0594 44.0384C46.0594 44.3249 45.9503 44.5567 45.7594 44.734C45.5684 44.9113 45.282 45.0068 44.9547 45.0068C44.5591 45.0068 44.2318 44.9113 43.9726 44.7068C43.7135 44.5022 43.5634 44.2294 43.5225 43.8748H43.8226C43.8499 44.1339 43.959 44.3521 44.1636 44.5158C44.3545 44.6795 44.6273 44.775 44.9683 44.775C45.2274 44.775 45.432 44.7068 45.5684 44.5704C45.7185 44.434 45.7867 44.2567 45.7867 44.0384C45.7867 43.8611 45.7457 43.7247 45.6503 43.6292C45.5548 43.5338 45.4457 43.4519 45.2956 43.3974C45.1592 43.3428 44.9683 43.3019 44.7364 43.2473C44.4773 43.1791 44.2727 43.1246 44.109 43.07C43.9453 43.0155 43.8226 42.92 43.7135 42.7836C43.6044 42.6608 43.5498 42.4835 43.5498 42.2653C43.5498 41.9789 43.6589 41.7334 43.8635 41.5697C44.0681 41.3924 44.3545 41.3105 44.6955 41.3105C45.0774 41.3105 45.3775 41.406 45.6093 41.6106L45.6503 41.5833Z" fill="white"/>
<path d="M51.3788 44.938L50.0148 42.9467H49.1419V44.938H48.8419V40.2461H50.1512C50.6695 40.2461 51.0514 40.3688 51.3106 40.6144C51.5561 40.8599 51.6925 41.1872 51.6925 41.61C51.6925 42.0329 51.5834 42.3193 51.3515 42.5512C51.1196 42.783 50.7923 42.9058 50.3558 42.9467L51.7334 44.9517H51.3924L51.3788 44.938ZM49.1419 42.7012H50.1376C50.9696 42.7012 51.3924 42.3329 51.3924 41.61C51.3924 41.2554 51.297 40.9963 51.0924 40.8053C50.8878 40.6144 50.5741 40.5189 50.1376 40.5189H49.1419V42.7012Z" fill="white"/>
<path d="M55.0069 44.4612C55.2524 44.2703 55.4024 44.0248 55.457 43.711H55.7707C55.7025 44.093 55.5252 44.4067 55.2251 44.6385C54.9251 44.8704 54.5568 44.9931 54.0931 44.9931C53.7521 44.9931 53.452 44.925 53.1792 44.7749C52.9201 44.6249 52.7018 44.4067 52.5518 44.1339C52.4018 43.8474 52.3199 43.5201 52.3199 43.1382C52.3199 42.7563 52.3881 42.4289 52.5518 42.1562C52.7018 41.8697 52.9064 41.6651 53.1792 41.5151C53.4384 41.3651 53.7521 41.2969 54.0931 41.2969C54.4341 41.2969 54.7478 41.3651 55.0069 41.5151C55.2661 41.6651 55.457 41.8561 55.5798 42.1016C55.7162 42.3471 55.7707 42.6063 55.7707 42.879C55.7707 42.9882 55.7707 43.1109 55.7434 43.2337H52.6337C52.6337 43.5747 52.7018 43.8474 52.8382 44.0793C52.9746 44.3112 53.1519 44.4749 53.3702 44.584C53.5884 44.6931 53.8203 44.7476 54.0794 44.7476C54.4477 44.7476 54.7478 44.6522 54.9933 44.4749L55.0069 44.4612ZM53.3838 41.6924C53.1656 41.8015 52.9883 41.9788 52.8519 42.1971C52.7155 42.4289 52.6473 42.7017 52.6473 43.0427H55.4979C55.5116 42.7154 55.457 42.4289 55.3343 42.1971C55.2115 41.9652 55.0342 41.8015 54.816 41.6924C54.5977 41.5833 54.3659 41.5287 54.1067 41.5287C53.8476 41.5287 53.602 41.5833 53.3838 41.6924Z" fill="white"/>
<path d="M57.9394 44.5568L59.2624 41.3242H59.5897L58.0894 44.9387H57.7757L56.289 41.3242H56.6027L57.9394 44.5568Z" fill="white"/>
<path d="M60.2171 40.0555C60.2171 40.0555 60.3262 39.9873 60.3944 39.9873C60.4626 39.9873 60.5308 40.0146 60.5854 40.0555C60.6399 40.0964 60.6536 40.1646 60.6536 40.2328C60.6536 40.301 60.6263 40.3692 60.5854 40.4101C60.5308 40.451 60.4763 40.4783 60.3944 40.4783C60.3126 40.4783 60.258 40.451 60.2171 40.4101C60.1762 40.3692 60.1489 40.301 60.1489 40.2328C60.1489 40.1646 60.1762 40.0964 60.2171 40.0555ZM60.5581 41.324V44.9384H60.258V41.324H60.5581Z" fill="white"/>
<path d="M64.118 44.4612C64.3635 44.2703 64.5135 44.0248 64.5681 43.711H64.8818C64.8136 44.093 64.6363 44.4067 64.3362 44.6385C64.0362 44.8704 63.6679 44.9931 63.2042 44.9931C62.8632 44.9931 62.5631 44.925 62.2903 44.7749C62.0312 44.6249 61.8129 44.4067 61.6629 44.1339C61.5129 43.8474 61.431 43.5201 61.431 43.1382C61.431 42.7563 61.4992 42.4289 61.6629 42.1562C61.8129 41.8697 62.0175 41.6651 62.2903 41.5151C62.5495 41.3651 62.8632 41.2969 63.2042 41.2969C63.5451 41.2969 63.8588 41.3651 64.118 41.5151C64.3771 41.6651 64.5681 41.8561 64.6908 42.1016C64.8272 42.3471 64.8818 42.6063 64.8818 42.879C64.8818 42.9882 64.8818 43.1109 64.8545 43.2337H61.7447C61.7447 43.5747 61.8129 43.8474 61.9493 44.0793C62.0857 44.3112 62.263 44.4749 62.4813 44.584C62.6995 44.6931 62.9314 44.7476 63.1905 44.7476C63.5588 44.7476 63.8588 44.6522 64.1044 44.4749L64.118 44.4612ZM62.4949 41.6924C62.2767 41.8015 62.0994 41.9788 61.963 42.1971C61.8266 42.4289 61.7584 42.7017 61.7584 43.0427H64.609C64.6227 42.7154 64.5681 42.4289 64.4453 42.1971C64.3226 41.9652 64.1453 41.8015 63.927 41.6924C63.7088 41.5833 63.4769 41.5287 63.2178 41.5287C62.9586 41.5287 62.7131 41.5833 62.4949 41.6924Z" fill="white"/>
<path d="M70.5831 41.3242L69.4919 44.9387H69.2055L68.0052 41.7198L66.805 44.9387H66.5186L65.4138 41.3242H65.7275L66.6822 44.5704L67.8688 41.3242H68.1689L69.3692 44.5704L70.3239 41.3242H70.6104H70.5831Z" fill="white"/>
<path d="M75.7251 43.7244H73.5019L73.0382 44.9383H72.7108L74.443 40.3691H74.7704L76.4889 44.9383H76.1616L75.7115 43.7244H75.7251ZM75.6296 43.4789L74.6067 40.7374L73.5837 43.4789H75.6296Z" fill="white"/>
<path d="M81.9856 41.3242L80.8945 44.9387H80.608L79.4078 41.7198L78.2075 44.9387H77.9211L76.8163 41.3242H77.13L78.0847 44.5704L79.2714 41.3242H79.5714L80.7717 44.5704L81.7265 41.3242H82.0129H81.9856Z" fill="white"/>
<path d="M85.1909 41.5833C85.4637 41.7879 85.641 42.0607 85.7501 42.4017V41.3242H86.0502V44.9386H85.7501V43.8611C85.6546 44.2021 85.4637 44.4749 85.1909 44.6795C84.9181 44.8841 84.5908 44.9932 84.1952 44.9932C83.8542 44.9932 83.5542 44.925 83.295 44.775C83.0359 44.6249 82.8313 44.4067 82.6812 44.1339C82.5312 43.8475 82.463 43.5201 82.463 43.1519C82.463 42.7836 82.5312 42.4426 82.6812 42.1698C82.8313 41.897 83.0359 41.6788 83.295 41.5288C83.5542 41.3787 83.8542 41.3105 84.1952 41.3105C84.5908 41.3105 84.9181 41.4197 85.1909 41.6243V41.5833ZM83.1859 41.9652C82.9131 42.2517 82.7904 42.6336 82.7904 43.1246C82.7904 43.6156 82.9268 44.0111 83.1859 44.2839C83.4451 44.5567 83.8133 44.7068 84.2634 44.7068C84.5498 44.7068 84.809 44.6386 85.0272 44.5158C85.2591 44.3794 85.4228 44.2021 85.5592 43.9566C85.6819 43.7111 85.7501 43.4383 85.7501 43.1246C85.7501 42.8109 85.6819 42.5381 85.5592 42.2926C85.4364 42.0471 85.2591 41.8698 85.0272 41.7334C84.7954 41.597 84.5498 41.5424 84.2634 41.5424C83.8133 41.5424 83.4451 41.6788 83.1859 41.9652Z" fill="white"/>
<path d="M87.9187 41.4741C88.1506 41.3241 88.4507 41.2559 88.8189 41.2559V41.5832H88.7235C88.3552 41.5832 88.0551 41.6923 87.8096 41.8833C87.5641 42.0879 87.4414 42.4152 87.4414 42.8789V44.9385H87.1413V41.3241H87.4414V42.1288C87.5368 41.8424 87.7005 41.6241 87.9324 41.4741H87.9187Z" fill="white"/>
<path d="M92.0242 41.5832C92.297 41.7878 92.4743 42.0606 92.5834 42.4015V40.0146H92.8835V44.9385H92.5834V43.861C92.4879 44.2019 92.297 44.4747 92.0242 44.6793C91.7514 44.8839 91.4241 44.993 91.0285 44.993C90.6875 44.993 90.3875 44.9248 90.1283 44.7748C89.8692 44.6248 89.6646 44.4065 89.5146 44.1337C89.3645 43.8473 89.2963 43.52 89.2963 43.1517C89.2963 42.7834 89.3645 42.4425 89.5146 42.1697C89.6646 41.8969 89.8692 41.6787 90.1283 41.5286C90.3875 41.3786 90.6875 41.3104 91.0285 41.3104C91.4241 41.3104 91.7514 41.4195 92.0242 41.6241V41.5832ZM90.0192 41.9651C89.7464 42.2515 89.6237 42.6334 89.6237 43.1244C89.6237 43.6154 89.7601 44.011 90.0192 44.2838C90.2784 44.5566 90.6466 44.7066 91.0967 44.7066C91.3832 44.7066 91.6423 44.6384 91.8605 44.5156C92.0924 44.3793 92.2561 44.2019 92.3925 43.9564C92.5152 43.7109 92.5834 43.4381 92.5834 43.1244C92.5834 42.8107 92.5152 42.5379 92.3925 42.2924C92.2697 42.0469 92.0924 41.8696 91.8605 41.7332C91.6287 41.5968 91.3832 41.5423 91.0967 41.5423C90.6466 41.5423 90.2784 41.6787 90.0192 41.9651Z" fill="white"/>
<path d="M95.8842 41.5833C96.116 41.7879 96.2524 42.0607 96.2933 42.4153H96.0069C95.9796 42.1562 95.8842 41.938 95.6932 41.7743C95.5159 41.597 95.2704 41.5151 94.9567 41.5151C94.6839 41.5151 94.4793 41.5833 94.3156 41.7197C94.1519 41.8561 94.0838 42.0334 94.0838 42.2517C94.0838 42.4153 94.1247 42.5517 94.2201 42.6472C94.3156 42.7427 94.4247 42.8109 94.5475 42.8654C94.6702 42.92 94.8612 42.9609 95.0931 43.0291C95.3522 43.0837 95.5704 43.1519 95.7205 43.2064C95.8841 43.261 96.0205 43.3701 96.1297 43.4929C96.2388 43.6292 96.2933 43.8066 96.2933 44.0384C96.2933 44.3249 96.1842 44.5567 95.9933 44.734C95.8023 44.9113 95.5159 45.0068 95.1885 45.0068C94.793 45.0068 94.4656 44.9113 94.2065 44.7068C93.9474 44.5022 93.7973 44.2294 93.7564 43.8748H94.0565C94.0837 44.1339 94.1929 44.3521 94.3975 44.5158C94.5884 44.6795 94.8612 44.775 95.2022 44.775C95.4613 44.775 95.6659 44.7068 95.8023 44.5704C95.9524 44.434 96.0205 44.2567 96.0205 44.0384C96.0205 43.8611 95.9796 43.7247 95.8842 43.6292C95.7887 43.5338 95.6796 43.4519 95.5295 43.3974C95.3931 43.3428 95.2022 43.3019 94.9703 43.2473C94.7112 43.1791 94.5066 43.1246 94.3429 43.07C94.1792 43.0155 94.0565 42.92 93.9474 42.7836C93.8382 42.6608 93.7837 42.4835 93.7837 42.2653C93.7837 41.9789 93.8928 41.7334 94.0974 41.5697C94.302 41.3924 94.5884 41.3105 94.9294 41.3105C95.3113 41.3105 95.6114 41.406 95.8432 41.6106L95.8842 41.5833Z" fill="white"/>
<path d="M89.8283 16.8003C90.0874 16.8275 90.5648 16.9639 90.7421 17.1549C90.9194 17.3458 90.8921 17.4959 90.9876 17.6868C91.0149 17.755 90.9467 17.8096 91.0967 17.7823C92.2288 16.2547 94.9294 16.1865 95.7478 18.0687C96.8389 16.3229 100.031 16.0092 100.89 18.1369C100.958 18.3142 101.135 18.8462 101.135 19.0098V25.0112H99.6895C99.3486 25.0112 98.953 24.5202 98.8985 24.1928C98.6666 22.8289 99.1849 20.592 98.7621 19.3508C98.3802 18.2324 97.0162 18.8871 96.5388 19.6373C96.4161 19.8282 96.1297 20.5784 96.1297 20.7693V25.0112H93.811V19.7873C93.811 19.5418 93.5518 19.0098 93.3063 18.8871C92.4061 18.3824 91.5605 19.3236 91.2877 20.0874C91.2331 20.2238 91.0558 20.8239 91.0558 20.9194V25.0248H88.8053V16.8139C89.1326 16.8412 89.5009 16.773 89.8283 16.8139V16.8003Z" fill="url(#paint0_linear_28_297)"/>
<path d="M11.6336 14.7279C11.7291 14.0323 12.3565 13.6913 12.9976 13.6368C14.0751 13.5413 16.2574 13.5822 17.2531 13.9505C19.4899 14.7961 19.6672 17.6195 17.8941 19.038C20.3628 20.17 19.9537 23.6754 17.4849 24.6301C16.3665 25.0666 13.0931 25.1484 11.8655 24.9984C11.7973 24.9984 11.62 24.9711 11.62 24.8893V14.7143L11.6336 14.7279ZM13.8841 16.0646C13.7614 16.6511 13.966 17.5786 13.8841 18.206H15.8891C15.9573 18.206 16.3938 17.9741 16.462 17.9059C17.0894 17.3194 16.9394 15.8873 16.0119 15.6281C15.4936 15.4917 14.0205 15.369 13.8841 16.0646ZM13.8841 23.0479H15.8891C15.9982 23.0479 16.5029 22.8706 16.6257 22.8024C17.4986 22.2432 17.4713 20.6474 16.5165 20.1837C16.1074 19.9927 14.8116 19.9654 14.3615 20.0473C14.1842 20.0746 13.8841 20.3064 13.8841 20.4837V23.0479Z" fill="url(#paint1_linear_28_297)"/>
<path d="M67.3233 16.8004V24.7658C67.3233 24.984 67.0914 25.7342 66.9823 25.966C65.8775 28.4893 62.0176 28.7075 59.9307 27.3436C60.1217 26.989 60.3536 25.9115 60.7218 25.7614C61.2128 25.5568 62.1676 26.0206 62.7677 26.0479C63.9407 26.0888 65.0591 25.5432 64.8818 24.2202C63.3542 25.3386 61.0628 24.8612 59.9989 23.3336C57.8712 20.2375 60.2854 15.2455 64.3363 16.8413C64.5408 16.9231 65.1273 17.3459 65.1683 17.3459C65.2092 17.3459 65.5092 16.7867 65.8775 16.7867H67.3233V16.8004ZM63.0132 18.7099C61.0628 18.969 61.2538 22.8835 63.4906 22.7608C64.8818 22.6789 65.1137 21.1786 64.9227 20.0602C64.7591 19.0509 64.0226 18.5735 63.0132 18.7099Z" fill="url(#paint2_linear_28_297)"/>
<path d="M41.1357 19.5427C41.463 19.5427 41.7904 19.6109 42.0222 19.3381L43.7135 16.8148H46.3596L43.8363 20.6338L46.3596 25.0257H44.0681C43.9317 25.0257 43.4135 24.7256 43.3453 24.562L41.8313 21.7523C41.6267 21.6295 41.3675 21.6704 41.1493 21.6704V25.0394H38.7488V13.6777H40.1264C40.2082 13.6777 40.6719 13.8278 40.7538 13.8823C40.8765 13.9642 41.1357 14.3461 41.1357 14.4825V19.57V19.5427Z" fill="url(#paint3_linear_28_297)"/>
<path d="M58.5259 25.0112H56.9437C56.63 25.0112 56.2344 24.5475 56.1526 24.261C55.8116 23.1017 56.2072 21.0149 56.0571 19.7191C55.8934 18.3006 54.0385 18.8189 53.4656 19.7191C53.3838 19.8419 53.0974 20.5784 53.0974 20.6875V24.9976H50.6968V16.7866H52.0744C52.4836 16.7866 52.9201 17.264 53.0565 17.6323C54.4749 16.1456 57.5438 16.1865 58.2667 18.3279C58.4031 18.7507 58.4849 19.3236 58.5122 19.7737C58.6213 21.4786 58.4304 23.279 58.5122 24.9976L58.5259 25.0112Z" fill="url(#paint4_linear_28_297)"/>
<path d="M32.952 16.6779C36.0072 16.3369 38.4078 18.5738 37.8895 21.6699C37.1393 26.1027 30.5787 26.3482 29.474 22.0791C28.8329 19.5967 30.306 16.978 32.952 16.6779ZM33.1566 18.7102C31.1516 19.0511 31.1652 22.8702 33.3612 23.102C36.3755 23.4294 36.3755 18.1646 33.1566 18.7102Z" fill="url(#paint5_linear_28_297)"/>
<path d="M83.0222 16.6783C85.3818 16.4192 87.5369 17.6604 87.946 20.0745C88.5462 23.5253 85.3546 26.0077 82.0811 24.862C78.0575 23.4435 78.6713 17.1557 83.0222 16.6783ZM83.2268 18.7106C81.2218 19.0516 81.2082 22.857 83.4314 23.1025C86.4457 23.4298 86.4321 18.165 83.2268 18.7106Z" fill="url(#paint6_linear_28_297)"/>
<path d="M23.8 16.6776C26.9098 16.323 29.0784 18.4916 28.7238 21.5878C28.4101 24.4248 25.2458 25.8296 22.7089 24.8067C18.7807 23.2245 19.5445 17.155 23.8 16.6776ZM24.0046 18.7099C21.8359 19.0781 21.9723 23.3882 24.6866 23.1018C27.2235 22.8426 26.9916 18.2052 24.0046 18.7099Z" fill="url(#paint7_linear_28_297)"/>
<path d="M78.8077 19.6783H77.3619C76.9527 19.6783 76.789 19.0373 76.6254 18.8736C76.4071 18.669 75.8479 18.6144 75.5478 18.6281C73.1882 18.819 72.8882 22.4198 75.125 23.0336C76.2707 23.3473 77.4983 22.8836 78.2212 21.9834C78.303 22.0107 79.135 23.3473 79.1896 23.4837C79.2714 23.7156 78.8895 24.002 78.7122 24.1657C76.448 26.0479 72.5335 25.3114 71.5515 22.3926C70.324 18.7508 73.6929 15.7365 77.2391 16.8686C77.8256 17.0596 78.8213 17.6733 78.8213 18.3826V19.6783H78.8077Z" fill="url(#paint8_linear_28_297)"/>
<path d="M49.3738 25.0117H47.0551V16.8008H48.5009C48.5009 16.8008 48.9237 16.9781 48.9783 17.019C49.3738 17.2918 49.4147 17.7965 49.442 18.2329C49.6057 20.4425 49.2374 22.7748 49.3738 24.9981V25.0117Z" fill="url(#paint9_linear_28_297)"/>
<path d="M69.2874 22.3658C71.4287 21.9975 71.5651 25.4073 69.2874 25.08C67.8825 24.8754 67.8416 22.6113 69.2874 22.3658Z" fill="url(#paint10_linear_28_297)"/>
<path d="M48.0236 13.309C49.5239 13.159 50.1377 15.3822 48.651 15.9687C46.6596 16.7598 45.9504 13.5136 48.0236 13.309Z" fill="url(#paint11_linear_28_297)"/>
<path d="M11.4154 28.8037H15.3708V29.2129H13.6386V33.7957H13.1612V29.2129H11.429V28.8037H11.4154Z" fill="url(#paint12_linear_28_297)"/>
<path d="M15.098 30.1808H15.5072V31.0265H15.5208C15.7391 30.4536 16.2301 30.099 16.8848 30.1399V30.5764C16.0937 30.5355 15.5481 31.122 15.5481 31.8721V33.7953H15.1117V30.1945L15.098 30.1808Z" fill="url(#paint13_linear_28_297)"/>
<path d="M17.2531 31.2862C17.294 30.4405 17.8941 30.0723 18.7125 30.0723C19.3536 30.0723 20.0355 30.2632 20.0355 31.2316V33.1411C20.0355 33.3048 20.1174 33.4003 20.2947 33.4003C20.3492 33.4003 20.4038 33.3866 20.4311 33.373V33.7413C20.3356 33.7685 20.2674 33.7685 20.1446 33.7685C19.6945 33.7685 19.6263 33.523 19.6263 33.1411H19.6127C19.299 33.6049 18.9853 33.8777 18.3033 33.8777C17.6214 33.8777 17.0894 33.5503 17.0894 32.8274C17.0894 31.8181 18.0715 31.7772 19.0262 31.6681C19.3945 31.6272 19.5854 31.5726 19.5854 31.1771C19.5854 30.5906 19.1626 30.4405 18.6443 30.4405C18.0987 30.4405 17.6896 30.686 17.6759 31.2725H17.2395L17.2531 31.2862ZM19.5991 31.8181H19.5854C19.5309 31.9272 19.3399 31.9545 19.2172 31.9818C18.467 32.1182 17.5395 32.1045 17.5395 32.8138C17.5395 33.2502 17.9351 33.523 18.3442 33.523C19.0126 33.523 19.6127 33.1002 19.5991 32.391V31.8181Z" fill="url(#paint14_linear_28_297)"/>
<path d="M20.5129 30.1816H21.0039L22.136 33.346H22.1496L23.268 30.1816H23.7181L22.3678 33.7824H21.9041L20.5129 30.1816Z" fill="url(#paint15_linear_28_297)"/>
<path d="M24.4001 32.1045C24.4001 32.7456 24.7411 33.523 25.5867 33.523C26.2278 33.523 26.5824 33.1411 26.7188 32.5956H27.1552C26.9643 33.4139 26.4869 33.8913 25.5867 33.8913C24.441 33.8913 23.9636 33.0184 23.9636 31.9818C23.9636 31.027 24.441 30.0723 25.5867 30.0723C26.7324 30.0723 27.2098 31.0816 27.1689 32.0909H24.4001V32.1045ZM26.7324 31.7363C26.7051 31.0679 26.296 30.4542 25.5867 30.4542C24.8775 30.4542 24.4683 31.0816 24.4001 31.7363H26.7324Z" fill="url(#paint16_linear_28_297)"/>
<path d="M27.769 28.8037H28.2055V33.7821H27.769V28.8037Z" fill="url(#paint17_linear_28_297)"/>
<path d="M29.0648 28.8037H29.5012V33.7821H29.0648V28.8037Z" fill="url(#paint18_linear_28_297)"/>
<path d="M30.606 32.1045C30.606 32.7456 30.947 33.523 31.7926 33.523C32.4337 33.523 32.7883 33.1411 32.9247 32.5956H33.3612C33.1702 33.4139 32.6928 33.8913 31.7926 33.8913C30.6469 33.8913 30.1696 33.0184 30.1696 31.9818C30.1696 31.027 30.6469 30.0723 31.7926 30.0723C32.9384 30.0723 33.4157 31.0816 33.3748 32.0909H30.606V32.1045ZM32.9384 31.7363C32.9111 31.0679 32.5019 30.4542 31.7926 30.4542C31.0834 30.4542 30.6742 31.0816 30.606 31.7363H32.9384Z" fill="url(#paint19_linear_28_297)"/>
<path d="M33.9613 30.1808H34.3705V31.0265H34.3841C34.6024 30.4536 35.0934 30.099 35.7481 30.1399V30.5764C34.957 30.5355 34.4114 31.122 34.4114 31.8721V33.7953H33.9749V30.1945L33.9613 30.1808Z" fill="url(#paint20_linear_28_297)"/>
<path d="M38.1759 28.8037H40.4537C41.272 28.8037 41.9677 29.1993 41.9677 30.0995C41.9677 30.7269 41.6403 31.2452 40.9993 31.3679C41.6539 31.4634 41.8313 31.9135 41.8722 32.5C41.8995 32.841 41.8995 33.5229 42.104 33.7821H41.5858C41.463 33.5911 41.463 33.2229 41.4494 33.0046C41.4084 32.309 41.3539 31.5316 40.4537 31.5725H38.6533V33.7821H38.1759V28.8037ZM38.6533 31.1633H40.4264C40.9993 31.1633 41.5039 30.7951 41.5039 30.1949C41.5039 29.5948 41.1357 29.1993 40.4264 29.1993H38.6533V31.1633Z" fill="url(#paint21_linear_28_297)"/>
<path d="M43.0042 32.1045C43.0042 32.7456 43.3452 33.523 44.1908 33.523C44.8319 33.523 45.1865 33.1411 45.3229 32.5956H45.7594C45.5684 33.4139 45.091 33.8913 44.1908 33.8913C43.0451 33.8913 42.5677 33.0184 42.5677 31.9818C42.5677 31.027 43.0451 30.0723 44.1908 30.0723C45.3365 30.0723 45.8139 31.0816 45.773 32.0909H43.0042V32.1045ZM45.3365 31.7363C45.3093 31.0679 44.9001 30.4542 44.1908 30.4542C43.4816 30.4542 43.0724 31.0816 43.0042 31.7363H45.3365Z" fill="url(#paint22_linear_28_297)"/>
<path d="M45.964 30.1816H46.455L47.5871 33.346H47.6007L48.7191 30.1816H49.1692L47.8189 33.7824H47.3552L45.964 30.1816Z" fill="url(#paint23_linear_28_297)"/>
<path d="M49.6057 28.8037H50.0422V29.513H49.6057V28.8037ZM49.6057 30.1813H50.0422V33.7821H49.6057V30.1813Z" fill="url(#paint24_linear_28_297)"/>
<path d="M51.147 32.1045C51.147 32.7456 51.488 33.523 52.3336 33.523C52.9746 33.523 53.3293 33.1411 53.4657 32.5956H53.9021C53.7112 33.4139 53.2338 33.8913 52.3336 33.8913C51.1879 33.8913 50.7105 33.0184 50.7105 31.9818C50.7105 31.027 51.1879 30.0723 52.3336 30.0723C53.4793 30.0723 53.9567 31.0816 53.9158 32.0909H51.147V32.1045ZM53.4793 31.7363C53.452 31.0679 53.0428 30.4542 52.3336 30.4542C51.6243 30.4542 51.2152 31.0816 51.147 31.7363H53.4793Z" fill="url(#paint25_linear_28_297)"/>
<path d="M54.1476 30.1816H54.6114L55.5389 33.2641H55.5525L56.4254 30.1816H56.9164L57.7894 33.2641H57.803L58.7305 30.1816H59.1942L58.0349 33.7824H57.5575L56.6709 30.7545H56.6573L55.7844 33.7824H55.307L54.1476 30.1816Z" fill="url(#paint26_linear_28_297)"/>
<path d="M63.1633 28.8037H63.6952L65.6456 33.7821H65.141L64.5272 32.2272H62.2631L61.6629 33.7821H61.1583L63.1633 28.8037ZM62.3994 31.8317H64.3635L63.3951 29.2811L62.3994 31.8317Z" fill="url(#paint27_linear_28_297)"/>
<path d="M65.5229 30.1816H65.9866L66.9141 33.2641H66.9277L67.8007 30.1816H68.2917L69.1646 33.2641H69.1782L70.1057 30.1816H70.5695L69.4101 33.7824H68.9327L68.0462 30.7545H68.0325L67.1596 33.7824H66.6822L65.5229 30.1816Z" fill="url(#paint28_linear_28_297)"/>
<path d="M71.0059 31.2862C71.0468 30.4405 71.6469 30.0723 72.4653 30.0723C73.1064 30.0723 73.7883 30.2632 73.7883 31.2316V33.1411C73.7883 33.3048 73.8702 33.4003 74.0475 33.4003C74.102 33.4003 74.1566 33.3866 74.1839 33.373V33.7413C74.0884 33.7685 74.0202 33.7685 73.8975 33.7685C73.4474 33.7685 73.3792 33.523 73.3792 33.1411H73.3655C73.0518 33.6049 72.7381 33.8777 72.0561 33.8777C71.3742 33.8777 70.8422 33.5503 70.8422 32.8274C70.8422 31.8181 71.8243 31.7772 72.779 31.6681C73.1473 31.6272 73.3382 31.5726 73.3382 31.1771C73.3382 30.5906 72.9154 30.4405 72.3971 30.4405C71.8515 30.4405 71.4424 30.686 71.4287 31.2725H70.9923L71.0059 31.2862ZM73.3519 31.8181H73.3382C73.2837 31.9272 73.0927 31.9545 72.97 31.9818C72.2198 32.1182 71.2923 32.1045 71.2923 32.8138C71.2923 33.2502 71.6879 33.523 72.0971 33.523C72.7654 33.523 73.3655 33.1002 73.3519 32.391V31.8181Z" fill="url(#paint29_linear_28_297)"/>
<path d="M74.6749 30.1808H75.0841V31.0265H75.0977C75.316 30.4536 75.807 30.099 76.4617 30.1399V30.5764C75.6706 30.5355 75.125 31.122 75.125 31.8721V33.7953H74.6886V30.1945L74.6749 30.1808Z" fill="url(#paint30_linear_28_297)"/>
<path d="M79.9124 33.7821H79.5032V33.1001H79.4896C79.2987 33.5639 78.7258 33.8912 78.2075 33.8912C77.1164 33.8912 76.5844 33.0046 76.5844 31.9817C76.5844 30.9587 77.1027 30.0722 78.2075 30.0722C78.7394 30.0722 79.2714 30.345 79.4623 30.8633H79.476V28.8037H79.9124V33.7821ZM78.2075 33.5229C79.1486 33.5229 79.476 32.7319 79.476 31.9817C79.476 31.2315 79.1486 30.4404 78.2075 30.4404C77.3755 30.4404 77.0345 31.2315 77.0345 31.9817C77.0345 32.7319 77.3755 33.5229 78.2075 33.5229Z" fill="url(#paint31_linear_28_297)"/>
<path d="M82.8994 31.2453C82.8722 30.6997 82.463 30.4542 81.9583 30.4542C81.5628 30.4542 81.1127 30.6043 81.1127 31.0816C81.1127 31.4772 81.5628 31.6136 81.8629 31.6954L82.4493 31.8318C82.954 31.9136 83.4723 32.2001 83.4723 32.8275C83.4723 33.6049 82.6948 33.905 82.0265 33.905C81.1945 33.905 80.6217 33.5095 80.5535 32.6365H80.9899C81.0308 33.223 81.4673 33.5367 82.0538 33.5367C82.463 33.5367 83.0358 33.3594 83.0358 32.8548C83.0358 32.4319 82.6403 32.2956 82.2448 32.2001L81.6855 32.0773C81.1127 31.9273 80.6762 31.7227 80.6762 31.1089C80.6762 30.3724 81.3991 30.0996 82.0265 30.0996C82.7494 30.0996 83.3223 30.4815 83.3495 31.259H82.9131L82.8994 31.2453Z" fill="url(#paint32_linear_28_297)"/>
<path d="M89.0918 33.7822H85.8729C85.9138 32.3364 87.4005 31.9682 88.2188 31.1498C88.478 30.877 88.628 30.6179 88.628 30.2223C88.628 29.5813 88.1234 29.2267 87.5369 29.2267C86.7321 29.2267 86.4184 29.8677 86.4321 30.5906H85.9956C85.9683 29.5813 86.5003 28.8584 87.5642 28.8584C88.4098 28.8584 89.0781 29.3221 89.0781 30.236C89.0781 31.0543 88.4916 31.559 87.8506 31.9682C87.3732 32.2955 86.5003 32.7183 86.3912 33.373H89.1054V33.7822H89.0918Z" fill="url(#paint33_linear_28_297)"/>
<path d="M93.1426 31.368C93.1426 32.5138 92.8698 33.8913 91.4377 33.8913C90.0056 33.8913 89.7328 32.5138 89.7328 31.3817C89.7328 30.2496 90.0056 28.8584 91.4377 28.8584C92.8698 28.8584 93.1426 30.236 93.1426 31.368ZM90.1692 31.368C90.1692 32.2137 90.3193 33.5231 91.4377 33.5231C92.5561 33.5231 92.7062 32.2273 92.7062 31.368C92.7062 30.5088 92.5561 29.2267 91.4377 29.2267C90.3193 29.2267 90.1692 30.5224 90.1692 31.368Z" fill="url(#paint34_linear_28_297)"/>
<path d="M96.8389 33.7822H93.62C93.6609 32.3364 95.1476 31.9682 95.966 31.1498C96.2251 30.877 96.3752 30.6179 96.3752 30.2223C96.3752 29.5813 95.8705 29.2267 95.284 29.2267C94.4793 29.2267 94.1656 29.8677 94.1792 30.5906H93.7428C93.7155 29.5813 94.2474 28.8584 95.3113 28.8584C96.1569 28.8584 96.8253 29.3221 96.8253 30.236C96.8253 31.0543 96.2388 31.559 95.5977 31.9682C95.1203 32.2955 94.2474 32.7183 94.1383 33.373H96.8525V33.7822H96.8389Z" fill="url(#paint35_linear_28_297)"/>
<path d="M97.9164 32.2273C97.8891 33.0048 98.3529 33.5231 99.144 33.5231C99.785 33.5231 100.399 33.1412 100.399 32.4456C100.399 31.7499 99.8805 31.409 99.2258 31.409H98.8575V31.0407H99.2258C99.6759 31.0407 100.221 30.7679 100.221 30.1541C100.221 29.5404 99.7441 29.2267 99.1576 29.2267C98.4211 29.2267 98.0392 29.7313 98.0528 30.4678H97.6163C97.6163 29.5404 98.2028 28.8584 99.1576 28.8584C99.9214 28.8584 100.672 29.2403 100.672 30.0996C100.672 30.6315 100.372 31.0543 99.8532 31.1771C100.494 31.2999 100.863 31.7499 100.863 32.4046C100.863 33.3594 100.085 33.8913 99.1849 33.8913C98.1756 33.8913 97.4527 33.2776 97.5209 32.2273H97.9573H97.9164Z" fill="url(#paint36_linear_28_297)"/>
<path d="M30.1559 51.2538C30.3059 51.4447 30.3878 51.6766 30.3878 51.9358C30.3878 52.3177 30.265 52.6041 30.0059 52.8223C29.7604 53.0406 29.3921 53.136 28.9284 53.136H26.8824V48.7441H28.8738C29.3239 48.7441 29.6649 48.8396 29.9104 49.0306C30.1559 49.2215 30.2787 49.5079 30.2787 49.8626C30.2787 50.1217 30.2105 50.3536 30.0604 50.5173C29.9104 50.6809 29.7331 50.8037 29.5012 50.8582C29.7604 50.9264 29.9786 51.0492 30.1286 51.2402L30.1559 51.2538ZM27.96 50.5309H28.6556C29.0238 50.5309 29.2148 50.3672 29.2148 50.0535C29.2148 49.7398 29.0238 49.5761 28.6556 49.5761H27.9736V50.5173L27.96 50.5309ZM29.3103 51.7857C29.3103 51.6221 29.2557 51.4993 29.1602 51.4175C29.0511 51.322 28.9147 51.2811 28.7238 51.2811H27.9736V52.2631H28.7374C29.1329 52.2631 29.3239 52.0994 29.3239 51.7721L29.3103 51.7857Z" fill="white"/>
<path d="M32.952 49.8072C33.1429 49.9299 33.2793 50.0936 33.3748 50.2982V49.6708H34.425V53.1352H33.3748V52.5078C33.2793 52.7124 33.1429 52.876 32.952 52.9988C32.761 53.1215 32.5292 53.1761 32.27 53.1761C31.9836 53.1761 31.7244 53.1079 31.5062 52.9579C31.2743 52.8078 31.097 52.6032 30.9743 52.3441C30.8515 52.0849 30.7833 51.7576 30.7833 51.403C30.7833 51.0483 30.8515 50.721 30.9743 50.4482C31.1107 50.1754 31.288 49.9708 31.5062 49.8344C31.7381 49.6844 31.9836 49.6162 32.27 49.6162C32.5292 49.6162 32.761 49.6708 32.952 49.7935V49.8072ZM32.0654 50.7756C31.929 50.9256 31.8608 51.1302 31.8608 51.403C31.8608 51.6758 31.929 51.8804 32.0654 52.0304C32.2018 52.1804 32.3928 52.2486 32.611 52.2486C32.8292 52.2486 33.0202 52.1668 33.1566 52.0167C33.3066 51.8667 33.3748 51.6621 33.3748 51.403C33.3748 51.1438 33.3066 50.9392 33.1566 50.7892C33.0202 50.6392 32.8292 50.5573 32.611 50.5573C32.3928 50.5573 32.2018 50.6255 32.0654 50.7756Z" fill="white"/>
<path d="M38.3123 50.0255C38.5441 50.2846 38.6669 50.6529 38.6669 51.1166V53.1352H37.603V51.253C37.603 51.0211 37.5485 50.8438 37.4257 50.7074C37.3029 50.571 37.1393 50.5165 36.9347 50.5165C36.7164 50.5165 36.5528 50.5847 36.4164 50.7211C36.28 50.8575 36.2254 51.0484 36.2254 51.3076V53.1489H35.1616V49.6845H36.2254V50.3119C36.3209 50.1073 36.4709 49.9436 36.6755 49.8209C36.8665 49.6981 37.0984 49.6436 37.3711 49.6436C37.7667 49.6436 38.0804 49.7799 38.3259 50.0391L38.3123 50.0255Z" fill="white"/>
<path d="M40.1672 49.6709L40.9992 51.7986L41.7767 49.6709H42.9497L40.781 54.7856H39.608L40.4264 52.9989L38.967 49.6572H40.1536L40.1672 49.6709Z" fill="white"/>
<path d="M45.3093 49.8072C45.5002 49.9299 45.6366 50.0936 45.7321 50.2982V49.6708H46.7823V53.1352H45.7321V52.5078C45.6366 52.7124 45.5002 52.876 45.3093 52.9988C45.1183 53.1215 44.8865 53.1761 44.6273 53.1761C44.3409 53.1761 44.0817 53.1079 43.8635 52.9579C43.6316 52.8078 43.4543 52.6032 43.3316 52.3441C43.2088 52.0849 43.1406 51.7576 43.1406 51.403C43.1406 51.0483 43.2088 50.721 43.3316 50.4482C43.468 50.1754 43.6453 49.9708 43.8635 49.8344C44.0954 49.6844 44.3409 49.6162 44.6273 49.6162C44.8865 49.6162 45.1183 49.6708 45.3093 49.7935V49.8072ZM44.4091 50.7756C44.2727 50.9256 44.2045 51.1302 44.2045 51.403C44.2045 51.6758 44.2727 51.8804 44.4091 52.0304C44.5455 52.1804 44.7364 52.2486 44.9547 52.2486C45.1729 52.2486 45.3639 52.1668 45.5002 52.0167C45.6503 51.8667 45.7185 51.6621 45.7185 51.403C45.7185 51.1438 45.6503 50.9392 45.5002 50.7892C45.3639 50.6392 45.1729 50.5573 44.9547 50.5573C44.7364 50.5573 44.5455 50.6255 44.4091 50.7756Z" fill="white"/>
<path d="M50.6696 50.0255C50.9014 50.2846 51.0242 50.6529 51.0242 51.1166V53.1352H49.9603V51.253C49.9603 51.0211 49.9058 50.8438 49.783 50.7074C49.6602 50.571 49.4966 50.5165 49.292 50.5165C49.0737 50.5165 48.9101 50.5847 48.7737 50.7211C48.6373 50.8575 48.5827 51.0484 48.5827 51.3076V53.1489H47.5189V49.6845H48.5827V50.3119C48.6782 50.1073 48.8282 49.9436 49.0328 49.8209C49.2238 49.6981 49.4557 49.6436 49.7284 49.6436C50.124 49.6436 50.4377 49.7799 50.6832 50.0391L50.6696 50.0255Z" fill="white"/>
<path d="M56.1117 48.7441V49.5898H54.9114V53.136H53.8475V49.5898H52.6609V48.7441H56.098H56.1117Z" fill="white"/>
<path d="M58.1439 49.8208C58.3485 49.6981 58.5804 49.6299 58.8259 49.6299V50.7619H58.5258C58.2394 50.7619 58.0212 50.8165 57.8711 50.9393C57.7211 51.062 57.6392 51.2666 57.6392 51.553V53.1352H56.5754V49.6708H57.6392V50.3255C57.7756 50.1073 57.9393 49.9436 58.1575 49.8208H58.1439Z" fill="white"/>
<path d="M62.5222 51.5939H60.1216C60.1216 51.8531 60.2035 52.044 60.3262 52.1531C60.449 52.2623 60.599 52.3305 60.79 52.3305C60.9537 52.3305 61.0764 52.2895 61.1855 52.2077C61.2946 52.1259 61.3628 52.0304 61.3901 51.9076H62.5085C62.4676 52.1531 62.3585 52.3714 62.2085 52.5623C62.0584 52.7533 61.8675 52.9033 61.622 53.0124C61.3765 53.1215 61.1173 53.1761 60.8309 53.1761C60.4899 53.1761 60.1898 53.1079 59.9307 52.9579C59.6715 52.8078 59.467 52.6032 59.3169 52.3441C59.1669 52.0849 59.0987 51.7576 59.0987 51.403C59.0987 51.0483 59.1669 50.721 59.3169 50.4482C59.467 50.1754 59.6715 49.9708 59.9307 49.8344C60.1898 49.6844 60.5036 49.6162 60.8445 49.6162C61.1855 49.6162 61.4856 49.6844 61.7584 49.8208C62.0175 49.9572 62.2221 50.1618 62.3585 50.4209C62.5085 50.6801 62.5767 50.9665 62.5767 51.2939C62.5767 51.3757 62.5767 51.4712 62.5495 51.5803L62.5222 51.5939ZM61.2946 50.6392C61.1719 50.5301 61.0082 50.4619 60.8309 50.4619C60.6399 50.4619 60.4763 50.5164 60.3399 50.6392C60.2171 50.7483 60.1353 50.9256 60.1216 51.1438H61.472C61.472 50.912 61.4174 50.7483 61.2946 50.6255V50.6392Z" fill="white"/>
<path d="M66.3685 51.5939H63.968C63.968 51.8531 64.0498 52.044 64.1726 52.1531C64.2953 52.2623 64.4453 52.3305 64.6363 52.3305C64.8 52.3305 64.9227 52.2895 65.0318 52.2077C65.141 52.1259 65.2091 52.0304 65.2364 51.9076H66.3549C66.3139 52.1531 66.2048 52.3714 66.0548 52.5623C65.9048 52.7533 65.7138 52.9033 65.4683 53.0124C65.2228 53.1215 64.9636 53.1761 64.6772 53.1761C64.3362 53.1761 64.0362 53.1079 63.777 52.9579C63.5179 52.8078 63.3133 52.6032 63.1632 52.3441C63.0132 52.0849 62.945 51.7576 62.945 51.403C62.945 51.0483 63.0132 50.721 63.1632 50.4482C63.3133 50.1754 63.5179 49.9708 63.777 49.8344C64.0362 49.6844 64.3499 49.6162 64.6909 49.6162C65.0318 49.6162 65.3319 49.6844 65.6047 49.8208C65.8638 49.9572 66.0684 50.1618 66.2048 50.4209C66.3549 50.6801 66.4231 50.9665 66.4231 51.2939C66.4231 51.3757 66.4231 51.4712 66.3958 51.5803L66.3685 51.5939ZM65.141 50.6392C65.0182 50.5301 64.8545 50.4619 64.6772 50.4619C64.4863 50.4619 64.3226 50.5164 64.1862 50.6392C64.0634 50.7483 63.9816 50.9256 63.968 51.1438H65.3183C65.3183 50.912 65.2637 50.7483 65.141 50.6255V50.6392Z" fill="white"/>
<path d="M71.8788 52.0722C71.7015 52.3995 71.4287 52.6586 71.0877 52.8496C70.7467 53.0406 70.3375 53.136 69.8738 53.136H68.2098V48.7441H69.8738C70.3512 48.7441 70.7467 48.8396 71.1013 49.0169C71.4423 49.1942 71.7151 49.4534 71.8924 49.7807C72.0834 50.1081 72.1652 50.49 72.1652 50.9264C72.1652 51.3629 72.0697 51.7448 71.8924 52.0722H71.8788ZM70.7331 51.8539C70.9649 51.6357 71.0741 51.322 71.0741 50.9264C71.0741 50.5309 70.9649 50.2172 70.7331 49.999C70.5012 49.7807 70.1875 49.6716 69.7647 49.6716H69.26V52.1813H69.7647C70.1738 52.1813 70.5012 52.0722 70.7331 51.8539Z" fill="white"/>
<path d="M75.3023 49.8344C75.5751 49.9708 75.7933 50.1891 75.9433 50.4482C76.0934 50.721 76.1752 51.0347 76.1752 51.3893C76.1752 51.744 76.0934 52.0713 75.9433 52.3305C75.7933 52.6032 75.5751 52.8078 75.3023 52.9442C75.0295 53.0806 74.7294 53.1625 74.3748 53.1625C74.0202 53.1625 73.7201 53.0943 73.4473 52.9442C73.1745 52.7942 72.9563 52.5896 72.8063 52.3305C72.6562 52.0577 72.5744 51.744 72.5744 51.3893C72.5744 51.0347 72.6562 50.7074 72.8063 50.4482C72.9563 50.1754 73.1745 49.9708 73.4473 49.8344C73.7201 49.6844 74.0338 49.6162 74.3748 49.6162C74.7158 49.6162 75.0295 49.6844 75.3023 49.8344ZM73.8565 50.7619C73.7201 50.912 73.6519 51.1165 73.6519 51.403C73.6519 51.6894 73.7201 51.894 73.8565 52.0304C73.9929 52.1804 74.1702 52.2486 74.3748 52.2486C74.5794 52.2486 74.7431 52.1804 74.8795 52.0304C75.0159 51.8804 75.0841 51.6758 75.0841 51.403C75.0841 51.1302 75.0159 50.912 74.8795 50.7619C74.7431 50.6119 74.5794 50.5437 74.3748 50.5437C74.1702 50.5437 74.0065 50.6119 73.8565 50.7619Z" fill="white"/>
<path d="M79.8715 50.0258C80.1033 50.2849 80.2261 50.6532 80.2261 51.1169V53.1356H79.1622V51.2533C79.1622 51.0215 79.1077 50.8442 78.9849 50.7078C78.8621 50.5714 78.6985 50.5168 78.4939 50.5168C78.2757 50.5168 78.112 50.585 77.9756 50.7214C77.8392 50.8578 77.7846 51.0487 77.7846 51.3079V53.1492H76.7208V48.5527H77.7846V50.3122C77.8801 50.1076 78.0301 49.944 78.2347 49.8212C78.4257 49.6984 78.6576 49.6439 78.9303 49.6439C79.3259 49.6439 79.6396 49.7803 79.8851 50.0394L79.8715 50.0258Z" fill="white"/>
<path d="M82.9267 49.8072C83.1177 49.9299 83.2541 50.0936 83.3495 50.2982V49.6708H84.3998V53.1352H83.3495V52.5078C83.2541 52.7124 83.1177 52.876 82.9267 52.9988C82.7358 53.1215 82.5039 53.1761 82.2448 53.1761C81.9583 53.1761 81.6992 53.1079 81.4809 52.9579C81.2491 52.8078 81.0718 52.6032 80.949 52.3441C80.8263 52.0849 80.7581 51.7576 80.7581 51.403C80.7581 51.0483 80.8263 50.721 80.949 50.4482C81.0854 50.1754 81.2627 49.9708 81.4809 49.8344C81.7128 49.6844 81.9583 49.6162 82.2448 49.6162C82.5039 49.6162 82.7358 49.6708 82.9267 49.7935V49.8072ZM82.0265 50.7756C81.8901 50.9256 81.8219 51.1302 81.8219 51.403C81.8219 51.6758 81.8901 51.8804 82.0265 52.0304C82.1629 52.1804 82.3539 52.2486 82.5721 52.2486C82.7903 52.2486 82.9813 52.1668 83.1177 52.0167C83.2677 51.8667 83.3359 51.6621 83.3359 51.403C83.3359 51.1438 83.2677 50.9392 83.1177 50.7892C82.9813 50.6392 82.7903 50.5573 82.5721 50.5573C82.3539 50.5573 82.1629 50.6255 82.0265 50.7756Z" fill="white"/>
<defs>
<linearGradient id="paint0_linear_28_297" x1="23.6499" y1="-28.4962" x2="109.564" y2="31.6399" gradientUnits="userSpaceOnUse">
<stop stop-color="#8C6034"/>
<stop offset="0.04" stop-color="#92683A"/>
<stop offset="0.11" stop-color="#A57E4B"/>
<stop offset="0.2" stop-color="#C4A268"/>
<stop offset="0.3" stop-color="#EED38F"/>
<stop offset="0.33" stop-color="#FFE79F"/>
<stop offset="0.4" stop-color="#FFE78E"/>
<stop offset="0.48" stop-color="#FFE87F"/>
<stop offset="1" stop-color="#A67033"/>
</linearGradient>
<linearGradient id="paint1_linear_28_297" x1="-1.86937" y1="7.96278" x2="84.0315" y2="68.0989" gradientUnits="userSpaceOnUse">
<stop stop-color="#8C6034"/>
<stop offset="0.04" stop-color="#92683A"/>
<stop offset="0.11" stop-color="#A57E4B"/>
<stop offset="0.2" stop-color="#C4A268"/>
<stop offset="0.3" stop-color="#EED38F"/>
<stop offset="0.33" stop-color="#FFE79F"/>
<stop offset="0.4" stop-color="#FFE78E"/>
<stop offset="0.48" stop-color="#FFE87F"/>
<stop offset="1" stop-color="#A67033"/>
</linearGradient>
<linearGradient id="paint2_linear_28_297" x1="13.0385" y1="-13.3427" x2="98.953" y2="46.7934" gradientUnits="userSpaceOnUse">
<stop stop-color="#8C6034"/>
<stop offset="0.04" stop-color="#92683A"/>
<stop offset="0.11" stop-color="#A57E4B"/>
<stop offset="0.2" stop-color="#C4A268"/>
<stop offset="0.3" stop-color="#EED38F"/>
<stop offset="0.33" stop-color="#FFE79F"/>
<stop offset="0.4" stop-color="#FFE78E"/>
<stop offset="0.48" stop-color="#FFE87F"/>
<stop offset="1" stop-color="#A67033"/>
</linearGradient>
<linearGradient id="paint3_linear_28_297" x1="6.6553" y1="-4.21716" x2="92.5698" y2="55.9189" gradientUnits="userSpaceOnUse">
<stop stop-color="#8C6034"/>
<stop offset="0.04" stop-color="#92683A"/>
<stop offset="0.11" stop-color="#A57E4B"/>
<stop offset="0.2" stop-color="#C4A268"/>
<stop offset="0.3" stop-color="#EED38F"/>
<stop offset="0.33" stop-color="#FFE79F"/>
<stop offset="0.4" stop-color="#FFE78E"/>
<stop offset="0.48" stop-color="#FFE87F"/>
<stop offset="1" stop-color="#A67033"/>
</linearGradient>
<linearGradient id="paint4_linear_28_297" x1="10.3652" y1="-9.51011" x2="96.2661" y2="50.626" gradientUnits="userSpaceOnUse">
<stop stop-color="#8C6034"/>
<stop offset="0.04" stop-color="#92683A"/>
<stop offset="0.11" stop-color="#A57E4B"/>
<stop offset="0.2" stop-color="#C4A268"/>
<stop offset="0.3" stop-color="#EED38F"/>
<stop offset="0.33" stop-color="#FFE79F"/>
<stop offset="0.4" stop-color="#FFE78E"/>
<stop offset="0.48" stop-color="#FFE87F"/>
<stop offset="1" stop-color="#A67033"/>
</linearGradient>
<linearGradient id="paint5_linear_28_297" x1="3.72278" y1="-0.0303598" x2="89.6373" y2="60.1057" gradientUnits="userSpaceOnUse">
<stop stop-color="#8C6034"/>
<stop offset="0.04" stop-color="#92683A"/>
<stop offset="0.11" stop-color="#A57E4B"/>
<stop offset="0.2" stop-color="#C4A268"/>
<stop offset="0.3" stop-color="#EED38F"/>
<stop offset="0.33" stop-color="#FFE79F"/>
<stop offset="0.4" stop-color="#FFE78E"/>
<stop offset="0.48" stop-color="#FFE87F"/>
<stop offset="1" stop-color="#A67033"/>
</linearGradient>
<linearGradient id="paint6_linear_28_297" x1="20.1992" y1="-23.5442" x2="106.1" y2="36.5782" gradientUnits="userSpaceOnUse">
<stop stop-color="#8C6034"/>
<stop offset="0.04" stop-color="#92683A"/>
<stop offset="0.11" stop-color="#A57E4B"/>
<stop offset="0.2" stop-color="#C4A268"/>
<stop offset="0.3" stop-color="#EED38F"/>
<stop offset="0.33" stop-color="#FFE79F"/>
<stop offset="0.4" stop-color="#FFE78E"/>
<stop offset="0.48" stop-color="#FFE87F"/>
<stop offset="1" stop-color="#A67033"/>
</linearGradient>
<linearGradient id="paint7_linear_28_297" x1="0.722152" y1="4.26575" x2="86.623" y2="64.4018" gradientUnits="userSpaceOnUse">
<stop stop-color="#8C6034"/>
<stop offset="0.04" stop-color="#92683A"/>
<stop offset="0.11" stop-color="#A57E4B"/>
<stop offset="0.2" stop-color="#C4A268"/>
<stop offset="0.3" stop-color="#EED38F"/>
<stop offset="0.33" stop-color="#FFE79F"/>
<stop offset="0.4" stop-color="#FFE78E"/>
<stop offset="0.48" stop-color="#FFE87F"/>
<stop offset="1" stop-color="#A67033"/>
</linearGradient>
<linearGradient id="paint8_linear_28_297" x1="17.5395" y1="-19.7668" x2="103.454" y2="40.3693" gradientUnits="userSpaceOnUse">
<stop stop-color="#8C6034"/>
<stop offset="0.04" stop-color="#92683A"/>
<stop offset="0.11" stop-color="#A57E4B"/>
<stop offset="0.2" stop-color="#C4A268"/>
<stop offset="0.3" stop-color="#EED38F"/>
<stop offset="0.33" stop-color="#FFE79F"/>
<stop offset="0.4" stop-color="#FFE78E"/>
<stop offset="0.48" stop-color="#FFE87F"/>
<stop offset="1" stop-color="#A67033"/>
</linearGradient>
<linearGradient id="paint9_linear_28_297" x1="8.40107" y1="-6.71353" x2="94.3156" y2="53.4225" gradientUnits="userSpaceOnUse">
<stop stop-color="#8C6034"/>
<stop offset="0.04" stop-color="#92683A"/>
<stop offset="0.11" stop-color="#A57E4B"/>
<stop offset="0.2" stop-color="#C4A268"/>
<stop offset="0.3" stop-color="#EED38F"/>
<stop offset="0.33" stop-color="#FFE79F"/>
<stop offset="0.4" stop-color="#FFE78E"/>
<stop offset="0.48" stop-color="#FFE87F"/>
<stop offset="1" stop-color="#A67033"/>
</linearGradient>
<linearGradient id="paint10_linear_28_297" x1="14.2251" y1="-15.0199" x2="100.126" y2="45.1162" gradientUnits="userSpaceOnUse">
<stop stop-color="#8C6034"/>
<stop offset="0.04" stop-color="#92683A"/>
<stop offset="0.11" stop-color="#A57E4B"/>
<stop offset="0.2" stop-color="#C4A268"/>
<stop offset="0.3" stop-color="#EED38F"/>
<stop offset="0.33" stop-color="#FFE79F"/>
<stop offset="0.4" stop-color="#FFE78E"/>
<stop offset="0.48" stop-color="#FFE87F"/>
<stop offset="1" stop-color="#A67033"/>
</linearGradient>
<linearGradient id="paint11_linear_28_297" x1="11.4018" y1="-10.9964" x2="97.3163" y2="49.1397" gradientUnits="userSpaceOnUse">
<stop stop-color="#8C6034"/>
<stop offset="0.04" stop-color="#92683A"/>
<stop offset="0.11" stop-color="#A57E4B"/>
<stop offset="0.2" stop-color="#C4A268"/>
<stop offset="0.3" stop-color="#EED38F"/>
<stop offset="0.33" stop-color="#FFE79F"/>
<stop offset="0.4" stop-color="#FFE78E"/>
<stop offset="0.48" stop-color="#FFE87F"/>
<stop offset="1" stop-color="#A67033"/>
</linearGradient>
<linearGradient id="paint12_linear_28_297" x1="-7.52971" y1="16.0509" x2="78.3848" y2="76.187" gradientUnits="userSpaceOnUse">
<stop stop-color="#8C6034"/>
<stop offset="0.04" stop-color="#92683A"/>
<stop offset="0.11" stop-color="#A57E4B"/>
<stop offset="0.2" stop-color="#C4A268"/>
<stop offset="0.3" stop-color="#EED38F"/>
<stop offset="0.33" stop-color="#FFE79F"/>
<stop offset="0.4" stop-color="#FFE78E"/>
<stop offset="0.48" stop-color="#FFE87F"/>
<stop offset="1" stop-color="#A67033"/>
</linearGradient>
<linearGradient id="paint13_linear_28_297" x1="-7.27059" y1="15.6822" x2="78.644" y2="75.8183" gradientUnits="userSpaceOnUse">
<stop stop-color="#8C6034"/>
<stop offset="0.04" stop-color="#92683A"/>
<stop offset="0.11" stop-color="#A57E4B"/>
<stop offset="0.2" stop-color="#C4A268"/>
<stop offset="0.3" stop-color="#EED38F"/>
<stop offset="0.33" stop-color="#FFE79F"/>
<stop offset="0.4" stop-color="#FFE78E"/>
<stop offset="0.48" stop-color="#FFE87F"/>
<stop offset="1" stop-color="#A67033"/>
</linearGradient>
<linearGradient id="paint14_linear_28_297" x1="-6.43854" y1="14.4961" x2="79.476" y2="74.6185" gradientUnits="userSpaceOnUse">
<stop stop-color="#8C6034"/>
<stop offset="0.04" stop-color="#92683A"/>
<stop offset="0.11" stop-color="#A57E4B"/>
<stop offset="0.2" stop-color="#C4A268"/>
<stop offset="0.3" stop-color="#EED38F"/>
<stop offset="0.33" stop-color="#FFE79F"/>
<stop offset="0.4" stop-color="#FFE78E"/>
<stop offset="0.48" stop-color="#FFE87F"/>
<stop offset="1" stop-color="#A67033"/>
</linearGradient>
<linearGradient id="paint15_linear_28_297" x1="-5.03371" y1="12.4913" x2="80.8673" y2="72.6274" gradientUnits="userSpaceOnUse">
<stop stop-color="#8C6034"/>
<stop offset="0.04" stop-color="#92683A"/>
<stop offset="0.11" stop-color="#A57E4B"/>
<stop offset="0.2" stop-color="#C4A268"/>
<stop offset="0.3" stop-color="#EED38F"/>
<stop offset="0.33" stop-color="#FFE79F"/>
<stop offset="0.4" stop-color="#FFE78E"/>
<stop offset="0.48" stop-color="#FFE87F"/>
<stop offset="1" stop-color="#A67033"/>
</linearGradient>
<linearGradient id="paint16_linear_28_297" x1="-4.13351" y1="11.1954" x2="81.781" y2="71.3314" gradientUnits="userSpaceOnUse">
<stop stop-color="#8C6034"/>
<stop offset="0.04" stop-color="#92683A"/>
<stop offset="0.11" stop-color="#A57E4B"/>
<stop offset="0.2" stop-color="#C4A268"/>
<stop offset="0.3" stop-color="#EED38F"/>
<stop offset="0.33" stop-color="#FFE79F"/>
<stop offset="0.4" stop-color="#FFE78E"/>
<stop offset="0.48" stop-color="#FFE87F"/>
<stop offset="1" stop-color="#A67033"/>
</linearGradient>
<linearGradient id="paint17_linear_28_297" x1="-3.0014" y1="9.59944" x2="82.8995" y2="69.7354" gradientUnits="userSpaceOnUse">
<stop stop-color="#8C6034"/>
<stop offset="0.04" stop-color="#92683A"/>
<stop offset="0.11" stop-color="#A57E4B"/>
<stop offset="0.2" stop-color="#C4A268"/>
<stop offset="0.3" stop-color="#EED38F"/>
<stop offset="0.33" stop-color="#FFE79F"/>
<stop offset="0.4" stop-color="#FFE78E"/>
<stop offset="0.48" stop-color="#FFE87F"/>
<stop offset="1" stop-color="#A67033"/>
</linearGradient>
<linearGradient id="paint18_linear_28_297" x1="-2.5786" y1="8.98566" x2="83.3223" y2="69.1217" gradientUnits="userSpaceOnUse">
<stop stop-color="#8C6034"/>
<stop offset="0.04" stop-color="#92683A"/>
<stop offset="0.11" stop-color="#A57E4B"/>
<stop offset="0.2" stop-color="#C4A268"/>
<stop offset="0.3" stop-color="#EED38F"/>
<stop offset="0.33" stop-color="#FFE79F"/>
<stop offset="0.4" stop-color="#FFE78E"/>
<stop offset="0.48" stop-color="#FFE87F"/>
<stop offset="1" stop-color="#A67033"/>
</linearGradient>
<linearGradient id="paint19_linear_28_297" x1="-2.08761" y1="8.29016" x2="83.8133" y2="68.4126" gradientUnits="userSpaceOnUse">
<stop stop-color="#8C6034"/>
<stop offset="0.04" stop-color="#92683A"/>
<stop offset="0.11" stop-color="#A57E4B"/>
<stop offset="0.2" stop-color="#C4A268"/>
<stop offset="0.3" stop-color="#EED38F"/>
<stop offset="0.33" stop-color="#FFE79F"/>
<stop offset="0.4" stop-color="#FFE78E"/>
<stop offset="0.48" stop-color="#FFE87F"/>
<stop offset="1" stop-color="#A67033"/>
</linearGradient>
<linearGradient id="paint20_linear_28_297" x1="-1.06464" y1="6.81655" x2="84.8362" y2="66.9526" gradientUnits="userSpaceOnUse">
<stop stop-color="#8C6034"/>
<stop offset="0.04" stop-color="#92683A"/>
<stop offset="0.11" stop-color="#A57E4B"/>
<stop offset="0.2" stop-color="#C4A268"/>
<stop offset="0.3" stop-color="#EED38F"/>
<stop offset="0.33" stop-color="#FFE79F"/>
<stop offset="0.4" stop-color="#FFE78E"/>
<stop offset="0.48" stop-color="#FFE87F"/>
<stop offset="1" stop-color="#A67033"/>
</linearGradient>
<linearGradient id="paint21_linear_28_297" x1="0.817593" y1="4.13004" x2="86.7322" y2="64.2525" gradientUnits="userSpaceOnUse">
<stop stop-color="#8C6034"/>
<stop offset="0.04" stop-color="#92683A"/>
<stop offset="0.11" stop-color="#A57E4B"/>
<stop offset="0.2" stop-color="#C4A268"/>
<stop offset="0.3" stop-color="#EED38F"/>
<stop offset="0.33" stop-color="#FFE79F"/>
<stop offset="0.4" stop-color="#FFE78E"/>
<stop offset="0.48" stop-color="#FFE87F"/>
<stop offset="1" stop-color="#A67033"/>
</linearGradient>
<linearGradient id="paint22_linear_28_297" x1="1.99058" y1="2.4525" x2="87.8914" y2="62.5885" gradientUnits="userSpaceOnUse">
<stop stop-color="#8C6034"/>
<stop offset="0.04" stop-color="#92683A"/>
<stop offset="0.11" stop-color="#A57E4B"/>
<stop offset="0.2" stop-color="#C4A268"/>
<stop offset="0.3" stop-color="#EED38F"/>
<stop offset="0.33" stop-color="#FFE79F"/>
<stop offset="0.4" stop-color="#FFE78E"/>
<stop offset="0.48" stop-color="#FFE87F"/>
<stop offset="1" stop-color="#A67033"/>
</linearGradient>
<linearGradient id="paint23_linear_28_297" x1="3.32728" y1="0.529565" x2="89.2419" y2="60.6656" gradientUnits="userSpaceOnUse">
<stop stop-color="#8C6034"/>
<stop offset="0.04" stop-color="#92683A"/>
<stop offset="0.11" stop-color="#A57E4B"/>
<stop offset="0.2" stop-color="#C4A268"/>
<stop offset="0.3" stop-color="#EED38F"/>
<stop offset="0.33" stop-color="#FFE79F"/>
<stop offset="0.4" stop-color="#FFE78E"/>
<stop offset="0.48" stop-color="#FFE87F"/>
<stop offset="1" stop-color="#A67033"/>
</linearGradient>
<linearGradient id="paint24_linear_28_297" x1="4.17294" y1="-0.657392" x2="90.0738" y2="59.465" gradientUnits="userSpaceOnUse">
<stop stop-color="#8C6034"/>
<stop offset="0.04" stop-color="#92683A"/>
<stop offset="0.11" stop-color="#A57E4B"/>
<stop offset="0.2" stop-color="#C4A268"/>
<stop offset="0.3" stop-color="#EED38F"/>
<stop offset="0.33" stop-color="#FFE79F"/>
<stop offset="0.4" stop-color="#FFE78E"/>
<stop offset="0.48" stop-color="#FFE87F"/>
<stop offset="1" stop-color="#A67033"/>
</linearGradient>
<linearGradient id="paint25_linear_28_297" x1="4.66395" y1="-1.36652" x2="90.5784" y2="58.7695" gradientUnits="userSpaceOnUse">
<stop stop-color="#8C6034"/>
<stop offset="0.04" stop-color="#92683A"/>
<stop offset="0.11" stop-color="#A57E4B"/>
<stop offset="0.2" stop-color="#C4A268"/>
<stop offset="0.3" stop-color="#EED38F"/>
<stop offset="0.33" stop-color="#FFE79F"/>
<stop offset="0.4" stop-color="#FFE78E"/>
<stop offset="0.48" stop-color="#FFE87F"/>
<stop offset="1" stop-color="#A67033"/>
</linearGradient>
<linearGradient id="paint26_linear_28_297" x1="6.28706" y1="-3.68501" x2="92.2016" y2="56.451" gradientUnits="userSpaceOnUse">
<stop stop-color="#8C6034"/>
<stop offset="0.04" stop-color="#92683A"/>
<stop offset="0.11" stop-color="#A57E4B"/>
<stop offset="0.2" stop-color="#C4A268"/>
<stop offset="0.3" stop-color="#EED38F"/>
<stop offset="0.33" stop-color="#FFE79F"/>
<stop offset="0.4" stop-color="#FFE78E"/>
<stop offset="0.48" stop-color="#FFE87F"/>
<stop offset="1" stop-color="#A67033"/>
</linearGradient>
<linearGradient id="paint27_linear_28_297" x1="8.3193" y1="-6.57689" x2="94.2202" y2="53.5591" gradientUnits="userSpaceOnUse">
<stop stop-color="#8C6034"/>
<stop offset="0.04" stop-color="#92683A"/>
<stop offset="0.11" stop-color="#A57E4B"/>
<stop offset="0.2" stop-color="#C4A268"/>
<stop offset="0.3" stop-color="#EED38F"/>
<stop offset="0.33" stop-color="#FFE79F"/>
<stop offset="0.4" stop-color="#FFE78E"/>
<stop offset="0.48" stop-color="#FFE87F"/>
<stop offset="1" stop-color="#A67033"/>
</linearGradient>
<linearGradient id="paint28_linear_28_297" x1="10.0378" y1="-9.03166" x2="95.9388" y2="51.1044" gradientUnits="userSpaceOnUse">
<stop stop-color="#8C6034"/>
<stop offset="0.04" stop-color="#92683A"/>
<stop offset="0.11" stop-color="#A57E4B"/>
<stop offset="0.2" stop-color="#C4A268"/>
<stop offset="0.3" stop-color="#EED38F"/>
<stop offset="0.33" stop-color="#FFE79F"/>
<stop offset="0.4" stop-color="#FFE78E"/>
<stop offset="0.48" stop-color="#FFE87F"/>
<stop offset="1" stop-color="#A67033"/>
</linearGradient>
<linearGradient id="paint29_linear_28_297" x1="11.2381" y1="-10.7641" x2="97.1526" y2="49.372" gradientUnits="userSpaceOnUse">
<stop stop-color="#8C6034"/>
<stop offset="0.04" stop-color="#92683A"/>
<stop offset="0.11" stop-color="#A57E4B"/>
<stop offset="0.2" stop-color="#C4A268"/>
<stop offset="0.3" stop-color="#EED38F"/>
<stop offset="0.33" stop-color="#FFE79F"/>
<stop offset="0.4" stop-color="#FFE78E"/>
<stop offset="0.48" stop-color="#FFE87F"/>
<stop offset="1" stop-color="#A67033"/>
</linearGradient>
<linearGradient id="paint30_linear_28_297" x1="12.3294" y1="-12.3059" x2="98.2302" y2="47.8301" gradientUnits="userSpaceOnUse">
<stop stop-color="#8C6034"/>
<stop offset="0.04" stop-color="#92683A"/>
<stop offset="0.11" stop-color="#A57E4B"/>
<stop offset="0.2" stop-color="#C4A268"/>
<stop offset="0.3" stop-color="#EED38F"/>
<stop offset="0.33" stop-color="#FFE79F"/>
<stop offset="0.4" stop-color="#FFE78E"/>
<stop offset="0.48" stop-color="#FFE87F"/>
<stop offset="1" stop-color="#A67033"/>
</linearGradient>
<linearGradient id="paint31_linear_28_297" x1="13.6795" y1="-14.2422" x2="99.5804" y2="45.894" gradientUnits="userSpaceOnUse">
<stop stop-color="#8C6034"/>
<stop offset="0.04" stop-color="#92683A"/>
<stop offset="0.11" stop-color="#A57E4B"/>
<stop offset="0.2" stop-color="#C4A268"/>
<stop offset="0.3" stop-color="#EED38F"/>
<stop offset="0.33" stop-color="#FFE79F"/>
<stop offset="0.4" stop-color="#FFE78E"/>
<stop offset="0.48" stop-color="#FFE87F"/>
<stop offset="1" stop-color="#A67033"/>
</linearGradient>
<linearGradient id="paint32_linear_28_297" x1="14.416" y1="-15.3059" x2="100.331" y2="44.8303" gradientUnits="userSpaceOnUse">
<stop stop-color="#8C6034"/>
<stop offset="0.04" stop-color="#92683A"/>
<stop offset="0.11" stop-color="#A57E4B"/>
<stop offset="0.2" stop-color="#C4A268"/>
<stop offset="0.3" stop-color="#EED38F"/>
<stop offset="0.33" stop-color="#FFE79F"/>
<stop offset="0.4" stop-color="#FFE78E"/>
<stop offset="0.48" stop-color="#FFE87F"/>
<stop offset="1" stop-color="#A67033"/>
</linearGradient>
<linearGradient id="paint33_linear_28_297" x1="16.3801" y1="-18.1157" x2="102.295" y2="42.0205" gradientUnits="userSpaceOnUse">
<stop stop-color="#8C6034"/>
<stop offset="0.04" stop-color="#92683A"/>
<stop offset="0.11" stop-color="#A57E4B"/>
<stop offset="0.2" stop-color="#C4A268"/>
<stop offset="0.3" stop-color="#EED38F"/>
<stop offset="0.33" stop-color="#FFE79F"/>
<stop offset="0.4" stop-color="#FFE78E"/>
<stop offset="0.48" stop-color="#FFE87F"/>
<stop offset="1" stop-color="#A67033"/>
</linearGradient>
<linearGradient id="paint34_linear_28_297" x1="17.8123" y1="-20.1616" x2="103.727" y2="39.9745" gradientUnits="userSpaceOnUse">
<stop stop-color="#8C6034"/>
<stop offset="0.04" stop-color="#92683A"/>
<stop offset="0.11" stop-color="#A57E4B"/>
<stop offset="0.2" stop-color="#C4A268"/>
<stop offset="0.3" stop-color="#EED38F"/>
<stop offset="0.33" stop-color="#FFE79F"/>
<stop offset="0.4" stop-color="#FFE78E"/>
<stop offset="0.48" stop-color="#FFE87F"/>
<stop offset="1" stop-color="#A67033"/>
</linearGradient>
<linearGradient id="paint35_linear_28_297" x1="18.9306" y1="-21.7574" x2="104.845" y2="38.3788" gradientUnits="userSpaceOnUse">
<stop stop-color="#8C6034"/>
<stop offset="0.04" stop-color="#92683A"/>
<stop offset="0.11" stop-color="#A57E4B"/>
<stop offset="0.2" stop-color="#C4A268"/>
<stop offset="0.3" stop-color="#EED38F"/>
<stop offset="0.33" stop-color="#FFE79F"/>
<stop offset="0.4" stop-color="#FFE78E"/>
<stop offset="0.48" stop-color="#FFE87F"/>
<stop offset="1" stop-color="#A67033"/>
</linearGradient>
<linearGradient id="paint36_linear_28_297" x1="20.349" y1="-23.776" x2="106.25" y2="36.3602" gradientUnits="userSpaceOnUse">
<stop stop-color="#8C6034"/>
<stop offset="0.04" stop-color="#92683A"/>
<stop offset="0.11" stop-color="#A57E4B"/>
<stop offset="0.2" stop-color="#C4A268"/>
<stop offset="0.3" stop-color="#EED38F"/>
<stop offset="0.33" stop-color="#FFE79F"/>
<stop offset="0.4" stop-color="#FFE78E"/>
<stop offset="0.48" stop-color="#FFE87F"/>
<stop offset="1" stop-color="#A67033"/>
</linearGradient>
</defs>
</svg>
