<svg width="58" height="58" viewBox="0 0 58 58" fill="none" xmlns="http://www.w3.org/2000/svg">
<path d="M53.7064 48.2583C53.4481 48.1123 53.0325 48.0225 52.6842 48.0225C52.5607 48.0225 52.4484 48.0225 52.3473 48.0562C49.9772 48.5953 50.3591 52.0212 52.7292 52.0212C52.7629 52.0212 52.7966 52.0212 52.8303 52.0212C54.8521 51.9426 55.4699 49.2805 53.7064 48.2696V48.2583ZM54.0209 50.9991C53.6839 51.4371 53.2234 51.6393 52.7629 51.6393C51.9204 51.6393 51.1117 50.9766 51.1566 49.9544C51.2016 49.0671 51.898 48.4381 52.7516 48.4381C52.8864 48.4381 53.0212 48.4493 53.156 48.483C54.2456 48.7413 54.7173 50.0892 54.0321 50.9991H54.0209Z" fill="white"/>
<path d="M53.0997 50.2018L53.0323 50.1345L53.1222 50.0783C53.4704 49.8649 53.3581 49.2583 52.9425 49.1797C52.8526 49.1572 52.6954 49.1572 52.5493 49.1572C52.3359 49.1572 52.1337 49.1685 52.1 49.2022C52.0663 49.2359 52.0551 49.3594 52.0551 50.0895C52.0551 50.9544 52.0551 50.9881 52.2124 50.9881C52.2236 50.9881 52.2461 50.9881 52.2685 50.9881C52.4707 50.9881 52.4819 50.9769 52.4819 50.5838V50.2355H52.5606C52.7178 50.2355 52.7965 50.3479 52.9425 50.7298C53.0211 50.9544 53.066 50.9881 53.2233 50.9881C53.4704 50.9881 53.4704 50.9544 53.3244 50.6174C53.1784 50.2805 53.1671 50.258 53.0997 50.1906V50.2018ZM52.6729 49.9323H52.5044V49.4605H52.628C52.6954 49.4605 52.7852 49.4717 52.8302 49.4942C53.0885 49.5953 52.9762 49.9098 52.6729 49.9323Z" fill="white"/>
<path d="M23.0529 20.0317C23.0529 20.0317 23.1764 20.1328 23.2101 20.1665C23.2775 20.2339 25.5914 22.3681 25.7711 22.5366L25.861 22.6152L25.7486 23.1207C25.6925 23.4015 25.6363 23.6598 25.6363 23.7047C25.6363 23.7497 25.5689 24.0529 25.5015 24.3787C25.4341 24.7044 25.3667 25.0077 25.3667 25.0526C25.3667 25.0976 25.2993 25.4233 25.2207 25.7715C25.0522 26.5465 25.041 26.6139 25.0859 26.6926C25.1196 26.7712 25.2207 26.7937 25.3106 26.76C25.333 26.7487 25.3892 26.715 25.4341 26.6926C25.4791 26.6701 25.524 26.6476 25.5465 26.6476C25.5689 26.6476 25.6925 26.5802 25.816 26.5128C25.9396 26.4455 26.0632 26.3893 26.0744 26.3893C26.0856 26.3893 26.1755 26.3444 26.2766 26.2882C26.3777 26.232 27.0179 25.9063 27.6919 25.5693L28.9274 24.9515L29.051 25.0077C29.1184 25.0414 29.6238 25.2885 30.163 25.5581C30.7022 25.8277 31.3536 26.1646 31.6007 26.2882C31.8479 26.4118 32.1174 26.5578 32.1961 26.5915C32.2747 26.6364 32.3421 26.6701 32.3533 26.6701C32.3646 26.6701 32.4207 26.6926 32.4656 26.7263C32.578 26.7937 32.7015 26.8049 32.7352 26.7375C32.8026 26.6252 32.7802 26.4904 32.6117 25.6929C32.5443 25.3784 32.4881 25.0976 32.4769 25.0526C32.4769 25.0077 32.4095 24.7269 32.3421 24.4012C32.2747 24.0866 32.2073 23.7834 32.2073 23.7384C32.2073 23.6935 32.1399 23.4015 32.0725 23.1094L31.9602 22.5703L32.1287 22.4242C32.2185 22.3456 32.3758 22.1996 32.4656 22.1097C32.5667 22.0199 32.7015 21.8963 32.7914 21.8289C32.87 21.7615 32.9599 21.6829 32.9823 21.6604C33.0048 21.638 33.2295 21.4358 33.4653 21.2224C33.7012 21.009 33.9596 20.7731 34.0382 20.7057C34.1168 20.6383 34.2291 20.526 34.2965 20.4698C34.4089 20.3687 34.7009 20.1104 34.9256 19.9082C35.0379 19.8071 35.0491 19.7397 34.9817 19.6498C34.9255 19.5824 34.8806 19.56 34.6335 19.5487C34.51 19.5487 32.87 19.3353 32.5892 19.3016C32.5555 19.3016 32.4544 19.2904 32.3646 19.2792C31.9265 19.2455 30.7695 19.077 30.7583 19.0545C30.7134 18.9871 30.5561 18.6726 30.5674 18.6726C30.5674 18.6726 30.5561 18.6277 30.5224 18.5715C30.4887 18.5154 30.3202 18.1784 30.1518 17.8189C29.9833 17.4595 29.8148 17.1113 29.7811 17.0551C29.7474 16.9877 29.7249 16.9316 29.7249 16.9203C29.7249 16.9091 29.6688 16.7968 29.6126 16.6732C29.5452 16.5497 29.5003 16.4261 29.5003 16.4149C29.5003 16.4037 29.4554 16.2913 29.388 16.1565C29.2195 15.8083 29.1745 15.7072 29.1745 15.6735C29.1745 15.6511 29.1745 15.6398 29.1521 15.6398C29.1296 15.6398 29.1184 15.6061 29.1071 15.5612C29.051 15.3815 28.9274 15.3253 28.8263 15.4152C28.7926 15.4489 28.7477 15.5163 28.7252 15.5725C28.7028 15.6286 28.6241 15.8083 28.5455 15.9656C28.4669 16.1228 28.3995 16.2576 28.3995 16.2801C28.3995 16.2913 28.2647 16.5609 28.1187 16.8754C27.9614 17.1899 27.8379 17.4483 27.8379 17.4483C27.8379 17.4483 27.7143 17.7066 27.5683 17.9987C27.4223 18.3019 27.2426 18.6726 27.1639 18.8299C27.0853 18.9871 27.0179 19.1107 27.0179 19.1107C27.0179 19.1107 26.7259 19.1444 26.3664 19.1893C26.0182 19.2342 25.67 19.2679 25.5914 19.2792C25.5128 19.2792 24.9961 19.3466 24.4457 19.4139C23.8953 19.4813 23.3674 19.5487 23.2775 19.5487C22.7159 19.5937 22.6597 19.7285 23.0416 20.0317H23.0529Z" fill="white"/>
<path d="M37.2284 30.0502L37.8012 30.0278L37.8574 29.9716C37.8574 29.9716 37.9136 29.8817 37.9248 29.848C37.9248 29.8143 37.9473 29.7807 37.9585 29.7807C37.9697 29.7807 37.981 29.7694 37.9697 29.747C37.9697 29.7357 37.9922 29.6459 38.0147 29.556C38.0484 29.4661 38.0708 29.3875 38.0708 29.3763C38.0708 29.365 38.0933 29.2752 38.127 29.1741C38.1494 29.073 38.1831 28.9719 38.1831 28.9495C38.2056 28.8596 38.2168 28.8259 38.2168 28.8259C38.2168 28.8259 38.2168 28.7922 38.2281 28.7585C38.2281 28.7248 38.2618 28.59 38.2842 28.4665C38.3516 28.1295 38.3516 27.9835 38.273 27.961C38.0371 27.9048 22.4577 27.8711 20.1214 27.9273C19.7058 27.9273 19.3239 27.9498 19.2789 27.961L19.1891 27.9835V28.1182C19.1891 28.1969 19.2116 28.3766 19.2452 28.5338C19.2789 28.6911 19.3126 28.8371 19.3126 28.8708C19.3126 28.9045 19.3126 28.927 19.3239 28.927C19.3239 28.927 19.3239 28.9495 19.3351 28.9719C19.3576 29.0618 19.5036 29.5785 19.5485 29.6908C19.571 29.7582 19.5935 29.8031 19.5822 29.8031C19.5598 29.8031 19.6608 29.9716 19.6945 30.0053C19.8293 30.1176 34.308 30.1626 37.2172 30.0502H37.2284Z" fill="white"/>
<path d="M36.8014 31.6348C36.8014 31.6348 36.8014 31.5898 36.8239 31.5786C36.8239 31.5786 36.8464 31.5561 36.8464 31.5449C36.8464 31.5337 36.8464 31.5224 36.8464 31.5224C36.8464 31.5224 36.8464 31.5 36.8576 31.4663C36.8576 31.4438 36.8913 31.3315 36.9138 31.2304C36.9362 31.1181 36.9699 30.9608 36.9699 30.8709V30.7025L36.6105 30.6912C35.8804 30.6575 30.9493 30.6463 26.0969 30.6575C23.3899 30.6575 21.0311 30.68 20.8514 30.6912L20.5256 30.7137V30.8709C20.5481 30.9608 20.5818 31.1405 20.6155 31.2753C20.6492 31.4101 20.6717 31.5337 20.6717 31.5561C20.6717 31.5786 20.6717 31.6011 20.6941 31.6011C20.7166 31.6011 20.7166 31.6235 20.7166 31.646C20.7166 31.7471 21.0086 31.7471 28.2423 31.7583C35.7231 31.7583 36.8014 31.7583 36.8014 31.646V31.6348Z" fill="white"/>
<path d="M28.22 32.5893C28.0852 32.6342 28.0964 32.5668 28.0627 33.589C28.0402 34.5325 28.0627 42.2155 28.0852 42.5075C28.1076 42.7209 28.0964 42.7209 28.6693 42.7322C29.2646 42.7322 29.3544 42.7322 29.4106 42.6536C29.4555 42.5637 29.4668 42.0919 29.4668 37.6551C29.4668 33.2183 29.4668 32.7128 29.3994 32.6342C29.3544 32.5781 28.366 32.5331 28.2312 32.5893H28.22Z" fill="white"/>
<path d="M26.6473 32.7583C26.5799 32.7246 26.5799 32.7246 26.5687 32.7471C26.5687 32.7471 26.5125 32.7583 26.4676 32.7696C26.2654 32.8033 26.198 32.8145 25.8161 32.9044C25.5915 32.9493 25.4117 32.9942 25.4117 32.9942C25.4117 32.9942 25.4117 35.0947 25.4117 37.6669V42.3396L25.5465 42.3621C25.6139 42.3733 25.8386 42.4295 26.0408 42.4632C26.4227 42.5418 26.6136 42.5643 26.6698 42.5418C26.7147 42.5193 26.7259 41.9015 26.7259 37.139C26.7259 32.646 26.7259 32.8033 26.6585 32.7696L26.6473 32.7583Z" fill="white"/>
<path d="M32.1064 33.0044C32.1064 33.0044 32.0278 32.982 31.9267 32.9595C31.6683 32.8809 31.1292 32.7686 30.9382 32.7461C30.8596 32.7461 30.8483 32.7461 30.8371 32.8023C30.7922 32.982 30.8034 42.4846 30.8596 42.5296C30.9045 42.5745 31.1853 42.5408 31.6346 42.4285C31.9491 42.3498 31.9042 42.3611 31.9604 42.3386C31.9828 42.3386 32.0165 42.3161 32.039 42.3161C32.0614 42.3161 32.0839 42.3161 32.0951 42.3049H32.1176C32.2187 42.3161 32.2187 42.2038 32.2187 37.8793C32.2187 33.5548 32.2187 33.1168 32.1625 33.0606C32.1401 33.0381 32.1176 33.0157 32.1176 33.0157L32.1064 33.0044Z" fill="white"/>
<path d="M34.8808 34.0831C34.8808 34.0831 34.8584 34.0269 34.8359 34.0157C34.8134 34.0045 34.7573 33.9708 34.7124 33.9371C34.6787 33.9146 34.6337 33.8922 34.6225 33.8922C34.6113 33.8922 34.4652 33.8248 34.2968 33.7461C34.1283 33.6675 33.9822 33.6113 33.9598 33.6113C33.9373 33.6113 33.9261 33.6113 33.9148 33.5889C33.8812 33.5664 33.7127 33.5215 33.6565 33.5215H33.6003V37.4753C33.6228 39.6544 33.634 41.4741 33.634 41.5302C33.634 41.5864 33.634 41.6762 33.634 41.7212V41.811L33.7351 41.7998C33.7913 41.7998 33.8362 41.7773 33.8475 41.7549C33.8475 41.7436 33.8699 41.7436 33.8699 41.7549C33.8699 41.7661 33.8812 41.7549 33.8924 41.7549C33.9036 41.7436 33.9373 41.7324 33.9485 41.7324C33.9598 41.7324 34.0609 41.6987 34.1507 41.6538C34.2518 41.6088 34.3305 41.5639 34.3529 41.5639C34.4989 41.5414 34.8584 41.3168 34.8584 41.2494C34.8584 41.2269 34.8584 41.1146 34.8696 40.9911C34.9258 39.9015 34.9258 35.3973 34.8696 34.3639C34.8696 34.2404 34.8584 34.128 34.8584 34.1056L34.8808 34.0831Z" fill="white"/>
<path d="M23.7044 33.5556C23.7044 33.5556 23.6594 33.5781 23.637 33.5781C23.6145 33.5781 23.592 33.5893 23.5808 33.6005C23.5696 33.6005 23.4348 33.6679 23.2775 33.7353C23.1203 33.8027 22.9967 33.8589 22.9855 33.8477C22.9855 33.8477 22.9743 33.8477 22.9743 33.8589C22.9743 33.8701 22.9743 33.8814 22.9518 33.8814C22.9181 33.8814 22.671 34.0274 22.6597 34.0611C22.6148 34.1622 22.5924 39.9019 22.6373 40.8005C22.6373 41.014 22.6597 41.2049 22.6597 41.2274C22.6597 41.2948 22.7608 41.3734 22.9967 41.4745C23.0417 41.4969 23.1989 41.5643 23.3449 41.6205C23.4909 41.6767 23.6257 41.7441 23.6482 41.7441C23.6707 41.7441 23.6931 41.7553 23.6931 41.7665C23.7381 41.8115 23.8953 41.8115 23.9065 41.7665C23.9065 41.7328 23.9065 41.6093 23.9178 41.4745C23.929 41.2274 23.9402 34.0498 23.9178 33.814C23.9065 33.5668 23.8616 33.5107 23.7044 33.5668V33.5556Z" fill="white"/>
<path d="M42.8894 7.70977C42.5075 7.46265 42.4289 7.40649 41.9122 7.09198C37.745 4.56468 32.769 3.28419 27.7706 3.46391C16.2012 3.86827 6.22675 12.2252 3.77808 23.57C3.31755 25.7041 3.18276 27.3104 3.23892 29.9163C3.36248 35.5438 5.57527 41.2274 9.34937 45.6193C15.6845 52.9877 25.5016 56.1216 34.9481 53.7852C45.3493 51.2018 53.0997 42.272 54.1893 31.5787C54.2679 30.8149 54.3016 29.2424 54.2679 27.8945C54.1443 22.5254 51.8866 16.7182 48.2922 12.5285C46.6411 10.5965 44.9113 9.05766 42.8782 7.69854L42.8894 7.70977ZM41.0249 13.6405C41.272 13.4945 41.227 13.2698 40.8114 12.6183C39.8005 11.0346 39.677 10.574 40.0813 9.90009C40.4071 9.3497 41.0361 9.13629 41.6988 9.36094C42.384 9.59682 43.5072 10.4393 44.0127 11.1132L44.1138 11.248L43.8105 11.5513C43.3724 11.9781 43.4398 11.9893 42.8782 11.4389C42.2043 10.7875 41.4741 10.3494 41.227 10.4392C40.9687 10.5516 41.0585 10.8212 41.7437 11.9332C42.4177 13.0339 42.5188 13.326 42.3615 13.7977C41.9908 14.9772 40.5306 15.1119 39.2614 14.0898C38.7447 13.6742 37.9584 12.7644 37.9584 12.5959C37.9584 12.5173 38.1606 12.3263 38.666 11.9444C38.6885 11.9332 38.7334 11.9781 38.8345 12.1017C39.7331 13.2137 40.6654 13.8539 41.0361 13.6293L41.0249 13.6405ZM34.072 9.25984C34.1506 9.06889 34.3752 8.43988 34.555 7.96811C35.0604 6.58652 35.1278 6.41804 35.1952 6.35064C35.2401 6.29448 35.2738 6.29448 35.5659 6.39557C36.3634 6.66515 37.5877 7.11445 38.3628 7.41772L38.7447 7.56375V7.65361C38.7447 7.74346 38.5986 8.22646 38.52 8.36125C38.4302 8.52973 38.3291 8.54097 37.9359 8.39495C37.4979 8.23769 36.4645 7.86702 36.2061 7.76593L35.9703 7.67607L35.9478 7.73223C35.8242 8.04674 35.6782 8.47357 35.6894 8.49604C35.7231 8.5522 36.0601 8.68699 36.9475 9.03519C37.6102 9.28231 37.8573 9.3834 37.891 9.42833C37.9472 9.47326 37.7787 10.0349 37.6327 10.282C37.554 10.428 37.5316 10.4168 36.2398 9.94502C35.6782 9.73161 35.3188 9.60805 35.2963 9.60805C35.2626 9.60805 34.9144 10.4617 34.9144 10.5516C34.9144 10.6077 35.2851 10.7538 36.5768 11.2368C37.3631 11.5288 37.2957 11.4951 37.2957 11.585C37.2957 11.6636 37.116 12.2252 37.0486 12.3712C36.9699 12.5397 37.0486 12.5622 35.2851 11.9107C34.1169 11.4839 33.4767 11.2255 33.4205 11.1806C33.398 11.1581 33.7462 10.1247 34.072 9.25984ZM28.3434 5.45205C28.3547 5.33972 28.3996 5.31726 28.6018 5.32849C28.6467 5.32849 28.7815 5.33972 28.905 5.35096C29.4554 5.38465 29.4105 5.35096 30.1518 6.55283C30.983 7.91195 31.466 8.69822 31.4885 8.72069C31.511 8.73192 31.5334 8.50727 31.6345 7.3054C31.7244 6.23832 31.7806 5.74409 31.8142 5.66546L31.8367 5.6093H32.1849C32.5107 5.643 32.8027 5.66546 32.8926 5.69916C32.9824 5.72163 32.9937 5.5756 32.6455 9.8327C32.6005 10.3831 32.5668 10.8436 32.5668 10.8661C32.5668 10.9222 32.4208 10.9335 31.994 10.911C31.3537 10.8661 31.4548 10.9335 31.1291 10.3831C29.5902 7.83332 29.388 7.49635 29.3656 7.55251C29.3656 7.57498 29.3431 7.69853 29.3319 7.82209C29.287 8.48481 29.1185 10.4954 29.096 10.5853V10.6527L28.7927 10.6414C28.0963 10.6077 27.9728 10.574 27.9503 10.4505C27.9278 10.3382 28.2648 6.0923 28.3434 5.44081V5.45205ZM21.4242 6.5079C21.5029 6.48543 21.7387 6.42927 21.9409 6.37311L22.3228 6.28325L23.0529 6.9235C24.4458 8.15907 25.232 8.84424 25.2657 8.84424C25.277 8.84424 25.086 7.92318 24.9737 7.44019C24.8389 6.86733 24.6367 5.92381 24.6367 5.85641C24.6367 5.76655 24.794 5.71039 25.4455 5.56437C25.569 5.54191 25.7487 5.55314 25.76 5.58684C25.8386 5.77779 26.872 10.428 26.872 10.5628C26.872 10.6302 26.052 10.911 25.8386 10.911C25.8386 10.911 25.7375 10.8324 25.6364 10.7425C25.5353 10.6527 25.1309 10.2932 24.749 9.95625C23.9291 9.23738 23.4573 8.82178 23.1203 8.52974C22.7946 8.24893 22.7946 8.1366 23.1877 9.8327C23.491 11.1132 23.5359 11.4052 23.4461 11.4389C23.1653 11.54 22.4239 11.6748 22.4015 11.6187C22.3004 11.3491 21.2782 6.86734 21.2782 6.66515V6.55283L21.413 6.5079H21.4242ZM18.6498 7.70977C19.2339 7.40649 19.3125 7.39526 19.4024 7.55251C19.4698 7.67607 19.8517 8.45111 20.0539 8.88917C20.1325 9.05766 20.3122 9.4508 20.4582 9.74284C21.1921 11.3079 21.5141 12.1241 21.4242 12.1915C21.2221 12.3488 20.638 12.6071 20.5144 12.5846C20.4807 12.5846 20.4246 12.4948 20.2785 12.214C20.11 11.8882 19.9753 11.6074 19.3799 10.3269C19.2788 10.1135 19.0879 9.69791 18.9419 9.39463C18.4701 8.39495 18.2904 8.00181 18.2904 7.94565C18.2904 7.88949 18.3241 7.86702 18.6498 7.69854V7.70977ZM13.0673 11.3378C13.101 11.2368 13.5615 10.8773 13.8536 10.7201L14.0108 10.6414L14.0782 10.7201C14.0782 10.7201 14.2804 10.9896 14.4489 11.2143C15.5721 12.7644 15.999 13.326 16.1562 13.4383C16.8863 13.9999 18.077 13.1912 17.8523 12.2814C17.8186 12.1466 17.5715 11.7647 17.0436 11.0233C16.4146 10.1472 16.291 9.97872 16.0776 9.66421C15.9653 9.49573 15.8642 9.33847 15.8642 9.31601C15.8642 9.23738 16.6168 8.66452 16.7291 8.66452C16.7403 8.66452 16.7965 8.70945 16.8414 8.76562C17.2795 9.24861 18.6386 11.1469 18.852 11.585C19.3799 12.6633 18.8071 13.9775 17.549 14.5728C17.2458 14.7188 17.1784 14.73 16.6729 14.73C16.0776 14.73 15.8305 14.6626 15.3812 14.3594C15.0779 14.1572 13.0336 11.4726 13.0785 11.3378H13.0673ZM11.2926 13.1687C11.4498 13.0339 11.4611 13.0339 11.6071 13.1687C11.6745 13.2249 11.8317 13.3822 11.9553 13.5282L12.1799 13.7865L11.8654 14.1235C11.0679 14.9659 10.8321 15.3815 10.8321 15.9656C10.8321 17.1787 12.3934 17.965 13.3706 17.2349C13.6065 17.0552 14.1344 16.4149 14.1344 16.3026C14.1344 16.2577 13.9097 16.0667 13.4941 15.7522C13.1235 15.4714 12.9213 15.2917 12.91 15.2355C12.8764 15.1119 13.4155 14.4043 13.5503 14.4043C13.6289 14.4043 14.6511 15.1681 15.325 15.741C15.5497 15.9319 15.5497 15.9319 15.4149 16.2577C15.1678 16.8305 14.696 17.5157 14.2916 17.8976C13.2695 18.8636 11.7531 18.9534 10.7197 18.0998C9.15842 16.8193 9.40553 14.775 11.315 13.18L11.2926 13.1687ZM5.1372 30.4892V30.2533L5.32815 30.1859C5.42924 30.1522 6.0021 29.95 6.59742 29.7478C7.67573 29.3884 8.1138 29.2199 8.13626 29.1862C8.14749 29.1637 8.1138 29.1525 7.47355 28.9615C6.17058 28.5684 5.15967 28.2764 5.1372 28.2764C5.08104 28.2764 5.05857 27.389 5.11474 27.3104C5.14843 27.2654 5.6202 27.1307 7.54094 26.6027C7.82176 26.5241 8.27105 26.4005 8.54063 26.3332C9.24827 26.1422 9.94469 25.9513 10.0907 25.9176C10.2143 25.8839 10.2143 25.8839 10.2704 25.94L10.3266 25.9962V26.5353C10.3378 27.0408 10.3378 27.0745 10.3041 27.0857C10.2817 27.0857 10.0795 27.1419 9.86606 27.2093C9.05732 27.4227 8.63049 27.535 8.22612 27.6474C8.00147 27.7147 7.74313 27.7821 7.65327 27.8046C7.56341 27.8271 7.48478 27.8495 7.48478 27.8608C7.48478 27.872 7.72066 27.9394 8.00147 28.0293C8.29352 28.1191 8.68665 28.2314 8.88884 28.2988C9.09102 28.355 9.49539 28.4786 9.78743 28.5684C10.0795 28.6583 10.3266 28.7369 10.3266 28.7369C10.3378 28.7481 10.3828 29.2311 10.3828 29.3996V29.5793L10.2704 29.6355C10.1244 29.7029 9.83236 29.8152 8.57433 30.242C7.52971 30.6015 7.50725 30.6015 7.59711 30.6352C7.86668 30.7026 8.21489 30.7924 8.81021 30.9272C9.76497 31.1406 10.2143 31.253 10.3041 31.2979C10.4052 31.3428 10.4164 31.3878 10.4164 31.9157C10.4164 32.4436 10.4164 32.4661 10.248 32.4436C10.0121 32.4099 5.78868 31.4215 5.23829 31.2754C5.1372 31.253 5.12597 31.0732 5.15967 30.5341L5.1372 30.4892ZM6.75467 37.7004C6.21552 36.9815 6.12565 35.8583 6.54126 35.0383C7.12534 33.8926 8.462 33.2748 9.70881 33.5781C10.5063 33.7803 11.3038 34.4991 11.5397 35.2405C12.1125 37.0264 10.7984 38.7787 8.88884 38.7787C8.01271 38.7787 7.30506 38.4193 6.75467 37.7004ZM12.281 42.9796L12.2586 43.0583C12.2586 43.0583 12.1125 43.5413 11.9665 44.0242C11.6071 45.2486 11.5846 45.3047 11.4835 45.3047C11.4049 45.3047 11.2813 45.1587 10.9219 44.6757L10.6299 44.2714L10.6973 44.0692C10.7759 43.8108 11.1241 42.6427 11.2252 42.2945L11.3038 42.0249L11.1915 41.8676C10.9668 41.5419 10.7197 41.2611 10.686 41.2611C10.6411 41.2611 10.4277 41.4071 9.83236 41.8452C9.30444 42.2383 9.25951 42.272 9.20335 42.2495C9.10225 42.2158 8.5294 41.4745 8.5294 41.3846C8.5294 41.3397 8.83267 41.0926 10.1019 40.1266C10.9556 39.4639 12.6405 38.2171 12.6742 38.2171C12.6742 38.2171 12.7753 38.3294 12.8764 38.4642C13.4267 39.1606 14.2692 40.3175 14.4601 40.632C14.9768 41.5082 14.6061 42.564 13.6402 43.0021C13.3369 43.1369 12.7528 43.1481 12.4271 43.0133L12.2923 42.9572L12.281 42.9796ZM15.662 48.7194C15.5946 48.7531 15.2127 48.4835 14.0895 47.5737C13.0448 46.7425 12.8202 46.5291 12.8539 46.4617C13.0224 46.1472 15.9877 42.418 16.0776 42.418C16.0776 42.418 16.2012 42.4966 16.3359 42.5977C16.6505 42.8336 16.9425 43.0807 16.9537 43.1257C16.9537 43.1593 16.7066 43.5076 16.1225 44.2377C15.9203 44.496 15.7069 44.7656 15.6395 44.8442C14.3253 46.5066 14.4152 46.3831 14.4714 46.4392C14.5163 46.4954 15.0667 46.9559 15.3475 47.1806C16.0664 47.7534 16.2461 47.9107 16.2461 47.9668C16.2461 48.0679 15.808 48.6295 15.6732 48.6969L15.662 48.7194ZM22.2105 48.2589C22.0308 49.9887 20.3347 50.8985 18.4813 50.2695C18.0096 50.1122 16.92 49.618 16.8639 49.5394C16.7965 49.4495 17.0436 48.8767 18.2792 46.3157C19.0991 44.6196 19.0093 44.7544 19.2676 44.8554C21.2895 45.6417 22.3565 46.8773 22.2217 48.2589H22.2105ZM25.5128 45.1587C25.5128 45.1587 25.4342 45.1475 25.4005 45.1363C25.3668 45.1363 25.3107 45.1138 25.2657 45.1138C25.2208 45.1138 25.0074 45.0576 24.7827 45.0015C24.5581 44.9453 24.3671 44.9004 24.3559 44.8891C24.0077 44.8105 22.8957 44.4174 22.379 44.1927C22.2442 44.1366 22.0982 44.0804 22.0533 44.0579C21.8511 43.9793 20.8402 43.4626 20.5481 43.2829C20.4695 43.238 20.4021 43.193 20.3909 43.193C20.3796 43.193 20.2898 43.1369 20.1887 43.0695C20.0763 43.0021 19.9865 42.9459 19.9753 42.9459C19.964 42.9459 19.9528 42.9459 19.9528 42.9235C19.9528 42.901 19.9416 42.901 19.9303 42.901C19.9191 42.901 19.8405 42.8561 19.7618 42.7999C19.6832 42.7437 19.6046 42.6988 19.5934 42.6988C19.5821 42.6988 19.5709 42.6988 19.5709 42.6764C19.5709 42.6539 19.5484 42.6427 19.526 42.6427C19.4698 42.6202 19.189 42.4292 19.1553 42.3843C19.1441 42.3618 19.1216 42.3506 19.1216 42.3618C19.1216 42.3618 19.0205 42.3057 18.9419 42.2383C18.9306 42.2271 18.8857 42.1934 18.852 42.1821C18.8071 42.1484 18.6948 42.0586 18.4476 41.8676C18.4252 41.8452 18.3353 41.7778 18.2679 41.7104C18.1893 41.643 18.1107 41.5756 18.0994 41.5643C18.077 41.5531 18.0208 41.4969 17.9647 41.4408C17.9085 41.3959 17.8074 41.306 17.7512 41.2498C17.2907 40.8567 16.1787 39.6661 15.853 39.228C15.8193 39.1831 15.7631 39.1157 15.7294 39.082C15.6957 39.0483 15.6732 39.0146 15.6732 39.0146C15.6732 39.0146 15.662 38.9809 15.6395 38.9696C15.5721 38.9023 15.3924 38.6551 15.3924 38.6327C15.3924 38.6214 15.3924 38.6102 15.37 38.599C15.3475 38.599 15.1228 38.2845 15.1228 38.262C15.1228 38.262 15.1116 38.2395 15.0891 38.2171C15.033 38.1497 14.8533 37.8689 14.8757 37.8689C14.8757 37.8689 14.8757 37.8576 14.8533 37.8352C14.8308 37.8127 14.8196 37.8015 14.8308 37.8015C14.842 37.8015 14.8308 37.8015 14.8308 37.779C14.8083 37.7565 14.6623 37.5319 14.5612 37.3634C14.5388 37.3185 14.4714 37.1949 14.4152 37.0938C14.359 36.9927 14.3141 36.9141 14.3141 36.9029C14.3141 36.8916 14.3029 36.8692 14.2804 36.8467C14.2355 36.8018 14.0108 36.3637 14.0221 36.3637C14.0221 36.3637 14.0221 36.33 13.9771 36.2739C13.9097 36.1615 13.7749 35.892 13.7637 35.8246C13.7637 35.8021 13.7413 35.7684 13.73 35.7459C13.7076 35.7122 13.4941 35.2517 13.4829 35.2068C13.4829 35.1843 13.4604 35.1506 13.4492 35.1282C13.4155 35.0608 13.1909 34.4879 13.1909 34.4542C13.1909 34.443 13.1909 34.4093 13.1684 34.3868C13.1459 34.3419 12.9437 33.7241 12.9325 33.6455C12.9325 33.6118 12.9213 33.5893 12.9213 33.5893C12.9213 33.5893 12.9213 33.5781 12.91 33.5556C12.91 33.5331 12.8651 33.3647 12.809 33.1849C12.7528 32.994 12.7079 32.8143 12.7079 32.7806C12.7079 32.7469 12.6854 32.6795 12.6742 32.6346C12.6629 32.5896 12.6517 32.5447 12.6629 32.5335C12.6629 32.5335 12.6629 32.4998 12.6629 32.4885C12.6629 32.4773 12.6405 32.4548 12.6405 32.4324C12.6405 32.4211 12.6405 32.3874 12.618 32.3537C12.618 32.32 12.5955 32.2639 12.5955 32.2302C12.5955 32.1965 12.5618 32.0617 12.5394 31.9269C12.4608 31.5225 12.3934 31.0283 12.3709 30.7138C12.3709 30.6801 12.3597 30.5678 12.3484 30.4779C12.326 30.1971 12.3147 30.1634 12.3035 29.6692C12.3035 29.3996 12.281 29.1525 12.281 29.1188C12.281 29.0289 12.3035 27.9619 12.326 27.726C12.3372 27.5575 12.3484 27.4002 12.3709 27.2317C12.3709 27.1756 12.3821 27.0745 12.3934 27.0071C12.4158 26.8049 12.472 26.4005 12.5281 26.0748C12.5618 25.9063 12.5843 25.7491 12.5955 25.7041C12.5955 25.6704 12.618 25.6143 12.618 25.5806C12.618 25.5469 12.6292 25.5132 12.6405 25.502C12.6405 25.4907 12.6517 25.4683 12.6629 25.4458C12.6629 25.4346 12.6742 25.4121 12.6629 25.4009C12.6629 25.3784 12.809 24.7494 12.8876 24.5023C12.9101 24.4461 12.91 24.3899 12.91 24.3787C12.91 24.3787 12.91 24.3675 12.9213 24.3675C12.9325 24.3675 12.9437 24.345 12.9437 24.3113C12.9437 24.2664 12.9999 24.0754 13.1459 23.6374C13.1459 23.6261 13.1459 23.6037 13.1459 23.6037C13.1459 23.6037 13.1459 23.5812 13.1684 23.5587C13.1796 23.5363 13.2021 23.4913 13.2133 23.4577C13.2246 23.379 13.4155 22.8848 13.4717 22.7949C13.4941 22.7612 13.5054 22.7275 13.4941 22.7275C13.4717 22.7275 14.0221 21.5369 14.1681 21.2898C14.213 21.2112 14.2692 21.0988 14.3029 21.0314C14.3366 20.964 14.3927 20.8517 14.4377 20.7843C14.4826 20.7169 14.5163 20.6495 14.5163 20.6383C14.5163 20.6271 14.5837 20.526 14.6623 20.4024C14.7409 20.2789 14.8196 20.1553 14.8308 20.1328C14.8533 20.0991 15.1565 19.6499 15.3587 19.3466C15.5384 19.0882 16.1225 18.3469 16.3135 18.1447C16.3584 18.0885 16.4483 17.9987 16.4932 17.9425C16.5381 17.8864 16.6505 17.7628 16.7291 17.6842C16.8077 17.5943 16.9313 17.4708 17.0099 17.3921C17.1334 17.2573 17.5378 16.8642 17.7063 16.7182C17.9759 16.4823 18.223 16.2689 18.3016 16.2127C18.3241 16.1903 18.3578 16.179 18.3578 16.1678C18.3578 16.1678 18.4476 16.0892 18.5487 16.0105C18.7172 15.8758 18.7846 15.8196 18.8969 15.7522C18.9194 15.741 18.9531 15.7185 18.9756 15.696C19.0654 15.6174 19.0879 15.6062 19.1104 15.6062C19.1216 15.6062 19.1328 15.6062 19.1441 15.5837C19.1553 15.5612 19.4473 15.3478 19.481 15.3478C19.4923 15.3478 19.5035 15.3478 19.5147 15.3254C19.526 15.3029 19.7618 15.1344 19.7843 15.1344C19.7955 15.1344 19.8068 15.1344 19.8068 15.1119C19.8068 15.0895 19.8292 15.0782 19.8629 15.0782C19.8966 15.0782 19.9191 15.0558 19.9303 15.0446C19.9416 15.0221 20.301 14.7974 20.3235 14.7974C20.3235 14.7974 20.4133 14.7525 20.5032 14.6851C20.593 14.629 20.7054 14.5616 20.7391 14.5503C20.7728 14.5391 20.8177 14.5166 20.8177 14.5054C20.8514 14.4605 21.8848 13.9438 21.9297 13.9438C21.9409 13.9438 21.9634 13.9438 21.9634 13.9213C21.9634 13.8988 21.9859 13.8988 22.0196 13.8876C22.0533 13.8876 22.1656 13.8314 22.2891 13.7753C22.6373 13.6293 23.1877 13.4158 23.2551 13.4046C23.2776 13.4046 23.2888 13.4046 23.3001 13.3934C23.3001 13.3934 23.3113 13.3934 23.3225 13.3934C23.3225 13.3934 23.5022 13.3372 23.6932 13.2698C23.8841 13.2024 24.0751 13.1463 24.1088 13.1463C24.1425 13.1463 24.165 13.135 24.165 13.135C24.165 13.135 24.1762 13.135 24.1987 13.135C24.2211 13.135 24.3222 13.1013 24.4345 13.0676C24.7715 12.9665 25.1871 12.8767 25.2994 12.8542C25.3668 12.8542 25.423 12.8318 25.4342 12.8318C25.4342 12.8318 25.4792 12.8205 25.5128 12.8093C25.5465 12.8093 25.6476 12.7868 25.7375 12.7644C25.9509 12.7194 26.5912 12.6183 26.7821 12.5959C26.8607 12.5959 26.9618 12.5734 27.0068 12.5734C27.7256 12.4836 28.7366 12.4611 29.4891 12.4948C29.9384 12.5173 30.0732 12.5285 30.3091 12.5509C30.3877 12.5509 30.4776 12.5734 30.5225 12.5734C30.8483 12.6071 31.4211 12.6857 31.8592 12.7756C32.0052 12.8093 32.1512 12.8318 32.1849 12.843C32.2074 12.843 32.2411 12.8542 32.2523 12.8655C32.2635 12.8655 32.3085 12.8767 32.3422 12.8767C32.3759 12.8767 32.5444 12.9216 32.7128 12.9665C32.8813 13.0115 33.0386 13.0564 33.0611 13.0564C33.0835 13.0564 33.1397 13.0789 33.1734 13.0901C33.2071 13.1013 33.2295 13.1013 33.2295 13.0901C33.2295 13.0789 33.252 13.0901 33.2745 13.1013C33.2969 13.1126 33.3419 13.135 33.3756 13.135C33.4205 13.135 34.0607 13.3485 34.1955 13.3934C34.218 13.3934 34.2405 13.4046 34.2629 13.4158C34.2742 13.4158 34.4314 13.472 34.5999 13.5394C34.993 13.6854 34.9481 13.6742 35.2401 13.7977C35.3749 13.8539 35.4985 13.8988 35.5097 13.8988C35.521 13.8988 35.5322 13.8988 35.5322 13.9213C35.5322 13.9438 35.5322 13.9438 35.5547 13.9213C35.5659 13.9213 35.5771 13.9213 35.5771 13.9213C35.5771 13.9213 35.5771 13.9438 35.5996 13.9438C35.622 13.9438 36.1387 14.1797 36.1612 14.2133C36.1612 14.2246 36.1837 14.2246 36.1837 14.2133C36.1837 14.1909 36.5656 14.3931 36.6217 14.438C36.6442 14.4605 36.6779 14.4717 36.6891 14.4717C36.7228 14.4717 37.0823 14.6851 37.1497 14.73C37.1721 14.7525 37.1946 14.7525 37.1946 14.7525C37.1946 14.7413 37.4529 14.8873 37.4642 14.921C37.4642 14.921 37.4979 14.9435 37.5203 14.9547C37.5877 14.9772 38.2841 15.4602 38.2841 15.4714C38.2841 15.4714 38.2954 15.4938 38.3178 15.4938C38.3291 15.4938 38.374 15.5163 38.4077 15.55C38.4414 15.5837 38.4863 15.6062 38.4863 15.6062C38.4863 15.6062 38.52 15.6286 38.5425 15.6511C38.5649 15.6736 38.6436 15.7297 38.711 15.7859C38.7784 15.8308 38.8458 15.8758 38.8458 15.887C38.857 15.8982 39.0929 16.0892 39.1266 16.1229C39.3625 16.2914 40.1937 17.0439 40.4632 17.336C40.5082 17.3809 40.6205 17.5045 40.7216 17.6055C40.9013 17.7853 41.0698 17.965 41.3057 18.2458C41.418 18.3694 41.5977 18.6052 41.755 18.7962C41.8224 18.8748 41.8785 18.9534 41.8897 18.9647C42.0133 19.1219 42.1256 19.2792 42.1256 19.2904C42.1256 19.3016 42.1256 19.3129 42.1481 19.3241C42.1481 19.3241 42.2267 19.414 42.2941 19.5151C42.3615 19.6162 42.4289 19.706 42.4289 19.706C42.4626 19.7397 42.6536 20.0542 42.6536 20.0655C42.6536 20.0767 42.6536 20.0879 42.676 20.0991C42.6985 20.0991 42.9344 20.4811 42.9681 20.5484C42.9681 20.5709 42.9905 20.5934 43.0018 20.6158C43.0804 20.7282 43.2152 20.9753 43.2152 20.9977C43.2152 21.009 43.2376 21.0539 43.2489 21.0764C43.305 21.155 43.496 21.5257 43.496 21.5481C43.496 21.5481 43.5634 21.7054 43.6532 21.8851C43.7993 22.1884 44.0464 22.7275 44.0576 22.7837C44.0576 22.7949 44.0688 22.8286 44.0913 22.8623C44.1362 22.9634 44.3497 23.5587 44.3609 23.6037C44.3609 23.6149 44.3946 23.7048 44.4283 23.7946C44.462 23.8845 44.4844 23.9631 44.4732 23.9631C44.462 23.9631 44.4732 23.9743 44.4732 23.9968C44.5069 24.0305 44.5743 24.2888 44.5743 24.345C44.5743 24.3675 44.5743 24.3899 44.5855 24.3899C44.5968 24.3899 44.608 24.4012 44.608 24.4236C44.608 24.4573 44.608 24.4236 44.7428 24.9516C44.799 25.1762 44.8551 25.3896 44.8551 25.4233C44.8551 25.457 44.8663 25.5132 44.8776 25.5469C44.8776 25.5806 44.9 25.6367 44.9 25.6704C44.9 25.7041 44.9337 25.8726 44.9674 26.0299C45.0348 26.3444 45.1135 26.8948 45.1359 27.1307C45.1359 27.2093 45.1584 27.3328 45.1584 27.389C45.2482 28.2651 45.2482 29.5793 45.1584 30.4779C45.1584 30.5453 45.1359 30.6689 45.1359 30.7475C45.1135 30.9722 45.0461 31.4664 44.9787 31.8258C44.945 31.9943 44.9225 32.1516 44.9113 32.1965C44.9113 32.2302 44.8888 32.2863 44.8888 32.32C44.8888 32.3537 44.8663 32.4099 44.8663 32.4548C44.8663 32.4998 44.8102 32.6795 44.7653 32.8704C44.6529 33.3085 44.6529 33.2973 44.6417 33.3534C44.6417 33.3871 44.6192 33.4208 44.6192 33.4321C44.6192 33.4433 44.5968 33.477 44.5968 33.5107C44.5968 33.5893 44.4957 33.9038 44.462 33.9263C44.4507 33.9375 44.4395 33.96 44.462 33.96C44.4844 33.96 44.4395 34.0498 44.4058 34.1509C44.3721 34.252 44.3272 34.3643 44.3272 34.398C44.316 34.4654 44.1025 35.0046 43.9677 35.3191C43.9116 35.4427 43.8554 35.5775 43.8442 35.6336C43.8217 35.6785 43.7993 35.7347 43.788 35.7459C43.7768 35.7459 43.7656 35.7684 43.788 35.7684C43.788 35.7684 43.7431 35.8807 43.6757 36.0268C43.6083 36.1728 43.5297 36.3188 43.5185 36.3525C43.5072 36.3862 43.4398 36.521 43.3724 36.6333C43.305 36.7569 43.2489 36.858 43.2489 36.858C43.2489 36.8804 43.0692 37.1949 43.013 37.2623C42.9793 37.3072 42.9681 37.3409 42.9681 37.3409C42.9905 37.3409 42.7434 37.7116 42.7209 37.7228C42.7209 37.7228 42.7097 37.7453 42.7209 37.7565C42.7209 37.7678 42.7209 37.779 42.7097 37.779C42.6985 37.779 42.6873 37.779 42.6873 37.8015C42.6873 37.8239 42.6423 37.8913 42.5862 37.97C42.53 38.0486 42.4851 38.1272 42.4851 38.1385C42.4851 38.1497 42.4626 38.1721 42.4514 38.1721C42.4289 38.1721 42.4177 38.1946 42.4289 38.1946C42.4401 38.2058 42.2717 38.4642 42.238 38.4754C42.238 38.4754 42.2155 38.4979 42.2155 38.5091C42.2155 38.5204 42.193 38.5428 42.1818 38.554C42.1593 38.554 42.1481 38.5765 42.1593 38.5877C42.1706 38.599 42.0021 38.8349 41.9347 38.9135C41.9234 38.9247 41.901 38.9472 41.901 38.9584C41.901 38.9584 41.8673 39.0146 41.8336 39.0595C41.7999 39.1044 41.7325 39.1718 41.6988 39.2168C41.6426 39.2842 41.5752 39.374 41.3394 39.6548C41.3169 39.6885 41.2607 39.7447 41.2158 39.7896C41.1709 39.8345 41.0922 39.9244 41.0361 40.003C40.7553 40.3288 39.6657 41.3846 39.5085 41.4857C39.486 41.5082 39.4523 41.5306 39.4411 41.5419C39.4298 41.5531 39.3512 41.6205 39.2838 41.6767C39.2052 41.7441 39.1378 41.8002 39.1378 41.8002C39.1378 41.8002 39.0929 41.8339 39.0479 41.8676C39.003 41.9013 38.9468 41.9462 38.9132 41.9799C38.8795 42.0136 38.8008 42.0698 38.7334 42.1147C38.666 42.1597 38.5425 42.2495 38.4751 42.3057C38.3066 42.4292 37.6214 42.8898 37.6102 42.8898C37.6102 42.8898 37.5203 42.9459 37.408 43.0133C37.3069 43.0807 37.1609 43.1706 37.0935 43.2043C37.0261 43.238 36.9587 43.2829 36.9475 43.2829C36.9475 43.2829 36.8688 43.3278 36.7902 43.3728C36.7116 43.4177 36.5431 43.5076 36.4196 43.575C36.296 43.6423 36.1949 43.6985 36.1837 43.6873C36.1837 43.6873 36.0264 43.7547 35.8467 43.8445C35.521 44.0018 34.993 44.2377 34.9706 44.2377C34.9706 44.2377 34.8245 44.2938 34.6561 44.35C34.3752 44.4623 33.5103 44.7431 33.398 44.7656C33.3756 44.7656 33.3531 44.7656 33.3531 44.7768C33.3531 44.7881 33.3419 44.7768 33.3194 44.7768C33.2969 44.7768 33.0835 44.833 32.8364 44.9004C32.5893 44.9678 32.3534 45.0239 32.3197 45.0239C32.286 45.0239 32.2299 45.0464 32.1962 45.0464C32.1625 45.0464 32.1063 45.0689 32.0726 45.0689C32.0389 45.0689 31.8704 45.1026 31.7019 45.1363C31.3313 45.2037 30.837 45.2823 30.6124 45.2935C30.4551 45.3047 30.399 45.316 30.1182 45.3384C29.4442 45.3946 28.2086 45.3946 27.5235 45.3384C27.4561 45.3384 27.3437 45.3272 27.2763 45.316C27.2089 45.316 27.0854 45.3047 27.018 45.2935C26.8046 45.271 26.2767 45.1924 25.9397 45.1363C25.7712 45.1026 25.6139 45.0801 25.5802 45.0689L25.5128 45.1587ZM30.9269 52.6732C30.9269 52.6732 29.6689 52.6957 29.6015 52.6732C29.5565 52.6508 29.1859 52.1453 28.7366 51.4826C28.6692 51.3815 28.5344 51.1905 28.4333 51.0445L28.2536 50.7862H27.2314V50.876C27.2314 50.9659 27.2202 51.2355 27.1753 52.0891L27.1528 52.6171H26.5687L25.9846 52.6283V51.1568C26.0071 50.0561 26.0745 47.4164 26.0857 47.3715C26.0857 47.3715 26.3665 47.3715 26.7035 47.3715C27.0405 47.3715 27.6133 47.3827 27.984 47.394C28.9949 47.4052 29.2982 47.4501 29.6015 47.6074C30.3091 47.9668 30.6236 48.6408 30.4888 49.4944C30.4327 49.8427 30.1519 50.247 29.7587 50.5503C29.6127 50.6626 29.6239 50.6851 30.1406 51.404C30.7809 52.2913 30.9943 52.6508 30.9269 52.6957V52.6732ZM36.3522 51.4826C36.2174 51.5612 32.9937 52.3587 32.8364 52.3587C32.7016 52.3587 32.6567 52.2239 32.3085 50.8199C31.8255 48.8879 31.5222 47.5962 31.4997 47.4052V47.2929L31.7469 47.2255C32.1737 47.1019 34.0383 46.6189 34.7908 46.428L35.1054 46.3494L35.1615 46.4055C35.1615 46.4055 35.2289 46.5291 35.2626 46.6189C35.3525 46.911 35.4311 47.2817 35.4199 47.3378C35.3974 47.4052 35.4423 47.394 34.3977 47.6636C33.0498 48.0005 32.9038 48.0455 32.915 48.1241C33.0498 48.7419 33.0947 48.8991 33.1734 48.8991C33.252 48.8991 33.8923 48.7643 34.4763 48.6183C35.5322 48.36 35.4985 48.36 35.5771 48.6071C35.7231 49.0227 35.7681 49.3484 35.6894 49.3821C35.6108 49.4271 35.0043 49.5955 34.6224 49.6854C34.1843 49.7865 33.443 49.9887 33.4205 49.9999C33.3531 50.0673 33.6227 51.0558 33.7125 51.0333C33.735 51.0333 33.9484 50.9771 34.1955 50.921C34.4426 50.8648 34.7908 50.7862 34.9706 50.7413C35.3525 50.6402 36.0376 50.5054 36.1163 50.5054C36.2511 50.5054 36.4757 51.4264 36.3522 51.4826ZM41.9459 48.5509C41.9234 48.6408 41.5752 48.9778 41.272 49.1912C39.4972 50.4717 37.408 49.955 36.7341 48.0679C36.1837 46.5179 37.1721 44.9453 39.0592 44.35C39.1827 44.3051 39.3175 44.2714 39.34 44.2601C39.4298 44.2264 39.5534 44.2377 39.5983 44.2601C39.6882 44.3275 39.823 44.7768 39.8342 45.0352C39.8342 45.2037 39.8117 45.2261 39.4635 45.3609C38.4976 45.7316 38.037 46.1023 37.8573 46.6863C37.5765 47.5962 38.228 48.6632 39.1266 48.7419C39.7893 48.798 40.3284 48.5959 41.0922 47.9781C41.1821 47.8994 41.272 47.832 41.2944 47.8208C41.3618 47.7647 41.9796 48.4498 41.9571 48.5509H41.9459ZM45.6414 45.6305C44.6529 47.0682 42.6648 47.1806 41.4517 45.8664C40.2161 44.5185 40.6317 42.3843 42.2829 41.6317C42.7322 41.4183 43.5634 41.3734 44.0464 41.5194C45.8436 42.0586 46.6523 44.159 45.6302 45.6417L45.6414 45.6305ZM50.1119 39.2505C50.1119 39.2505 49.8536 39.3066 49.584 39.3403C48.2473 39.5088 47.8317 39.5762 47.7868 39.6324C47.7306 39.6998 47.4049 40.3512 47.3936 40.4299C47.3862 40.4748 47.5921 40.6171 48.0114 40.8567C48.7977 41.2948 48.91 41.3622 48.8988 41.4183C48.8876 41.5306 48.5394 42.2046 48.4158 42.3506L48.3709 42.4068L48.0901 42.272C47.2926 41.8789 44.2373 40.1603 43.9004 39.9132C43.8554 39.8795 43.8217 39.8458 43.8217 39.8233C43.8217 39.6998 45.0348 37.5544 45.3269 37.1612C45.6639 36.7007 46.4389 36.476 47.0567 36.6445C47.6745 36.8243 48.1125 37.3073 48.2473 37.9812C48.3147 38.2957 48.3035 38.2845 48.4046 38.2845C48.4495 38.2845 48.8763 38.2283 49.3369 38.1721C49.9097 38.0935 50.2692 38.0598 50.4601 38.0486H50.7297V38.1048C50.7409 38.2171 50.2242 39.1606 50.0894 39.2617L50.1119 39.2505ZM51.7294 34.6227C51.6732 35.0608 51.4261 36.2177 51.3699 36.2739C51.3138 36.33 46.7422 35.2966 46.3603 35.1394L46.2816 35.1057V34.926C46.3266 34.5778 46.6074 33.5331 46.8096 33.0502C47.3375 31.8146 48.4046 31.1182 49.5503 31.253C51.0779 31.4439 51.9428 32.7693 51.7294 34.6115V34.6227ZM48.3372 28.9054C48.3933 28.9728 48.4046 28.9728 48.5169 28.9728C48.7415 28.9503 48.8089 28.838 49.1796 27.872C49.4604 27.1082 49.6401 26.6926 49.7862 26.4567C50.0333 26.0523 50.5387 25.8502 51.0891 25.94C52.291 26.131 52.8077 27.7147 52.3135 29.658C52.1562 30.2757 52.1225 30.2982 51.6507 30.1746C51.1228 30.0399 51.134 30.0623 51.2464 29.5456C51.4823 28.3999 51.4149 27.3328 51.0891 27.1644C50.7858 27.0071 50.6398 27.1981 50.2579 28.2651C49.6963 29.8489 49.393 30.1746 48.5281 30.1746C47.8092 30.1746 47.4161 29.8377 47.1802 29.0626C47.0454 28.6133 47.0454 27.2093 47.1802 26.5241C47.2476 26.1534 47.2139 26.1871 47.5621 26.2208C48.1238 26.277 48.2698 26.3332 48.2473 26.4792C48.0788 27.5687 48.1238 28.6695 48.3372 28.9278V28.9054ZM47.8879 15.1793C48.2361 15.7522 48.3484 16.033 48.2585 16.1004C48.135 16.1903 47.7082 16.4149 47.5846 16.4598C47.4273 16.516 47.461 16.5385 47.2252 16.1229C46.6298 15.0782 46.0682 14.4492 45.7762 14.5054C45.5066 14.5503 45.4954 14.8199 45.7088 15.55C46.1019 16.8867 46.1131 16.9428 46.1131 17.3809V17.7403L46.0233 17.9201C45.6189 18.7513 44.5518 18.9197 43.6757 18.302C43.1029 17.8976 42.3166 16.7406 42.1032 15.9993C42.0021 15.6286 42.0245 15.5949 42.5974 15.3703C42.9344 15.2467 42.8557 15.1681 43.2938 16.0667C43.8667 17.2349 44.5631 17.8077 44.9 17.3921C44.9674 17.3135 44.9674 17.2236 44.9 16.9428C44.8551 16.7182 44.8326 16.6396 44.6529 16.0555C44.2261 14.6739 44.271 14.1909 44.8326 13.663C45.1696 13.3485 45.5403 13.2249 45.9447 13.3148C46.54 13.4383 47.2364 14.1123 47.8766 15.1681L47.8879 15.1793Z" fill="white"/>
<path d="M27.8605 48.416H27.3101L27.2988 48.5059C27.2764 48.6631 27.2314 49.6853 27.2427 49.7077C27.2764 49.7414 28.4895 49.7639 28.7029 49.7414C29.1634 49.6853 29.3993 49.3146 29.2533 48.8653C29.1297 48.4946 28.9837 48.4497 27.8717 48.416H27.8605Z" fill="white"/>
<path d="M42.9568 42.5642C42.1256 42.7102 41.6202 43.7661 42.0133 44.5411C42.6535 45.8216 44.0351 46.035 44.7428 44.9792C45.428 43.957 44.2373 42.3508 42.9568 42.5642Z" fill="white"/>
<path d="M48.9437 32.511C48.3259 32.6121 47.8092 33.2075 47.6183 34.0162C47.5733 34.2296 47.5396 34.2071 48.0676 34.3307C48.9437 34.5329 49.5053 34.6677 49.9771 34.7688C50.2467 34.8249 50.4713 34.8811 50.4938 34.8811C50.6398 34.926 50.7184 34.005 50.6173 33.6006C50.4264 32.8929 49.6626 32.3987 48.9437 32.511Z" fill="white"/>
<path d="M46.3714 37.8121C46.1355 37.857 46.0794 37.9132 45.6862 38.531C45.383 39.014 45.2369 39.2948 45.2706 39.3285C45.3605 39.3959 46.3265 39.935 46.3714 39.935C46.5174 39.935 47.1352 38.7107 47.1352 38.4074C47.1352 38.0143 46.787 37.7447 46.3714 37.8121Z" fill="white"/>
<path d="M20.2673 46.6068C19.9079 46.326 19.7057 46.2362 19.6383 46.3036C19.6158 46.326 19.4586 46.6405 19.2901 47C19.1216 47.3594 18.8857 47.8536 18.7734 48.0895C18.3465 48.9657 18.3128 49.033 18.3465 49.0555C18.5038 49.1678 19.2227 49.3588 19.5372 49.3588C20.3908 49.3588 20.9862 48.7522 20.9862 47.8536C20.9862 47.3257 20.8064 47.0224 20.2673 46.6068Z" fill="white"/>
<path d="M13.5052 41.1155C13.4266 40.8908 12.6628 39.835 12.5729 39.835C12.5729 39.835 12.4719 39.8911 12.3595 39.9697C12.2023 40.0821 11.7979 40.3741 11.5508 40.5763C11.5059 40.61 11.5059 40.6212 11.7193 40.902C12.3371 41.722 12.5168 41.9017 12.6965 41.9467C13.1795 42.059 13.64 41.5872 13.494 41.1267L13.5052 41.1155Z" fill="white"/>
<path d="M10.5289 35.7571C10.3828 35.0494 9.65273 34.5777 8.91139 34.7125C8.61935 34.7686 8.22621 34.9259 7.96787 35.1056C7.10297 35.6897 7.20406 37.0263 8.14759 37.4981L8.33854 37.5992H8.67551C9.93355 37.6329 10.7423 36.8242 10.5289 35.7683V35.7571Z" fill="white"/>
<path d="M28.7592 0.295898C12.9102 0.295898 0.0603027 13.1458 0.0603027 28.9948C0.0603027 44.8438 12.9102 57.6937 28.7592 57.6937C44.6082 57.6937 57.4581 44.8438 57.4581 28.9948C57.4581 13.1458 44.6082 0.295898 28.7592 0.295898ZM53.7064 18.4588C55.1217 21.7948 55.8294 25.3442 55.8294 28.9948C55.8294 32.6453 55.1105 36.1948 53.7064 39.5308C53.0325 41.1371 52.1901 42.6871 51.2128 44.1249C50.2468 45.5626 49.1348 46.9105 47.9105 48.1349C46.6862 49.3592 45.3383 50.4712 43.9005 51.4372C42.4515 52.4144 40.9015 53.2569 39.3065 53.9308C35.9704 55.3461 32.421 56.0537 28.7704 56.0537C25.1199 56.0537 21.5704 55.3349 18.2344 53.9308C16.6282 53.2569 15.0781 52.4144 13.6403 51.4372C12.2026 50.4712 10.8547 49.3592 9.63034 48.1349C8.406 46.9105 7.29399 45.5626 6.328 44.1249C5.35078 42.6759 4.50835 41.1258 3.8344 39.5308C2.41911 36.1948 1.71147 32.6453 1.71147 28.9948C1.71147 25.3442 2.43035 21.7948 3.8344 18.4588C4.50835 16.8525 5.35078 15.3024 6.328 13.8647C7.29399 12.4269 8.406 11.079 9.63034 9.85471C10.8547 8.63037 12.2026 7.51836 13.6403 6.55237C15.0893 5.57515 16.6394 4.73271 18.2344 4.05876C21.5704 2.64348 25.1199 1.93583 28.7704 1.93583C32.421 1.93583 35.9704 2.65471 39.3065 4.05876C40.9127 4.73271 42.4628 5.57515 43.9005 6.55237C45.3383 7.51836 46.6862 8.63037 47.9105 9.85471C49.1348 11.079 50.2468 12.4269 51.2128 13.8647C52.1901 15.3137 53.0325 16.8637 53.7064 18.4588Z" fill="white"/>
</svg>
